<?xml version="1.0" encoding="utf-8"?>
<!-- Generator: Adobe Illustrator 25.4.1, SVG Export Plug-In . SVG Version: 6.00 Build 0)  -->
<svg version="1.1" id="Capa_1" xmlns="http://www.w3.org/2000/svg" xmlns:xlink="http://www.w3.org/1999/xlink" x="0px" y="0px"
	 viewBox="0 0 144 57" style="enable-background:new 0 0 144 57;" xml:space="preserve">
<style type="text/css">
	.st0{fill:#FFFFFF;}
</style>
<g>
	<path class="st0" d="M46.9,9.2C41.5,3.8,35,1.1,27.5,1.1c-7.5,0-14,2.7-19.4,8.1c-5.4,5.4-8,11.9-8,19.4c0,7.5,2.7,14,8,19.4
		c5.3,5.3,11.8,8,19.4,8c7.5,0,14-2.7,19.4-8c5.4-5.3,8.1-11.8,8.1-19.4C55,21,52.3,14.6,46.9,9.2z M36.3,10.9
		c-1.9,2.3-1.1,4.6-0.3,6.8c-0.5-0.1-1-0.3-1.5-0.4c-0.2-1.3-0.7-2.6-0.2-4c-1-0.2-1.5,0.7-1.9,1.5c-0.1-0.6-0.1-1.2-0.2-1.8
		C33.2,12.1,34.5,11.4,36.3,10.9z M43.4,32.5c-11,0.6-16.6,4.6-19,15c-2.8-3.7-4.7-7.6,0-12.4c-1.3,2.7-1.9,5.5-0.8,8.3
		c4.9-9.3,10.1-10.7,19.4-12c0.9-0.2,2.6-1.6,3.3-3.8c-0.5-0.1-1.1-0.5-1.9-1.6c0.2-0.3,0.3-0.4,0.9-0.7c-2.2-1.1-4.5-2.3-6.7-3.4
		c-1.7-2.6-4.8-3.4-9-2.8c1.1-0.7,1.4-1.6,1.2-2.6c0.1-1.3-0.2-2.5-0.7-3.9c-1,1.1-1.4,2.2-1.3,3.3c0.2,0.9-0.3,1.8,0.1,2.1
		c-0.6-0.4-0.1-1.8-1.8-1.8c0.8-1.5,1.5-2.5,2.4-4c-1.2,0.9-2.4,1.7-3.5,4c-0.1,1.6,0.8,2.6,1.7,3.8c-2.5-2.1-7.9-4.1-11.9-3.5
		c1,0.6,2.9,1.3,4,2.2c-4,0-9.8,2.4-10.1,5.5c3.6-0.5,9-0.7,12,0.5c1-1.1,2.4-2.3,4.7-3.3c0.1-0.6-0.4-1.2-1.4-1.8
		c2.6,0.6,5.3,1.3,7.9,1.9c-0.1-0.3-0.2-0.6-0.2-0.9c2.3,0.2,2.7,0.9,4,1.5c-0.4,0.4-0.6,0.6-0.8,0.4c0.3,0.7,1.3,1.4,2.5,2.1
		c0,0,0,0,0,0v0c0,0,0,0,0,0c-2.9-1.2-9.9-3.2-9.9-2.7c-7.3,1.3-3.1,7.1,4.1,6.7c-1.6,0.4-2.3,1.4-6.3,0.3c-2.3,0.5,0.4,3.2,1,4.6
		c-1.2-1.1-4.8-2.3-3.7-6c-1.1-0.8-2.2-0.7-3.2,2.5c1.1,0.4,2.1,1,3.1,1.8c-4.1,1.2-7.7,6.2-9.1,11.1c0.1-2.7,1.5-5.8,3-8.3
		c-6.7,2-8,4.8-10.3,7.5c1.7-4,4.3-7.2,8.8-10.8c-1-0.8-3.5-1.7-5.5-1.5c3.6-0.7,6.9-1,9.8,0.1c-0.2-0.8-0.4-2.7,1-4.7
		c-3.8-0.9-9.9-1-14.8,1.6c1.3-4.4,4.6-6.9,9.7-8.7c0.2-0.7-1.4-1.1-4.1-1.3c7.1-2.8,12.1-1.6,13.2-0.8c1.6-3,2.7-4.6,5.2-6.6
		c0.4,2.4,1.1,4.7,1.2,7.1c3.4,1.2,6.1,2.7,8.3,4.5c6.1,3.5,5.8,2.7,8,3.5C49.9,25.8,45,31.9,43.4,32.5z"/>
	<g>
		<path class="st0" d="M62.9,23.1L62.9,23.1c0-9.9,7.4-17.9,17.9-17.9c5.2,0,8.6,1.4,11.5,3.5c0.8,0.6,1.5,1.7,1.5,3
			c0,2.1-1.7,3.7-3.7,3.7c-1,0-1.7-0.4-2.3-0.7c-2.1-1.6-4.3-2.5-7-2.5c-5.8,0-10,4.8-10,10.7V23c0,5.9,4.1,10.8,10,10.8
			c3.2,0,5.3-1,7.5-2.7c0.6-0.5,1.4-0.8,2.3-0.8c1.9,0,3.5,1.6,3.5,3.5c0,1.2-0.6,2.1-1.3,2.7c-3.1,2.7-6.7,4.3-12.2,4.3
			C70.4,40.7,62.9,32.9,62.9,23.1z"/>
		<path class="st0" d="M98.7,9c0-2.2,1.7-3.9,3.9-3.9c2.2,0,3.9,1.7,3.9,3.9v28c0,2.2-1.7,3.9-3.9,3.9c-2.2,0-3.9-1.7-3.9-3.9V9z"/>
		<path class="st0" d="M111.2,9.1c0-2.2,1.7-3.9,3.9-3.9h9.9c11.2,0,18.9,7.7,18.9,17.7V23c0,10-7.7,17.8-18.9,17.8h-9.9
			c-2.2,0-3.9-1.7-3.9-3.9V9.1z M125,33.7c6.4,0,10.7-4.3,10.7-10.6V23c0-6.3-4.3-10.7-10.7-10.7h-6v21.4H125z"/>
	</g>
	<g>
		<path class="st0" d="M70.1,46c0-0.4,0.3-0.7,0.7-0.7h1.8c2.1,0,3.5,1.4,3.5,3.3v0c0,1.9-1.4,3.3-3.5,3.3h-1.8
			c-0.4,0-0.7-0.3-0.7-0.7V46z M72.7,50.6c1.2,0,2-0.8,2-2v0c0-1.2-0.8-2-2-2h-1.1v4H72.7z"/>
		<path class="st0" d="M80.2,49.1V46c0-0.4,0.3-0.7,0.7-0.7c0.4,0,0.7,0.3,0.7,0.7V49c0,1.1,0.5,1.6,1.4,1.6c0.9,0,1.4-0.5,1.4-1.6
			V46c0-0.4,0.3-0.7,0.7-0.7c0.4,0,0.7,0.3,0.7,0.7V49c0,2-1.1,3-2.9,3S80.2,51,80.2,49.1z"/>
		<path class="st0" d="M90.3,46c0-0.4,0.3-0.7,0.7-0.7h2.3c0.8,0,1.5,0.2,1.9,0.7c0.4,0.4,0.6,0.9,0.6,1.5v0c0,1-0.5,1.7-1.3,2
			l1,1.2c0.1,0.2,0.2,0.3,0.2,0.6c0,0.4-0.3,0.7-0.7,0.7c-0.3,0-0.5-0.2-0.7-0.4l-1.4-1.8h-1.2v1.4c0,0.4-0.3,0.7-0.7,0.7
			c-0.4,0-0.7-0.3-0.7-0.7V46z M93.2,48.5c0.7,0,1.1-0.4,1.1-0.9v0c0-0.6-0.4-0.9-1.1-0.9h-1.4v1.9H93.2z"/>
		<path class="st0" d="M99.5,51l2.3-5.2c0.2-0.4,0.5-0.6,0.8-0.6h0.1c0.4,0,0.7,0.2,0.8,0.6l2.3,5.2c0,0.1,0.1,0.2,0.1,0.3
			c0,0.4-0.3,0.7-0.7,0.7c-0.3,0-0.6-0.2-0.7-0.5l-0.4-1h-2.9l-0.5,1.1c-0.1,0.3-0.4,0.5-0.7,0.5c-0.4,0-0.7-0.3-0.7-0.7
			C99.4,51.2,99.5,51.1,99.5,51z M103.6,49.1l-0.9-2.2l-0.9,2.2H103.6z"/>
		<path class="st0" d="M109.9,46c0-0.4,0.3-0.7,0.7-0.7h0.2c0.3,0,0.6,0.2,0.8,0.4l2.8,3.7V46c0-0.4,0.3-0.7,0.7-0.7
			s0.7,0.3,0.7,0.7v5.2c0,0.4-0.3,0.7-0.7,0.7h0c-0.3,0-0.6-0.2-0.8-0.4l-2.9-3.8v3.5c0,0.4-0.3,0.7-0.7,0.7s-0.7-0.3-0.7-0.7V46z"
			/>
		<path class="st0" d="M119.9,48.6L119.9,48.6c0-1.9,1.5-3.4,3.5-3.4c1,0,1.7,0.2,2.3,0.6c0.1,0.1,0.3,0.3,0.3,0.6
			c0,0.4-0.3,0.7-0.7,0.7c-0.2,0-0.3-0.1-0.4-0.2c-0.4-0.3-0.8-0.5-1.4-0.5c-1.1,0-1.9,0.9-1.9,2.1v0c0,1.2,0.8,2.1,2,2.1
			c0.5,0,1-0.1,1.4-0.4v-0.9h-1c-0.3,0-0.6-0.3-0.6-0.6c0-0.3,0.3-0.6,0.6-0.6h1.7c0.4,0,0.7,0.3,0.7,0.7v1.6c0,0.4-0.2,0.7-0.5,0.9
			c-0.5,0.3-1.3,0.7-2.3,0.7C121.3,52,119.9,50.6,119.9,48.6z"/>
		<path class="st0" d="M130.1,48.6L130.1,48.6c0-1.9,1.5-3.4,3.5-3.4c2,0,3.5,1.5,3.5,3.4v0c0,1.9-1.5,3.4-3.5,3.4
			C131.6,52,130.1,50.5,130.1,48.6z M135.6,48.6L135.6,48.6c0-1.1-0.8-2.1-2-2.1s-2,0.9-2,2.1v0c0,1.1,0.8,2.1,2,2.1
			C134.8,50.7,135.6,49.7,135.6,48.6z"/>
	</g>
</g>
</svg>
