<?xml version="1.0" encoding="utf-8"?>
<!-- Generator: Adobe Illustrator 25.4.1, SVG Export Plug-In . SVG Version: 6.00 Build 0)  -->
<svg version="1.1" id="Capa_1" xmlns="http://www.w3.org/2000/svg" xmlns:xlink="http://www.w3.org/1999/xlink" x="0px" y="0px"
	 viewBox="0 0 236.6 14.75" style="enable-background:new 0 0 236.6 14.75;" xml:space="preserve">
<style type="text/css">
	.st0{fill:#FFFFFF;}
</style>
<g>
	<path class="st0" d="M7.79,6.83c-0.31-0.16-0.64-0.3-1.01-0.4s-0.73-0.2-1.1-0.29s-0.71-0.19-1.01-0.3
		C4.36,5.73,4.11,5.57,3.93,5.37S3.65,4.91,3.65,4.58c0-0.29,0.08-0.55,0.23-0.77c0.16-0.23,0.4-0.41,0.73-0.55s0.74-0.2,1.25-0.2
		c0.38,0,0.77,0.06,1.17,0.17s0.79,0.29,1.14,0.53l0.3-0.71C8.13,2.82,7.73,2.64,7.27,2.5c-0.46-0.13-0.93-0.2-1.4-0.2
		c-0.71,0-1.3,0.11-1.75,0.32S3.33,3.11,3.11,3.46S2.78,4.19,2.78,4.61c0,0.45,0.09,0.81,0.28,1.09S3.5,6.2,3.8,6.37
		s0.65,0.3,1.01,0.4c0.37,0.1,0.74,0.19,1.1,0.28c0.37,0.09,0.71,0.19,1.01,0.31c0.3,0.12,0.55,0.27,0.74,0.47
		c0.19,0.2,0.28,0.46,0.28,0.79c0,0.27-0.08,0.52-0.23,0.74c-0.16,0.22-0.4,0.4-0.73,0.53c-0.33,0.13-0.76,0.2-1.29,0.2
		c-0.55,0-1.08-0.1-1.58-0.29c-0.5-0.2-0.9-0.44-1.19-0.73L2.57,9.75c0.31,0.32,0.75,0.58,1.33,0.79s1.17,0.31,1.79,0.31
		c0.72,0,1.31-0.11,1.77-0.32c0.46-0.21,0.8-0.49,1.03-0.84s0.34-0.73,0.34-1.13c0-0.44-0.09-0.8-0.28-1.07
		C8.34,7.22,8.09,7,7.79,6.83z"/>
	<rect x="10.75" y="2.38" class="st0" width="0.89" height="8.4"/>
	<polygon class="st0" points="15.26,6.89 19.6,6.89 19.6,6.13 15.26,6.13 15.26,3.14 20.13,3.14 20.13,2.38 14.37,2.38 14.37,10.78 
		20.31,10.78 20.31,10.01 15.26,10.01 	"/>
	<polygon class="st0" points="26.78,8.6 23.13,2.38 22.4,2.38 22.4,10.78 23.25,10.78 23.25,4.1 26.55,9.71 26.97,9.71 30.27,4.06 
		30.27,10.78 31.12,10.78 31.12,2.38 30.39,2.38 	"/>
	<path class="st0" d="M38.84,2.72C38.33,2.49,37.71,2.38,37,2.38h-3.14v8.4h0.89V8.13h2.26c0.71,0,1.32-0.12,1.84-0.35
		c0.51-0.23,0.91-0.56,1.18-0.99c0.28-0.43,0.41-0.94,0.41-1.53c0-0.61-0.14-1.13-0.41-1.55C39.74,3.27,39.35,2.95,38.84,2.72z
		 M38.89,6.8c-0.44,0.36-1.07,0.55-1.91,0.55h-2.23v-4.2h2.23c0.84,0,1.48,0.18,1.91,0.55c0.44,0.37,0.65,0.89,0.65,1.56
		C39.55,5.92,39.33,6.43,38.89,6.8z"/>
	<path class="st0" d="M47.33,7.77c0.51-0.23,0.91-0.56,1.18-0.98c0.28-0.43,0.41-0.94,0.41-1.53c0-0.61-0.14-1.13-0.41-1.55
		c-0.28-0.43-0.67-0.76-1.18-0.98c-0.51-0.24-1.12-0.35-1.83-0.35h-3.14v8.4h0.89V8.12h2.26c0.24,0,0.45-0.03,0.66-0.06l1.93,2.72
		h0.97L47,7.88C47.1,7.84,47.23,7.82,47.33,7.77z M45.47,7.36h-2.23V3.15h2.23c0.84,0,1.48,0.18,1.91,0.55
		c0.44,0.37,0.65,0.89,0.65,1.56c0,0.66-0.22,1.18-0.65,1.55C46.95,7.17,46.31,7.36,45.47,7.36z"/>
	<polygon class="st0" points="51.92,6.89 56.26,6.89 56.26,6.13 51.92,6.13 51.92,3.14 56.79,3.14 56.79,2.38 51.03,2.38 
		51.03,10.78 56.97,10.78 56.97,10.01 51.92,10.01 	"/>
	<path class="st0" d="M64.03,4.63c0.24-0.24,0.53-0.42,0.87-0.55s0.71-0.19,1.12-0.19c0.42,0,0.82,0.08,1.18,0.23
		c0.36,0.16,0.69,0.39,1,0.71l1.25-1.15c-0.41-0.47-0.91-0.83-1.51-1.08s-1.27-0.37-2.01-0.37c-0.67,0-1.29,0.11-1.85,0.32
		s-1.05,0.51-1.46,0.91c-0.42,0.39-0.74,0.85-0.97,1.38s-0.34,1.11-0.34,1.74c0,0.63,0.11,1.21,0.34,1.74
		c0.23,0.53,0.55,0.99,0.96,1.38c0.41,0.39,0.9,0.69,1.45,0.91c0.56,0.21,1.17,0.32,1.83,0.32c0.6,0,1.2-0.09,1.81-0.28
		c0.6-0.18,1.13-0.45,1.59-0.79V6.45h-1.78V8.9c-0.13,0.07-0.26,0.14-0.39,0.18C66.76,9.2,66.38,9.27,66,9.27
		c-0.4,0-0.77-0.06-1.1-0.19s-0.62-0.31-0.86-0.56c-0.24-0.24-0.43-0.53-0.56-0.86s-0.2-0.69-0.2-1.08c0-0.4,0.07-0.76,0.2-1.09
		S63.79,4.87,64.03,4.63z"/>
	<path class="st0" d="M76.66,8.08c0.54-0.24,0.96-0.59,1.26-1.04s0.44-0.99,0.44-1.61c0-0.63-0.15-1.18-0.44-1.63
		s-0.72-0.81-1.26-1.05c-0.54-0.25-1.19-0.37-1.94-0.37h-3.64v8.4h1.94V8.44h1.69c0.03,0,0.06-0.01,0.09-0.01l1.62,2.35h2.1
		l-1.88-2.69C76.65,8.08,76.66,8.08,76.66,8.08z M75.95,4.34c0.3,0.26,0.44,0.62,0.44,1.08s-0.15,0.81-0.44,1.07
		c-0.3,0.26-0.74,0.39-1.34,0.39h-1.58V3.95h1.58C75.21,3.96,75.66,4.09,75.95,4.34z"/>
	<path class="st0" d="M82.54,2.38l-3.74,8.4h1.99l0.75-1.8h3.89l0.75,1.8h2.04l-3.76-8.4H82.54z M82.15,7.5l1.34-3.22l1.33,3.22
		H82.15z"/>
	<polygon class="st0" points="94.88,7.47 90.7,2.38 89.09,2.38 89.09,10.78 91.01,10.78 91.01,5.68 95.2,10.78 96.8,10.78 
		96.8,2.38 94.88,2.38 	"/>
	<path class="st0" d="M105.02,2.9c-0.7-0.35-1.5-0.52-2.41-0.52h-3.82v8.4h3.82c0.91,0,1.72-0.17,2.41-0.52
		c0.7-0.35,1.24-0.84,1.63-1.46c0.39-0.63,0.59-1.37,0.59-2.21c0-0.86-0.2-1.6-0.59-2.22C106.26,3.73,105.71,3.25,105.02,2.9z
		 M104.93,7.96c-0.23,0.39-0.55,0.69-0.96,0.91s-0.9,0.32-1.46,0.32h-1.78V3.98h1.78c0.56,0,1.05,0.11,1.46,0.32s0.73,0.51,0.96,0.9
		c0.23,0.39,0.34,0.85,0.34,1.39C105.27,7.1,105.15,7.56,104.93,7.96z"/>
	<polygon class="st0" points="110.63,7.27 114.53,7.27 114.53,5.76 110.63,5.76 110.63,3.94 115.05,3.94 115.05,2.38 108.7,2.38 
		108.7,10.78 115.2,10.78 115.2,9.22 110.63,9.22 	"/>
	<path class="st0" d="M122.1,6.53c-0.29-0.18-0.61-0.32-0.95-0.42c-0.35-0.1-0.7-0.2-1.04-0.28c-0.35-0.08-0.67-0.16-0.95-0.24
		c-0.29-0.08-0.52-0.19-0.7-0.32s-0.26-0.31-0.26-0.52c0-0.18,0.05-0.35,0.16-0.49c0.1-0.14,0.28-0.25,0.52-0.34
		s0.55-0.13,0.92-0.13s0.76,0.05,1.15,0.16s0.78,0.27,1.18,0.5l0.6-1.48c-0.39-0.25-0.84-0.43-1.36-0.56
		c-0.51-0.12-1.03-0.19-1.56-0.19c-0.79,0-1.45,0.12-1.97,0.35c-0.52,0.24-0.92,0.55-1.18,0.95s-0.39,0.83-0.39,1.31
		c0,0.45,0.09,0.82,0.27,1.1c0.18,0.29,0.41,0.52,0.7,0.7s0.61,0.32,0.95,0.43c0.35,0.11,0.7,0.21,1.04,0.28
		c0.35,0.08,0.67,0.16,0.95,0.24s0.52,0.19,0.7,0.32s0.26,0.31,0.26,0.53c0,0.18-0.06,0.33-0.17,0.47s-0.29,0.24-0.52,0.32
		c-0.24,0.08-0.55,0.11-0.93,0.11c-0.5,0-1-0.08-1.49-0.25c-0.49-0.16-0.92-0.37-1.28-0.63l-0.66,1.46c0.38,0.29,0.87,0.52,1.49,0.7
		c0.62,0.18,1.26,0.27,1.93,0.27c0.8,0,1.46-0.12,1.99-0.36c0.52-0.24,0.92-0.56,1.18-0.95c0.26-0.39,0.4-0.82,0.4-1.3
		c0-0.44-0.09-0.8-0.27-1.09C122.63,6.94,122.39,6.7,122.1,6.53z"/>
	<path class="st0" d="M124.7,9.53c-0.18,0-0.33,0.06-0.45,0.18s-0.19,0.28-0.19,0.47s0.06,0.35,0.19,0.47
		c0.07,0.07,0.16,0.11,0.25,0.14l-0.41,1.74h0.58l0.5-1.66c0.04-0.11,0.07-0.21,0.1-0.29c0.02-0.08,0.04-0.15,0.05-0.22
		c0.01-0.06,0.01-0.13,0.01-0.19c0-0.18-0.06-0.33-0.17-0.46C125.03,9.59,124.88,9.53,124.7,9.53z"/>
	<path class="st0" d="M134.89,6.83c-0.31-0.16-0.64-0.3-1.01-0.4c-0.36-0.1-0.73-0.2-1.1-0.29c-0.37-0.09-0.71-0.19-1.01-0.3
		c-0.31-0.11-0.56-0.27-0.74-0.47c-0.19-0.2-0.28-0.46-0.28-0.79c0-0.29,0.08-0.55,0.23-0.77s0.4-0.41,0.73-0.55s0.74-0.2,1.25-0.2
		c0.38,0,0.77,0.06,1.17,0.17s0.79,0.29,1.15,0.53l0.3-0.71c-0.34-0.23-0.74-0.41-1.2-0.55s-0.93-0.2-1.4-0.2
		c-0.71,0-1.3,0.11-1.75,0.32s-0.79,0.49-1.01,0.84s-0.33,0.73-0.33,1.15c0,0.45,0.09,0.81,0.28,1.09s0.44,0.5,0.74,0.67
		s0.65,0.3,1.01,0.4c0.37,0.1,0.74,0.19,1.1,0.28s0.7,0.19,1.01,0.31c0.3,0.12,0.55,0.27,0.74,0.47c0.19,0.2,0.28,0.46,0.28,0.79
		c0,0.27-0.08,0.52-0.23,0.74c-0.16,0.22-0.4,0.4-0.73,0.53c-0.33,0.13-0.76,0.2-1.29,0.2c-0.55,0-1.08-0.1-1.58-0.29
		c-0.5-0.2-0.9-0.44-1.19-0.73l-0.35,0.68c0.31,0.32,0.75,0.58,1.33,0.79c0.57,0.2,1.17,0.31,1.79,0.31c0.72,0,1.31-0.11,1.77-0.32
		s0.8-0.49,1.03-0.84c0.22-0.35,0.34-0.73,0.34-1.13c0-0.44-0.09-0.8-0.28-1.07C135.45,7.22,135.2,7,134.89,6.83z"/>
	<rect x="137.85" y="2.38" class="st0" width="0.89" height="8.4"/>
	<polygon class="st0" points="142.36,6.89 146.7,6.89 146.7,6.13 142.36,6.13 142.36,3.14 147.23,3.14 147.23,2.38 141.47,2.38 
		141.47,10.78 147.41,10.78 147.41,10.01 142.36,10.01 	"/>
	<polygon class="st0" points="153.88,8.6 150.23,2.38 149.5,2.38 149.5,10.78 150.35,10.78 150.35,4.1 153.65,9.71 154.07,9.71 
		157.37,4.06 157.37,10.78 158.22,10.78 158.22,2.38 157.49,2.38 	"/>
	<path class="st0" d="M165.94,2.72c-0.51-0.23-1.12-0.34-1.84-0.34h-3.14v8.4h0.89V8.13h2.26c0.71,0,1.32-0.12,1.84-0.35
		c0.51-0.23,0.91-0.56,1.18-0.99c0.28-0.43,0.41-0.94,0.41-1.53c0-0.61-0.14-1.13-0.41-1.55C166.84,3.27,166.45,2.95,165.94,2.72z
		 M165.99,6.8c-0.44,0.36-1.07,0.55-1.91,0.55h-2.23v-4.2h2.23c0.84,0,1.48,0.18,1.91,0.55c0.44,0.37,0.65,0.89,0.65,1.56
		C166.65,5.92,166.43,6.43,165.99,6.8z"/>
	<path class="st0" d="M174.43,7.77c0.51-0.23,0.91-0.56,1.18-0.98c0.28-0.43,0.41-0.94,0.41-1.53c0-0.61-0.14-1.13-0.41-1.55
		c-0.28-0.43-0.67-0.76-1.18-0.98c-0.51-0.23-1.12-0.34-1.84-0.34h-3.14v8.4h0.89V8.13h2.26c0.24,0,0.45-0.03,0.66-0.06l1.93,2.72
		h0.97l-2.07-2.9C174.21,7.84,174.33,7.82,174.43,7.77z M172.58,7.36h-2.23V3.15h2.23c0.84,0,1.48,0.18,1.91,0.55
		c0.44,0.37,0.65,0.89,0.65,1.56c0,0.66-0.22,1.18-0.65,1.55C174.05,7.17,173.42,7.36,172.58,7.36z"/>
	<polygon class="st0" points="179.02,6.89 183.36,6.89 183.36,6.13 179.02,6.13 179.02,3.14 183.89,3.14 183.89,2.38 178.13,2.38 
		178.13,10.78 184.07,10.78 184.07,10.01 179.02,10.01 	"/>
	<polygon class="st0" points="190.88,2.38 188.93,2.38 188.93,10.78 195.09,10.78 195.09,9.19 190.88,9.19 	"/>
	<path class="st0" d="M203.38,3.47c-0.41-0.39-0.9-0.7-1.45-0.91c-0.56-0.22-1.17-0.32-1.83-0.32s-1.26,0.11-1.82,0.32
		c-0.56,0.22-1.05,0.52-1.46,0.91c-0.42,0.39-0.74,0.85-0.97,1.38s-0.34,1.1-0.34,1.73c0,0.63,0.11,1.2,0.34,1.73
		c0.23,0.53,0.55,0.99,0.96,1.38s0.9,0.7,1.46,0.91c0.56,0.22,1.18,0.32,1.84,0.32s1.26-0.11,1.82-0.32
		c0.56-0.22,1.04-0.52,1.45-0.91s0.73-0.85,0.97-1.38c0.23-0.53,0.35-1.11,0.35-1.73c0-0.63-0.12-1.21-0.35-1.73
		C204.12,4.32,203.8,3.86,203.38,3.47z M202.53,7.67c-0.13,0.33-0.32,0.61-0.56,0.85c-0.24,0.24-0.52,0.42-0.83,0.55
		c-0.32,0.13-0.66,0.19-1.04,0.19c-0.38,0-0.72-0.06-1.04-0.19c-0.32-0.13-0.6-0.31-0.83-0.55c-0.24-0.24-0.42-0.53-0.55-0.86
		s-0.2-0.69-0.2-1.09s0.07-0.76,0.2-1.09s0.32-0.61,0.56-0.85c0.24-0.24,0.52-0.42,0.83-0.55c0.32-0.13,0.66-0.19,1.04-0.19
		c0.38,0,0.72,0.06,1.04,0.19c0.32,0.13,0.6,0.31,0.83,0.55c0.24,0.24,0.42,0.52,0.55,0.85s0.2,0.69,0.2,1.09
		C202.73,6.98,202.67,7.34,202.53,7.67z"/>
	<path class="st0" d="M212.57,6.49c-0.08-0.03-0.18-0.05-0.26-0.08c0.34-0.17,0.61-0.4,0.81-0.7c0.22-0.32,0.32-0.71,0.32-1.15
		c0-0.66-0.27-1.18-0.8-1.58s-1.33-0.6-2.38-0.6h-4.1v8.4h4.34c1.1,0,1.94-0.2,2.51-0.61c0.57-0.4,0.85-0.97,0.85-1.69
		c0-0.49-0.11-0.9-0.34-1.24C213.3,6.91,212.98,6.66,212.57,6.49z M210.03,3.84c0.47,0,0.83,0.08,1.09,0.25s0.38,0.41,0.38,0.74
		c0,0.34-0.13,0.59-0.38,0.75s-0.61,0.25-1.09,0.25h-1.93V3.85L210.03,3.84L210.03,3.84z M211.51,9.07
		c-0.26,0.16-0.64,0.25-1.15,0.25h-2.27V7.24h2.27c0.5,0,0.89,0.09,1.15,0.26s0.39,0.43,0.39,0.79
		C211.9,8.64,211.77,8.9,211.51,9.07z"/>
	<path class="st0" d="M222.69,3.47c-0.41-0.39-0.9-0.7-1.45-0.91c-0.56-0.22-1.17-0.32-1.83-0.32s-1.26,0.11-1.82,0.32
		c-0.56,0.22-1.05,0.52-1.46,0.91c-0.42,0.39-0.74,0.85-0.97,1.38s-0.34,1.1-0.34,1.73c0,0.63,0.11,1.2,0.34,1.73
		c0.23,0.53,0.55,0.99,0.96,1.38s0.9,0.7,1.46,0.91c0.56,0.22,1.18,0.32,1.84,0.32s1.26-0.11,1.82-0.32
		c0.56-0.22,1.04-0.52,1.45-0.91s0.73-0.85,0.97-1.38c0.23-0.53,0.35-1.11,0.35-1.73c0-0.63-0.12-1.21-0.35-1.73
		C223.43,4.32,223.1,3.86,222.69,3.47z M221.84,7.67c-0.13,0.33-0.32,0.61-0.56,0.85c-0.24,0.24-0.52,0.42-0.83,0.55
		c-0.32,0.13-0.66,0.19-1.04,0.19c-0.38,0-0.72-0.06-1.04-0.19c-0.32-0.13-0.6-0.31-0.83-0.55c-0.24-0.24-0.42-0.53-0.55-0.86
		s-0.2-0.69-0.2-1.09s0.07-0.76,0.2-1.09s0.32-0.61,0.56-0.85c0.24-0.24,0.52-0.42,0.83-0.55c0.32-0.13,0.66-0.19,1.04-0.19
		c0.38,0,0.72,0.06,1.04,0.19c0.32,0.13,0.6,0.31,0.83,0.55c0.24,0.24,0.42,0.52,0.55,0.85s0.2,0.69,0.2,1.09
		C222.04,6.98,221.97,7.34,221.84,7.67z"/>
	<path class="st0" d="M230.82,6.53c-0.29-0.18-0.61-0.32-0.95-0.42c-0.35-0.1-0.7-0.2-1.04-0.28c-0.35-0.08-0.67-0.16-0.95-0.24
		c-0.29-0.08-0.52-0.19-0.7-0.32s-0.26-0.31-0.26-0.52c0-0.18,0.05-0.35,0.16-0.49c0.1-0.14,0.28-0.25,0.52-0.34
		s0.55-0.13,0.92-0.13s0.76,0.05,1.15,0.16s0.78,0.27,1.18,0.5l0.6-1.48c-0.39-0.25-0.84-0.43-1.36-0.56
		c-0.51-0.12-1.03-0.19-1.56-0.19c-0.79,0-1.45,0.12-1.97,0.35c-0.52,0.24-0.92,0.55-1.18,0.95s-0.39,0.83-0.39,1.31
		c0,0.45,0.09,0.82,0.27,1.1c0.18,0.29,0.41,0.52,0.7,0.7s0.61,0.32,0.95,0.43c0.35,0.11,0.7,0.21,1.04,0.28
		c0.35,0.08,0.67,0.16,0.95,0.24s0.52,0.19,0.7,0.32s0.26,0.31,0.26,0.53c0,0.18-0.06,0.33-0.17,0.47s-0.29,0.24-0.52,0.32
		c-0.24,0.08-0.55,0.11-0.93,0.11c-0.5,0-1-0.08-1.49-0.25c-0.49-0.16-0.92-0.37-1.28-0.63l-0.66,1.46c0.38,0.29,0.87,0.52,1.49,0.7
		c0.62,0.18,1.26,0.27,1.93,0.27c0.8,0,1.46-0.12,1.99-0.36c0.52-0.24,0.92-0.56,1.18-0.95c0.26-0.39,0.4-0.82,0.4-1.3
		c0-0.44-0.09-0.8-0.27-1.09C231.34,6.94,231.11,6.7,230.82,6.53z"/>
	<path class="st0" d="M233.85,9.71c-0.12-0.12-0.27-0.18-0.45-0.18s-0.33,0.06-0.45,0.18s-0.19,0.28-0.19,0.47
		c0,0.18,0.06,0.34,0.19,0.47s0.27,0.19,0.45,0.19s0.33-0.06,0.45-0.19s0.19-0.28,0.19-0.47C234.04,9.98,233.98,9.83,233.85,9.71z"
		/>
</g>
</svg>
