<!-- Generator: Adobe Illustrator 19.2.1, SVG Export Plug-In  -->
<svg version="1.1"
	 xmlns="http://www.w3.org/2000/svg" xmlns:xlink="http://www.w3.org/1999/xlink" xmlns:a="http://ns.adobe.com/AdobeSVGViewerExtensions/3.0/"
	 x="0px" y="0px" width="1051.691px" height="212.004px" viewBox="0 0 1051.691 212.004"
	 style="enable-background:new 0 0 1051.691 212.004;" xml:space="preserve">
<style type="text/css">
	.st0{fill:#C3002F;}
	.st1{fill:#FFFFFF;}
	.st2{fill:#231F20;}
</style>
<defs>
</defs>
<g>
	<g>
		<path class="st0" d="M106.015,0C47.432,0,0,47.482,0,106.022c0,58.549,47.432,105.982,106.015,105.982
			c58.521,0,105.992-47.433,105.992-105.982C212.007,47.482,164.536,0,106.015,0z M142.011,38.035
			c-7.726,9.425-4.625,18.56-1.173,27.683c-1.987-0.55-3.971-1.098-5.96-1.651c-0.899-5.37-2.852-10.646-0.697-16.321
			c-4.254-0.909-5.928,2.664-7.748,5.976c-0.234-2.409-0.464-4.82-0.7-7.232C129.294,42.86,134.723,40.043,142.011,38.035z
			 M151.013,93.755c-11.749-4.737-40.443-12.873-40.53-10.813c-29.736,5.439-12.706,28.966,16.814,27.305
			c-6.454,1.778-9.564,5.671-25.735,1.307c-9.509,1.969,1.695,13.137,4.164,18.68c-4.867-4.635-19.698-9.443-14.931-24.492
			c-4.531-3.249-8.987-2.89-13.133,9.991c4.381,1.66,8.557,4.059,12.538,7.397c-16.652,4.992-31.452,25.278-36.942,45.22
			c0.375-11.114,6.219-23.539,12.217-33.717c-27.483,7.969-32.566,19.654-42.124,30.602c7.08-16.267,17.387-29.531,35.857-43.906
			c-3.93-3.106-14.423-6.761-22.574-6.206c14.825-2.808,28.202-3.941,40.116,0.273c-0.712-3.431-1.564-10.854,4.253-19.036
			c-15.571-3.719-40.189-3.991-60.33,6.577c5.201-17.742,18.718-28.17,39.465-35.484c0.785-2.804-5.773-4.59-16.516-5.31
			c29.087-11.269,49.328-6.583,53.733-3.09c6.587-12.075,10.94-18.571,21.005-26.803c1.447,9.645,4.546,19.126,4.839,28.882
			c13.801,4.747,24.906,11.045,33.889,18.55c24.764,14.163,23.639,10.952,32.474,14.423c7.764,4.73-12.034,29.75-18.464,32.068
			c-44.955,2.419-67.582,18.76-77.393,61.157c-11.546-15.193-19.23-30.957,0.165-50.725c-5.124,11.067-7.715,22.299-3.321,33.956
			c19.984-37.774,41.124-43.483,78.921-49.035c3.83-0.781,10.584-6.466,13.603-15.577c-2.15-0.489-4.514-2.206-7.753-6.416
			c0.855-1.149,1.405-1.503,3.801-2.804c-9.108-4.62-18.219-9.238-27.323-13.861c-6.755-10.79-19.65-13.743-36.753-11.323
			c4.509-2.782,5.574-6.496,5.075-10.643c0.492-5.122-0.865-10.383-3.055-15.711c-3.996,4.427-5.771,8.878-5.325,13.331
			c0.681,3.769-1.135,7.302,0.204,8.675c-2.323-1.579-0.333-7.375-7.225-7.413c3.303-6.194,6.314-10.265,9.618-16.464
			c-4.913,3.653-9.842,7.076-14.201,16.344c-0.436,6.359,3.459,10.777,7.09,15.315C96.86,66.228,75.131,58.142,58.778,60.683
			c4.151,2.356,11.897,5.137,16.176,8.893c-16.254,0.051-40.126,9.918-41.124,22.365c14.855-2.238,36.636-2.945,48.917,2.18
			c3.881-4.552,9.948-9.236,19.326-13.543c0.388-2.649-1.724-5.061-5.545-7.319c10.775,2.557,21.548,5.112,32.318,7.667
			c-0.32-1.173-0.636-2.342-0.96-3.516c9.33,0.827,10.986,3.627,16.481,6.05c-1.489,1.708-2.63,2.282-3.423,1.723
			C142.307,88.196,146.297,91.004,151.013,93.755"/>
		<path class="st1" d="M134.181,47.746c-2.155,5.675-0.201,10.95,0.697,16.321c1.989,0.553,3.973,1.102,5.96,1.651
			c-3.452-9.122-6.554-18.258,1.173-27.683c-7.289,2.008-12.717,4.824-16.278,8.454c0.236,2.411,0.467,4.823,0.7,7.232
			C128.254,50.41,129.927,46.837,134.181,47.746z"/>
		<path class="st1" d="M189.567,94.105c-8.835-3.471-7.71-0.26-32.474-14.423c-8.982-7.505-20.088-13.803-33.889-18.55
			c-0.293-9.756-3.392-19.237-4.839-28.882C108.3,40.483,103.946,46.979,97.36,59.054c-4.405-3.493-24.646-8.179-53.733,3.09
			c10.743,0.721,17.301,2.506,16.516,5.31c-20.747,7.314-34.264,17.742-39.465,35.484c20.142-10.568,44.759-10.296,60.33-6.577
			c-5.817,8.182-4.965,15.605-4.253,19.036c-11.913-4.213-25.29-3.081-40.116-0.273c8.151-0.555,18.643,3.1,22.574,6.206
			c-18.47,14.375-28.777,27.639-35.857,43.906c9.559-10.948,14.642-22.633,42.124-30.602c-5.997,10.177-11.842,22.603-12.217,33.717
			c5.49-19.942,20.29-40.228,36.942-45.22c-3.981-3.338-8.157-5.736-12.538-7.397c4.146-12.881,8.602-13.24,13.133-9.991
			c-4.768,15.049,10.064,19.857,14.931,24.492c-2.469-5.542-13.673-16.71-4.164-18.68c16.171,4.363,19.281,0.471,25.735-1.307
			c-29.52,1.662-46.549-21.866-16.814-27.305c0.087-2.06,28.782,6.076,40.53,10.813c-4.716-2.751-8.707-5.559-10.068-8.572
			c0.792,0.559,1.933-0.015,3.423-1.723c-5.496-2.423-7.151-5.223-16.481-6.05c0.324,1.174,0.64,2.343,0.96,3.516
			c-10.77-2.555-21.542-5.109-32.318-7.667c3.821,2.258,5.933,4.67,5.545,7.319c-9.378,4.307-15.445,8.991-19.326,13.543
			c-12.281-5.125-34.063-4.417-48.917-2.18c0.998-12.447,24.87-22.314,41.124-22.365c-4.279-3.757-12.026-6.537-16.176-8.893
			c16.353-2.541,38.082,5.545,48.449,14.297c-3.631-4.539-7.526-8.956-7.09-15.315c4.359-9.269,9.287-12.691,14.201-16.344
			c-3.304,6.199-6.315,10.269-9.618,16.464c6.892,0.038,4.902,5.834,7.225,7.413c-1.339-1.373,0.477-4.906-0.204-8.675
			c-0.446-4.454,1.329-8.905,5.325-13.331c2.19,5.328,3.547,10.589,3.055,15.711c0.499,4.146-0.566,7.861-5.075,10.643
			c17.103-2.42,29.998,0.533,36.753,11.323c9.104,4.623,18.214,9.241,27.323,13.861c-2.396,1.301-2.946,1.655-3.801,2.804
			c3.239,4.21,5.602,5.928,7.753,6.416c-3.018,9.111-9.773,14.796-13.603,15.577c-37.797,5.553-58.937,11.261-78.921,49.035
			c-4.394-11.657-1.803-22.889,3.321-33.956c-19.395,19.768-11.711,35.532-0.165,50.725c9.811-42.397,32.439-58.739,77.393-61.157
			C177.532,123.856,197.331,98.835,189.567,94.105z"/>
	</g>
	<g>
		<path class="st2" d="M256.936,155.076l21.275,46.787h-6.448l-5.23-11.527h-19.122l-5.172,11.527h-6.403L256.936,155.076z
			 M256.917,169.137l-7.204,16.07h14.493L256.917,169.137z"/>
		<path class="st2" d="M281.498,156.875h6.154v27.699c0,4.1,0.985,7.273,2.957,9.509c1.967,2.244,4.756,3.361,8.362,3.361
			c3.585,0,6.374-1.028,8.365-3.094c1.99-2.063,2.989-4.971,2.989-8.719v-28.756h6.151v28.332c0,5.518-1.571,9.928-4.718,13.228
			c-3.15,3.303-7.343,4.95-12.576,4.95c-5.353,0-9.636-1.669-12.857-5.019c-3.22-3.35-4.827-8.286-4.827-14.821V156.875z"/>
		<path class="st2" d="M322.702,156.803h27.553v6.158h-10.749v38.902h-6.085v-38.902h-10.719V156.803z"/>
		<path class="st2" d="M355.314,179.068c0-6.498,2.451-12.073,7.356-16.713c4.906-4.644,10.802-6.962,17.683-6.962
			c6.721,0,12.51,2.339,17.368,7.016c4.857,4.679,7.287,10.231,7.287,16.659c0,6.814-2.401,12.568-7.2,17.27
			c-4.797,4.701-10.689,7.047-17.667,7.047c-6.882,0-12.745-2.368-17.58-7.103C357.731,191.547,355.314,185.812,355.314,179.068z
			 M398.463,179.354c0-4.968-1.792-9.156-5.378-12.558c-3.58-3.408-7.993-5.11-13.224-5.11c-4.978,0-9.242,1.734-12.789,5.198
			c-3.548,3.462-5.322,7.617-5.322,12.471c0,4.924,1.82,9.089,5.462,12.492c3.643,3.404,8.108,5.105,13.388,5.105
			c4.86,0,9.053-1.737,12.577-5.213C396.7,188.262,398.463,184.137,398.463,179.354z M376.216,152.316l4.703-9.834h8.349
			l-7.817,9.834H376.216z"/>
		<path class="st2" d="M412.681,155.003l33.32,34.248v-32.448h6.154v47.151l-33.319-34.092v32.001h-6.155V155.003z"/>
		<path class="st2" d="M459.474,179.068c0-6.498,2.454-12.073,7.36-16.713c4.9-4.644,10.796-6.962,17.68-6.962
			c6.721,0,12.51,2.339,17.367,7.016c4.855,4.679,7.284,10.231,7.284,16.659c0,6.814-2.397,12.568-7.197,17.27
			c-4.797,4.701-10.688,7.047-17.666,7.047c-6.883,0-12.742-2.368-17.577-7.103C461.89,191.547,459.474,185.812,459.474,179.068z
			 M502.623,179.354c0-4.968-1.792-9.156-5.375-12.558c-3.585-3.408-7.993-5.11-13.227-5.11c-4.975,0-9.238,1.734-12.786,5.198
			c-3.548,3.462-5.325,7.617-5.325,12.471c0,4.924,1.822,9.089,5.467,12.492c3.643,3.404,8.107,5.105,13.384,5.105
			c4.859,0,9.051-1.737,12.574-5.213C500.863,188.262,502.623,184.137,502.623,179.354z"/>
		<path class="st2" d="M554.388,154.933l12.326,46.93h-6.033l-7.459-28.678l-12.84,30.414l-12.884-30.66l-7.559,28.924h-5.997
			l12.325-46.93l14.109,33.58L554.388,154.933z"/>
		<path class="st2" d="M589.861,155.076l21.276,46.787h-6.449l-5.231-11.527h-19.122l-5.167,11.527h-6.402L589.861,155.076z
			 M589.848,169.137l-7.21,16.07h14.493L589.848,169.137z"/>
		<path class="st2" d="M636.848,156.803h10.93c8.651,0,15.094,2.29,19.31,6.865c4.221,4.572,6.334,9.795,6.334,15.666
			c0,5.92-2.184,11.155-6.545,15.705c-4.362,4.553-10.705,6.823-19.03,6.823h-11V156.803z M643.002,162.818v32.964h0.354
			c4.574,0,8.015-0.207,10.329-0.617c2.311-0.416,4.502-1.317,6.576-2.709c2.078-1.389,3.728-3.236,4.954-5.533
			c1.226-2.298,1.837-4.828,1.837-7.588c0-3.466-0.978-6.603-2.937-9.405c-1.955-2.809-4.295-4.692-7.019-5.659
			c-2.725-0.967-6.381-1.451-10.98-1.451H643.002z"/>
		<path class="st2" d="M680.035,156.803h24.971v6.158h-18.884v11.247h18.884v6.082h-18.884v15.492h18.884v6.081h-24.971V156.803z"/>
		<path class="st2" d="M732.31,156.803h10.93c8.65,0,15.089,2.29,19.307,6.865c4.225,4.572,6.337,9.795,6.337,15.666
			c0,5.92-2.187,11.155-6.548,15.705c-4.362,4.553-10.701,6.823-19.024,6.823H732.31V156.803z M738.465,162.818v32.964h0.351
			c4.569,0,8.017-0.207,10.329-0.617c2.311-0.416,4.505-1.317,6.578-2.709c2.073-1.389,3.723-3.236,4.952-5.533
			c1.227-2.298,1.84-4.828,1.84-7.588c0-3.466-0.976-6.603-2.934-9.405c-1.956-2.809-4.298-4.692-7.026-5.659
			c-2.724-0.967-6.381-1.451-10.978-1.451H738.465z"/>
		<path class="st2" d="M775.78,156.875h6.152v27.699c0,4.1,0.985,7.273,2.953,9.509c1.971,2.244,4.756,3.361,8.361,3.361
			c3.586,0,6.375-1.028,8.367-3.094c1.994-2.063,2.992-4.971,2.992-8.719v-28.756h6.151v28.332c0,5.518-1.57,9.928-4.723,13.228
			c-3.145,3.303-7.334,4.95-12.571,4.95c-5.354,0-9.636-1.669-12.853-5.019c-3.223-3.35-4.829-8.286-4.829-14.821V156.875z"/>
		<path class="st2" d="M820.696,156.803h9.763c4.857,0,8.812,1.212,11.864,3.628c3.055,2.415,4.584,5.51,4.584,9.28
			c0,3.017-0.989,5.685-2.965,7.992c-1.975,2.314-5.057,3.938-9.244,4.88l13.089,19.279h-7.058l-12.498-18.528h-1.383v18.528h-6.152
			V156.803z M826.849,162.254v15.705c9.079,0.189,13.622-2.441,13.622-7.891c0-1.908-0.532-3.469-1.592-4.683
			c-1.061-1.218-2.479-2.04-4.247-2.477C832.864,162.473,830.27,162.254,826.849,162.254z"/>
		<path class="st2" d="M872.782,155.076l21.271,46.787h-6.451l-5.226-11.527h-19.123l-5.17,11.527h-6.401L872.782,155.076z
			 M872.759,169.137l-7.204,16.07h14.493L872.759,169.137z"/>
		<path class="st2" d="M899.358,155.003l33.316,34.248v-32.448h6.156v47.151l-33.321-34.092v32.001h-6.151V155.003z"/>
		<path class="st2" d="M991.563,164.019l-4.56,4.496c-4.599-4.507-9.92-6.758-15.955-6.758c-5.281,0-9.678,1.697-13.188,5.089
			c-3.516,3.394-5.273,7.633-5.273,12.719c0,4.452,1.701,8.463,5.109,12.033c3.411,3.567,8.106,5.353,14.093,5.353
			c8.987,0,14.636-3.905,16.947-11.708h-12.17v-6.155h19.208c0,3.089-0.204,5.545-0.618,7.382c-0.414,1.835-1.269,3.859-2.565,6.075
			c-1.299,2.212-3.026,4.196-5.185,5.952c-2.156,1.751-4.464,3.008-6.93,3.758c-2.463,0.754-5.407,1.129-8.826,1.129
			c-7.779,0-13.988-2.441-18.621-7.328c-4.634-4.892-6.95-10.481-6.95-16.773c0-6.62,2.369-12.261,7.114-16.91
			c4.738-4.655,10.481-6.981,17.221-6.981c4.015,0,7.671,0.607,10.983,1.821C984.71,158.427,988.097,160.697,991.563,164.019z"/>
		<path class="st2" d="M1002.001,179.068c0-6.498,2.451-12.073,7.35-16.713c4.911-4.644,10.805-6.962,17.688-6.962
			c6.72,0,12.509,2.339,17.364,7.016c4.864,4.679,7.289,10.231,7.289,16.659c0,6.814-2.399,12.568-7.198,17.27
			c-4.8,4.701-10.688,7.047-17.667,7.047c-6.883,0-12.742-2.368-17.58-7.103C1004.414,191.547,1002.001,185.812,1002.001,179.068z
			 M1045.149,179.354c0-4.968-1.797-9.156-5.377-12.558c-3.586-3.408-7.992-5.11-13.226-5.11c-4.975,0-9.241,1.734-12.792,5.198
			c-3.548,3.462-5.322,7.617-5.322,12.471c0,4.924,1.823,9.089,5.468,12.492c3.639,3.404,8.106,5.105,13.387,5.105
			c4.855,0,9.048-1.737,12.576-5.213C1043.384,188.262,1045.149,184.137,1045.149,179.354z"/>
	</g>
	<g>
		<path class="st2" d="M292.975,121.671c-5.971,4.986-13.847,7.487-23.61,7.487c-9.449,0-17.308-2.55-23.605-7.647
			c-6.621-5.544-9.925-13.024-9.925-22.475V11.795h6.504v87.241c0,7.494,2.711,13.359,8.141,17.596
			c4.992,3.899,11.295,5.846,18.886,5.846c7.49,0,13.777-2.012,18.878-6.018c5.541-4.342,8.309-10.141,8.309-17.424V11.795h6.669
			v87.241C303.221,108.487,299.803,116.031,292.975,121.671z"/>
		<path class="st2" d="M323.407,29.379v98.643h-6.511V10.986l86.764,101.734V11.795h6.664V129.98L323.407,29.379z"/>
		<path class="st2" d="M424.644,128.022V11.795h6.52v116.227H424.644z"/>
		<path class="st2" d="M479.342,129.98L442.07,11.795h6.825l30.447,96.046l30.598-96.046h7.004L479.342,129.98z"/>
		<path class="st2" d="M533.219,128.022V11.795h55.83v6.676h-49.152v42.323h49.152v7.154h-49.152v53.396h49.152v6.678H533.219z"/>
		<path class="st2" d="M658.88,128.022l-36.95-58.117h-12.538v58.117h-6.51V11.795h26.869c4.33,0,8.46,0.624,12.366,1.873
			c3.91,1.25,7.268,3.093,10.082,5.535c2.823,2.452,5.073,5.452,6.764,9.033c1.686,3.583,2.522,7.71,2.522,12.367
			c0,5.106-0.783,9.515-2.36,13.188c-1.576,3.695-3.793,6.727-6.672,9.12c-2.874,2.381-6.275,4.146-10.179,5.281
			c-3.904,1.138-8.193,1.711-12.857,1.711l37.278,58.117H658.88z M652.698,30.765c-1.301-2.772-3.094-5.048-5.375-6.838
			c-2.282-1.799-4.94-3.153-7.98-4.08c-3.033-0.918-6.282-1.376-9.769-1.376h-20.181v44.758h21.978
			c6.933,0,12.554-1.95,16.839-5.853c4.295-3.911,6.434-9.549,6.434-16.929C654.644,36.759,653.998,33.535,652.698,30.765z"/>
		<path class="st2" d="M714.872,127.046c-4.228,1.516-9.228,2.28-14.977,2.28c-17.791,0-29.247-8.408-34.344-25.23l6.676-2.285
			c3.795,13.892,13.02,20.839,27.668,20.839c8.355,0,14.922-2.06,19.692-6.19c4.895-4.231,7.334-10.422,7.334-18.557
			c0-7.7-2.871-14.103-8.632-19.203c-1.52-1.408-3.85-2.988-6.988-4.72c-3.154-1.74-7.16-3.695-12.055-5.862
			c-9.218-4.12-15.517-7.7-18.874-10.742c-5.646-4.886-8.469-11.339-8.469-19.371c0-8.035,2.88-14.481,8.624-19.371
			c5.642-4.979,12.586-7.49,20.837-7.49c13.674,0,23.326,5.108,28.974,15.311l-6.346,2.765c-2.177-3.585-4.778-6.242-7.809-7.976
			c-3.808-2.39-8.735-3.59-14.818-3.59c-6.396,0-11.724,1.796-15.955,5.369c-4.552,3.805-6.838,8.799-6.838,14.983
			c0,5.538,2.393,10.361,7.168,14.486c2.706,2.181,8.138,5.105,16.283,8.788c5.098,2.28,9.487,4.539,13.18,6.764
			c3.694,2.216,6.669,4.474,8.956,6.759c6.288,6.18,9.439,13.886,9.439,23.102C733.597,112.671,727.357,122.377,714.872,127.046z"/>
		<path class="st2" d="M744.506,128.022V11.795h6.517v116.227H744.506z"/>
		<path class="st2" d="M842.315,110.439c-9.762,11.725-22.501,17.583-38.251,17.583h-38.739V11.795h38.739
			c15.634,0,28.333,5.857,38.096,17.584c9.232,10.961,13.836,24.413,13.836,40.37C855.996,85.81,851.453,99.375,842.315,110.439z
			 M837.451,33.933c-8.471-10.409-19.599-15.623-33.387-15.623h-32.22v103.035h32.22c11.944,0,22.315-4.448,31.098-13.349
			c9.443-9.534,14.161-22.298,14.161-38.246C849.323,55.532,845.358,43.595,837.451,33.933z"/>
		<path class="st2" d="M944.38,128.022l-13.34-34.834h-52.903l-13.516,34.834h-6.501L904.505,8.05l46.557,119.972H944.38z
			 M904.505,24.981l-23.757,61.525h47.516L904.505,24.981z"/>
		<path class="st2" d="M1037.977,110.439c-9.763,11.725-22.514,17.583-38.249,17.583h-38.746V11.795h38.746
			c15.631,0,28.317,5.857,38.092,17.584c9.214,10.961,13.833,24.413,13.833,40.37C1051.653,85.81,1047.095,99.375,1037.977,110.439z
			 M1033.093,33.933c-8.465-10.409-19.582-15.623-33.365-15.623H967.5v103.035h32.227c11.937,0,22.301-4.448,31.092-13.349
			c9.439-9.534,14.169-22.298,14.169-38.246C1044.989,55.532,1041.015,43.595,1033.093,33.933z"/>
	</g>
</g>
</svg>