<!-- Generator: Adobe Illustrator 22.1.0, SVG Export Plug-In  -->
<svg version="1.1"
	 xmlns="http://www.w3.org/2000/svg" xmlns:xlink="http://www.w3.org/1999/xlink" xmlns:a="http://ns.adobe.com/AdobeSVGViewerExtensions/3.0/"
	 x="0px" y="0px" width="514.054px" height="183.881px" viewBox="0 0 514.054 183.881"
	 style="enable-background:new 0 0 514.054 183.881;" xml:space="preserve">
<style type="text/css">
	.st0{opacity:0.9;fill:#C10230;}
	.st1{fill:#FFFFFF;}
</style>
<defs>
</defs>
<path class="st0" d="M514.054,37.253v146.628H40.408h-6.407C15.223,183.881,0,168.658,0,149.879v-7.376V0h476.242h3.811
	c18.778,0,34.001,15.223,34.001,34.001V37.253z"/>
<g>
	<path class="st1" d="M94.579,95.12H69.291v-4.934h25.288V64.898h4.934v25.288H124.8v4.934H99.513v25.288h-4.934V95.12z"/>
	<path class="st1" d="M134.977,42.229h19.922v99.423h-19.922V42.229z"/>
	<path class="st1" d="M224.409,97.183V42.229h19.922v101.273l-59.642-56.866v55.016h-19.922V40.378L224.409,97.183z"/>
	<path class="st1" d="M313.84,42.229v19.86h-39.72V82.01h29.79v19.86h-29.79v19.86v19.922h-19.922V101.87V82.01V42.229H313.84z"/>
	<path class="st1" d="M404.505,56.538c9.868,9.868,14.802,21.71,14.802,35.526s-4.934,25.658-14.802,35.464
		s-21.71,14.741-35.526,14.741c-13.816,0-25.658-4.934-35.464-14.741c-9.807-9.807-14.741-21.649-14.741-35.464
		s4.934-25.658,14.741-35.526c9.807-9.868,21.649-14.802,35.464-14.802C382.795,41.735,394.637,46.669,404.505,56.538z
		 M347.701,70.662c-5.859,5.921-8.82,13.014-8.82,21.279c0,8.326,2.96,15.419,8.82,21.279s12.952,8.82,21.279,8.82
		c8.265,0,15.358-2.96,21.279-8.82s8.881-12.952,8.881-21.279c0-8.265-2.96-15.358-8.881-21.279
		c-5.921-5.921-13.014-8.881-21.279-8.881C360.653,61.78,353.56,64.741,347.701,70.662z"/>
	<path class="st1" d="M432.058,116.523c7.031,0,12.705,5.674,12.705,12.705c0,7.031-5.674,12.705-12.705,12.705
		c-7.031,0-12.705-5.674-12.705-12.705C419.352,122.197,425.026,116.523,432.058,116.523z"/>
</g>
</svg>