<!-- Generator: Adobe Illustrator 19.2.1, SVG Export Plug-In  -->
<svg version="1.1"
	 xmlns="http://www.w3.org/2000/svg" xmlns:xlink="http://www.w3.org/1999/xlink" xmlns:a="http://ns.adobe.com/AdobeSVGViewerExtensions/3.0/"
	 x="0px" y="0px" width="671.191px" height="917.322px" viewBox="0 0 671.191 917.322"
	 style="enable-background:new 0 0 671.191 917.322;" xml:space="preserve">
<style type="text/css">
	.st0{fill:#202423;}
	.st1{fill:#C4C1B9;}
	.st2{fill:#FFFFFF;}
	.st3{fill:#F5F7E2;}
	.st4{fill:#E2E3E2;}
	.st5{opacity:0.4;fill:#85827A;}
	.st6{fill-rule:evenodd;clip-rule:evenodd;fill:#C72435;}
	.st7{fill-rule:evenodd;clip-rule:evenodd;fill:#231F20;}
	.st8{fill:#4F4F4F;}
	.st9{fill:#85827A;}
	.st10{fill:#7E6B5E;}
	.st11{fill:#10ABE2;}
	.st12{fill:#231F20;}
	.st13{fill:#574C44;}
	.st14{fill:#240E0B;}
	.st15{fill:#C72E3F;}
</style>
<defs>
</defs>
<g>
	<g>
		<path class="st0" d="M446.282,917.322l1.125-76.184c-1.134,0.314-2.262,0.61-3.384,0.895l-1.085,75.289H446.282z"/>
		<path class="st0" d="M379.653,845.322c-2.169-0.345-3.351-0.605-3.351-0.605l-1.051,72.605h3.387L379.653,845.322z"/>
		<path class="st1" d="M444.023,842.033l0.025-1.789c-35.027,10.097-64.372,3.422-64.372,3.422l-0.023,1.656
			C388.546,846.737,414.144,849.599,444.023,842.033z"/>
		<path class="st1" d="M442.938,917.322l1.085-75.289c-29.879,7.566-55.477,4.704-64.37,3.289l-1.015,72H442.938z"/>
		<path class="st0" d="M219.28,847.846c-1.122-0.346-2.248-0.706-3.38-1.084l-1.038,70.56h3.422L219.28,847.846z"/>
		<path class="st0" d="M283.387,854.442l-0.882,62.88h3.311l0.912-63.307C286.727,854.016,285.548,854.211,283.387,854.442z"/>
		<path class="st1" d="M283.387,854.442l0.023-1.651c0,0-29.65,5.151-64.104-6.749l-0.026,1.804
			C248.749,856.944,274.47,855.394,283.387,854.442z"/>
		<path class="st1" d="M282.504,917.322l0.882-62.88c-8.917,0.952-34.638,2.502-64.107-6.596l-0.996,69.476H282.504z"/>
	</g>
	<g>
		<g>
			<path class="st0" d="M270.327,448.129c0,0-16.62,6.565-30.796,22.147c0,0-50.475,78.022-35.542,267.805
				c0,0,120.855,38.806,250.199-0.284c0,0,10.901-160.815-43.463-263.121c0,0-13.834-18.005-36.772-28.544
				c0,0-12.877,21.398-30.034,25.992c-17.162,4.599-43.826-12.378-48.273-16.002L270.327,448.129z"/>
			<path class="st2" d="M271.899,450.665c0,0-16.121,6.368-29.876,21.485c0,0-48.961,75.689-34.475,259.781
				c0,0,117.56,37.519,243.035-0.399c0,0,10.249-155.872-42.491-255.114c0,0-13.424-17.466-35.668-27.692
				c0,0-12.494,20.759-29.14,25.217c-16.641,4.457-42.512-12.01-46.822-15.522L271.899,450.665z"/>
			<g>
				<path class="st3" d="M339.504,469.916c-11.732-1.777-19.548-0.373-30.848-6.218c-0.421,5.953-1.808,17.272-6.302,27.185
					c7.926,5.345,16.62,9.261,25.513,9.848c9.945,0.66,19.327-3.351,27.548-9.191c-4.941-7.085-4.242-18.402-4.678-23.805
					C347.682,468.954,342.484,470.368,339.504,469.916z"/>
				<path class="st1" d="M295.646,456.121l-22.27-7.03l-7.054,4.252c0,0,15.395,23.626,36.031,37.54
					c4.494-9.913,5.882-21.232,6.302-27.185C304.839,461.721,300.603,459.256,295.646,456.121z"/>
				<path class="st1" d="M373.742,449.348c0,0-11.811,14.205-24.819,19.392c0.436,5.404,1.55,15.713,6.491,22.799
					c18.265-12.977,30.754-35.009,30.754-35.009L373.742,449.348z"/>
			</g>
			<path class="st0" d="M75.066,545.047c0.31-10.418-8.741-19.264-19.253-19.574c-0.258-0.008,0.252-0.003,0,0c-0.01-0.095,0,0,0,0
				c-18.959,2.265-40.036,9.466-40.036,9.466l0,0c-8.641,0.857-15.506,7.929-15.769,16.762c-0.284,9.585,7.338,17.595,17.019,17.887
				c0.436,0.008,0.862-0.01,1.283-0.031l0.005,0.01c0.026-0.003,0.052-0.01,0.079-0.013c1.156-0.05,2.287-0.218,3.385-0.484
				c16.268-2.386,36.341-5.85,36.341-5.85v-0.008C67.418,562.212,74.787,554.569,75.066,545.047z"/>
			<path class="st1" d="M71.26,545.909c0.21-8.546-7.816-15.858-17.077-16.173c-0.226-0.01,0.226,0,0,0c-0.005-0.079,0,0,0,0
				c-16.688,1.75-35.217,7.537-35.217,7.537l0,0c-7.605,0.652-13.613,6.42-13.792,13.669c-0.194,7.866,6.565,14.483,15.096,14.778
				c0.384,0.008,0.757-0.003,1.13-0.016v0.008c0.026-0.002,0.047-0.008,0.074-0.008c1.02-0.039,2.013-0.168,2.975-0.378
				c14.323-1.868,31.989-4.591,31.989-4.591v-0.008C64.622,559.959,71.066,553.723,71.26,545.909z"/>
			<path class="st0" d="M82.23,585.593c1.309-11.253-7.664-21.679-19.022-23.003c-0.279-0.031,0.273,0.026,0,0c0-0.105,0,0,0,0
				c-20.746,0.683-44.252,6.512-44.252,6.512l0,0c-9.435,0.113-17.529,7.138-18.644,16.678
				c-1.204,10.357,6.302,19.745,16.767,20.956c0.462,0.06,0.925,0.071,1.388,0.089v0.016c0.031-0.003,0.058-0.005,0.084-0.005
				c1.267,0.05,2.502-0.026,3.716-0.218c17.839-1.056,39.905-2.925,39.905-2.925c0.005-0.005,0.005-0.01,0.005-0.01
				C72.338,603.467,81.031,595.875,82.23,585.593z"/>
			<path class="st1" d="M80.238,585.349c0.978-9.779-7.348-18.804-17.661-19.905c-0.252-0.026,0.252,0.019,0,0c0-0.089,0,0,0,0
				c-18.78,0.678-39.952,5.834-39.952,5.834l0,0c-8.547,0.131-15.747,6.268-16.578,14.562c-0.899,8.993,6.076,17.125,15.579,18.139
				c0.421,0.047,0.841,0.058,1.262,0.071v0.016c0.026-0.003,0.052-0.003,0.073-0.008c1.146,0.042,2.265-0.029,3.364-0.2
				c16.142-0.994,36.089-2.707,36.089-2.707s0-0.005,0.005-0.003C71.612,600.921,79.35,594.287,80.238,585.349z"/>
			<path class="st0" d="M79.176,625.356c2.239-9.834-4.389-19.789-13.955-21.902c-0.231-0.053,0.231,0.042,0,0c0.01-0.097,0,0,0,0
				c-17.782-1.128-38.428,2.063-38.428,2.063l0,0c-8.068-0.683-15.679,4.844-17.571,13.177c-2.06,9.054,3.411,17.974,12.226,19.916
				c0.394,0.089,0.783,0.139,1.177,0.197v0.01c0.026,0.003,0.052-0.003,0.074,0.008c1.072,0.142,2.139,0.181,3.19,0.113
				c15.343,0.549,34.365,0.738,34.365,0.738c0-0.005,0-0.005,0-0.005C68.953,640.326,77.131,634.345,79.176,625.356z"/>
			<path class="st1" d="M76.616,623.477c1.992-8.455-3.779-16.988-12.142-18.78c-0.205-0.045,0.205,0.031,0,0c0.01-0.082,0,0,0,0
				c-15.558-0.92-33.639,1.879-33.639,1.879l0,0c-7.059-0.56-13.74,4.213-15.422,11.377c-1.829,7.787,2.933,15.432,10.639,17.08
				c0.347,0.074,0.688,0.113,1.035,0.16v0.01c0.021,0.005,0.042,0.003,0.063,0.005c0.935,0.126,1.871,0.155,2.791,0.094
				c13.429,0.426,30.076,0.531,30.076,0.531v-0.005C67.628,636.368,74.808,631.207,76.616,623.477z"/>
			<path class="st0" d="M401.547,464.928c0,0-39.594,59.973-72.966,57.765c-33.377-2.208-80.456-60.651-80.456-60.651l16.515-11.185
				c0,0,30.664,47.721,63.226,49.873c32.557,2.155,59.852-46.819,59.852-46.819S396.565,459.43,401.547,464.928z"/>
			<path class="st0" d="M401.027,467.348c0,0,46.617-8.073,97.166,72.916c0,0-15.28,32.659-56.898,37.826
				C441.295,578.091,427.382,511.266,401.027,467.348z"/>
			<path class="st0" d="M247.184,462.715c0,0-58.769,5.033-91.457,88.514c0,0,10.796,27.981,52.635,31.569
				C208.362,582.797,217.524,514.682,247.184,462.715L247.184,462.715z"/>
			<path class="st0" d="M160.868,556.064c-3.269,9.997-19.022,37.066-19.022,37.066c-16.384-4.857-30.58-20.328-30.58-20.328
				c-3.238-16.628-12.32-35.518-12.32-35.518c-7.154-33.282-6.633-59.957-6.633-59.957l-0.1-0.016
				c-0.678-12.83-7.895-23.174-17.792-24.268c-10.57-1.167-20.462,8.623-23.285,22.37c0,0.005,0,0.01,0,0.016
				c-0.058,0.273-0.121,0.533-0.174,0.81c-1.729,8.089-4.037,26.023,2.208,49.566c0,0,18.959,1.971,20.694,17.104
				c1.734,15.135-13.535,19.776-13.535,19.776s20.594,1.94,20.373,19.742c-0.221,17.8-16.983,21.138-16.983,21.138
				c21.408,4.938,13.745,25.598,13.745,25.598l1.051-0.045c24.336,2.236,26.759-9.227,26.759-9.227
				c9.451,20.67,42.79,35.411,61.239,27.747c18.444-7.663,38.333-42.691,38.333-42.691c0.888-5.995,3.516-22.149,3.516-22.149
				C171.99,579.021,160.868,556.064,160.868,556.064z"/>
			<path class="st0" d="M651.626,483.966c-0.042-10.365-8.121-18.738-18.05-18.701c-2.208,0.01-4.357,0.473-6.313,1.243l0.037-0.024
				c-0.016,0.005-0.026,0.016-0.037,0.024c-1.414,0.56-2.749,1.296-3.963,2.189c-20.846,11.79-33.676,23.406-33.676,23.406v0.005
				c-3.958,3.453-6.465,8.654-6.444,14.462c0.037,10.373,8.121,18.743,18.05,18.704c2.906-0.008,5.645-0.762,8.073-2.05l0.01,0.016
				c19.563-8.98,33.314-22.948,33.314-22.948l0,0C648.02,497.032,651.652,490.943,651.626,483.966z"/>
			<path class="st0" d="M658.585,529.1c0,0,15.448,11.892,12.142,30.163c0,0-10.065,10.181-38.018,13.217
				c0,0-12.641,1.03-10.228-18.628C622.48,553.852,649.071,538.146,658.585,529.1z"/>
			<path class="st1" d="M657.302,531.523c0,0,13.734,10.57,10.791,26.812c0,0-8.946,9.051-33.797,11.75
				c0,0-11.233,0.915-9.093-16.56C625.203,553.526,648.845,539.56,657.302,531.523z"/>
			<path class="st0" d="M622.717,553.733c0,0-9.571,2.657-16.872-6.668c-7.301-9.319,0.589-22.144,6.423-25.866
				c0,0-15.642,8.88-24.252-3.984c-8.604-12.867,1.955-23.159,1.955-23.159s8.778-7.99,18.402-14.097l1.813-1.201
				c-3.427-39.534-6.828-42.58-6.828-42.58l-0.005,0.005c-3.737-8.449-11.469-14.255-20.415-14.221
				c-12.531,0.05-22.644,11.532-22.596,25.645c0.016,3.185,0.568,6.223,1.53,9.035h-0.01c0,0,8.562,29.784,3.117,71.72
				c0,0-16.51,22.696-34.822,40.709c0,0-21.282-4.894-33.834-25.456c0,0-17.519,27.379-53.965,34.336
				c0,0,23.816,32.407,56.167,47.531c32.352,15.127,65.003-8.024,95.799-47.986c0,0,5.913,3.493,11.921-0.045
				c6.008-3.537,18.418-9.616,18.418-9.616S621.282,561.907,622.717,553.733z"/>
			<path class="st4" d="M210.134,582.109c0,0,11.953-73.366,37.724-116.003c0,0-55.069,4.378-85.66,84.485
				C162.197,550.59,168.999,577.06,210.134,582.109z"/>
			<g>
				<path class="st0" d="M308.434,466.215c-0.62-0.331-1.314-0.705-1.834-0.983c-1.057,13.942-4.857,21.498-6.386,24.034l1.96,1.374
					C306.274,483.666,307.925,471.19,308.434,466.215z"/>
				<path class="st0" d="M299.951,489.085c0,0,0.089,0.084,0.237,0.226c0.005-0.016,0.016-0.031,0.026-0.045L299.951,489.085z"/>
				<path class="st0" d="M302.175,490.641c-0.016,0.026-0.032,0.05-0.042,0.074c0.179,0.094,0.352,0.207,0.536,0.273
					L302.175,490.641z"/>
			</g>
			<g>
				<path class="st0" d="M348.918,467.332c-0.673,0.292-1.566,0.631-2.039,0.804c0.836,6.491,6.165,20.36,8.052,23.59
					c0.562-0.397,1.083-0.775,1.445-1.049C351.304,482.381,349.133,470.192,348.918,467.332z"/>
			</g>
			<path class="st1" d="M163.038,563.144l-18.36,36.32c-19.695-8.047-35.737-23.797-35.737-23.797
				c-2.118-15.508-13.298-36.759-13.298-36.759c-6.591-26.06-7.406-62.417-7.406-62.417l-0.016-0.008
				c0.01-0.118,0.031-0.234,0.037-0.355c0.636-9.598-6.018-17.85-14.87-18.436c-6.639-0.439-12.62,3.564-15.464,9.642l0,0
				c-11.543,24.99,0.174,54.703,0.174,54.703c5.939,0.292,18.581,7.971,19.511,21.069c0.93,13.096-9.54,18.476-9.54,18.476
				s15.774,6.21,15.443,21.4c-0.331,15.188-11.916,20.41-11.916,20.41c12.236,5.303,10.964,21.172,10.964,21.172
				c17.472,4.297,22.817-12.031,22.817-12.031c13.219,24.412,35.768,35.032,55.405,32.27c19.637-2.757,43.321-42.307,43.321-42.307
				l0.92-13.876C172.195,579.709,163.038,563.144,163.038,563.144z"/>
			<path class="st0" d="M142.234,598.419c0,0,5.845,3.125,15.001,4.909l-1.046-2.029c0,0-5.777-0.765-14.344-8.168L142.234,598.419z
				"/>
			<path class="st0" d="M105.273,619.89c0,0,1.346-4.402,0.972-14.709c0,0-1.414,8.925-4.263,13.327L105.273,619.89z"/>
			<path class="st5" d="M41.253,531.728c0,0,18.376,12.242,12.546,29.406c0,0,19.895-0.058,17.677-18.278
				C69.068,523.135,42.877,531.402,41.253,531.728z"/>
			<path class="st5" d="M54.667,565.962c0,0,16.53,17.866,6.56,35.293c0,0,18.286,0.207,19.474-18.828
				c0,0-2.328-15.532-18.123-16.983L54.667,565.962z"/>
			<path class="st5" d="M60.364,604.387c0,0,15.689,16.996,1.85,31.435c0,0,13.44-0.218,14.67-13.813
				C77.888,610.918,67.844,603.614,60.364,604.387z"/>
			<path class="st4" d="M402.641,469.916c0,0,51.479,3.043,89.082,70.18c0,0-16.962,31.768-53.787,34.438
				C437.936,574.535,431.676,524.054,402.641,469.916z"/>
			<path class="st1" d="M620.294,557.263c0,0-9.33,3.43-17.535-7.566c-8.21-10.993,1.488-22.489,1.488-22.489
				s-12.252,1.719-18.712-7.642c-6.46-9.361-2.885-22.612-0.841-25.477c2.039-2.865,20.31-16.557,20.31-16.557
				c-0.594-20.412-3.469-32.31-5.855-38.798c-1.593-7.08-7.474-12.541-14.822-13.028c-5.771-0.383-11.043,2.413-14.26,6.928h-0.01
				c-0.021,0.031-0.037,0.068-0.058,0.102c-1.377,1.963-2.365,4.247-2.838,6.741c-2.922,11.548,1.43,25.361,1.43,25.361
				c6.029,24.394,2.06,65.708,2.06,65.708c-3.769,5.992-37.198,43.166-37.198,43.166c-23.847-5.398-39.805-25.837-39.805-25.837
				c-23.521,29.458-46.522,30.601-46.522,30.601c21.739,22.98,57.36,62.992,94.28,42.512c36.925-20.481,51.658-47.753,51.658-47.753
				s2.791,2.323,7.253,2.765c8.2,0.809,20.41-9.942,20.41-9.942C619.164,563.1,620.294,557.263,620.294,557.263z"/>
			<g>
				<path class="st6" d="M243.763,538.651c5.345,0.11,9.955,1.966,13.74,5.74c3.553,3.548,5.445,7.871,5.603,12.865
					c0.368,11.39-8.547,19.587-18.575,19.995c-5.634,0.231-10.539-1.685-14.57-5.632c-3.658-3.58-5.566-8.016-5.719-13.054
					c-0.168-5.403,1.692-10.163,5.53-14.058C233.587,540.622,238.291,538.727,243.763,538.651 M233.928,569.121
					c0.026,0.016,0.052,0.026,0.089,0.04c0.042-0.076,0.105-0.152,0.131-0.234c0.625-2.042,1.65-3.861,3.101-5.443
					c0.92-0.993,1.971-1.821,3.275-2.286c0.084-0.034,0.152-0.094,0.231-0.142c-0.058-0.068-0.1-0.16-0.174-0.205
					c-0.604-0.36-1.209-0.717-1.818-1.067c-0.116-0.066-0.237-0.118-0.158-0.271c0.237-0.481,0.436-0.977,0.72-1.427
					c0.315-0.489,0.804-0.568,1.293-0.302c0.158,0.081,0.226,0.168,0.174,0.373c-0.3,1.096,0,2.039,0.851,2.773
					c0.573,0.497,1.214,0.92,1.829,1.377c0.031,0.019,0.089,0.01,0.179,0.019c-0.047-0.097-0.068-0.158-0.1-0.216
					c-0.205-0.321-0.431-0.623-0.62-0.949c-0.231-0.41-0.452-0.828-0.646-1.254c-0.116-0.231-0.079-0.473,0.11-0.657
					c0.2-0.192,0.436-0.266,0.725-0.176c1.393,0.415,2.775,0.455,4.126-0.16c0.079-0.031,0.153-0.076,0.231-0.116
					c-0.005-0.024-0.01-0.052-0.016-0.076c-0.11-0.013-0.221-0.029-0.326-0.024c-1.072,0.04-2.108-0.142-3.101-0.536
					c-0.841-0.336-1.598-0.789-2.082-1.59c-0.221-0.363-0.315-0.754-0.168-1.177c0.126-0.371,0.394-0.639,0.704-0.854
					c0.536-0.365,1.141-0.541,1.766-0.686c0.331-0.082,0.662-0.137,1.004-0.045c0.783,0.205,1.582,0.357,2.355,0.591
					c1.325,0.4,2.633,0.838,3.947,1.262c0.074,0.026,0.153,0.037,0.231,0.055c0.01-0.026,0.021-0.053,0.037-0.082
					c-0.284-0.195-0.583-0.371-0.857-0.583c-0.263-0.21-0.505-0.463-0.773-0.715c0.173-0.108,0.284-0.16,0.378-0.239
					c0.221-0.176,0.216-0.234-0.026-0.368c-0.258-0.134-0.515-0.273-0.762-0.421c-0.568-0.328-1.182-0.499-1.829-0.568
					c-0.205-0.024-0.284,0.052-0.226,0.252c0.026,0.097,0.047,0.194,0.079,0.339c-1.945-0.462-3.832-0.912-5.713-1.364
					c-0.016,0.026-0.031,0.055-0.047,0.082c0.068,0.06,0.132,0.123,0.195,0.184c0.168,0.15,0.373,0.279,0.505,0.458
					c0.258,0.355,0.305,0.57-0.205,0.799c-1.109,0.513-2.129,1.172-2.97,2.066c-0.121,0.131-0.231,0.158-0.394,0.082
					c-0.158-0.071-0.331-0.116-0.499-0.163c-2.124-0.56-4.279-0.499-6.439-0.365c-0.489,0.037-0.978,0.11-1.472,0.16
					c-0.252,0.029-0.284-0.016-0.216-0.258c0.01-0.042,0.026-0.084,0.042-0.124c0.321-0.823,0.946-1.39,1.671-1.84
					c1.687-1.046,3.527-1.601,5.519-1.682c0.063-0.003,0.126-0.026,0.189-0.034c0.01-0.034,0.021-0.063,0.026-0.089
					c-0.794-0.668-1.792-1.001-2.681-1.53c3.143-0.21,5.94,0.747,8.52,2.494c-0.042-0.121-0.11-0.213-0.173-0.313
					c-0.284-0.465-0.61-0.917-0.846-1.411c-0.168-0.357-0.237-0.773-0.037-1.169c0.494-0.988,1.209-1.8,2.102-2.46
					c0.037-0.021,0.084-0.031,0.2-0.073c-0.084,0.142-0.131,0.226-0.179,0.299c-0.447,0.736-0.893,1.466-1.34,2.202
					c-0.153,0.249-0.126,0.289,0.158,0.323c0.373,0.047,0.61,0.252,0.715,0.607c0.037,0.129,0.063,0.258,0.116,0.378
					c0.031,0.082,0.105,0.152,0.158,0.228c0.031-0.01,0.073-0.016,0.11-0.029c0-0.442,0.037-0.886-0.01-1.325
					c-0.095-0.941,0.258-1.711,0.851-2.397c0.016-0.013,0.047-0.01,0.105-0.021c0.084,0.237,0.168,0.473,0.252,0.709
					c0.268,0.778,0.279,1.582,0.258,2.389c-0.016,0.547-0.237,0.996-0.689,1.327c-0.063,0.042-0.105,0.118-0.205,0.231
					c0.142,0,0.205,0.008,0.273,0c1.051-0.139,2.103-0.163,3.154,0.024c1.298,0.234,2.397,0.81,3.164,1.911
					c0.084,0.113,0.205,0.216,0.336,0.276c1.472,0.76,2.949,1.503,4.426,2.25c0.068,0.039,0.137,0.087,0.226,0.145
					c-0.179,0.139-0.336,0.237-0.463,0.362c-0.052,0.055-0.079,0.216-0.037,0.263c0.315,0.407,0.647,0.794,1.125,1.015
					c0.142,0.066,0.184,0.121,0.121,0.273c-0.31,0.781-0.762,1.466-1.414,2c-0.284,0.231-0.625,0.447-0.983,0.533
					c-0.636,0.158-1.298,0.213-1.95,0.321c-1.703,0.281-3.395,0.636-5.02,1.248c-1.771,0.675-3.317,1.698-4.605,3.088
					c-1.093,1.17-1.992,2.494-2.754,3.9c-0.042,0.074-0.095,0.15-0.168,0.263c-0.231-0.649-0.352-1.256-0.363-1.877
					c-0.037-1.348,0.331-2.607,0.878-3.827c0.037-0.087,0.058-0.179,0.089-0.258c-0.026-0.018-0.047-0.034-0.073-0.045
					c-0.063,0.063-0.142,0.121-0.2,0.192c-0.247,0.289-0.494,0.565-0.725,0.867c-1.078,1.427-1.503,2.991-1.004,4.746
					c0.357,1.24,1.099,2.276,1.845,3.311c0.021,0.026,0.058,0.034,0.142,0.082c0.063-0.234,0.132-0.442,0.189-0.654
					c0.441-1.645,1.02-3.235,1.929-4.699c1.062-1.724,2.491-3.064,4.326-3.973c2.271-1.122,4.725-1.535,7.227-1.685
					c0.515-0.034,0.909-0.189,1.277-0.523c0.841-0.741,1.551-1.601,2.155-2.542c0.373-0.57,0.71-1.169,0.852-1.85
					c0.142-0.675-0.031-0.996-0.704-1.182c-1.225-0.334-2.413-0.76-3.527-1.385c-0.925-0.515-1.882-0.98-2.718-1.658
					c-0.489-0.397-1.041-0.725-1.577-1.057c-1.135-0.681-2.328-1.24-3.585-1.671c-0.263-0.089-0.331-0.236-0.362-0.491
					c-0.095-0.778-0.216-1.556-0.352-2.334c-0.131-0.736-0.294-1.472-0.447-2.208c-0.021-0.108-0.068-0.205-0.105-0.305
					c-0.094,0.058-0.2,0.1-0.284,0.168c-1.43,1.146-2.476,2.602-3.353,4.184c-0.216,0.4-0.21,0.394-0.631,0.216
					c-0.909-0.386-1.877-0.489-2.844-0.51c-2.187-0.042-4.284,0.436-6.334,1.161c-0.079,0.029-0.142,0.092-0.258,0.171
					c0.116,0.034,0.163,0.058,0.21,0.063c0.552,0.074,1.109,0.11,1.65,0.218c0.321,0.06,0.625,0.21,0.93,0.342
					c0.079,0.037,0.137,0.158,0.163,0.247c0.005,0.029-0.121,0.11-0.2,0.142c-0.499,0.2-1.004,0.381-1.493,0.597
					c-1.735,0.77-3.264,1.803-4.389,3.359c-0.484,0.667-0.836,1.398-1.104,2.173c-0.016,0.068,0.005,0.147,0,0.223
					c0.084-0.008,0.168-0.003,0.242-0.037c0.152-0.063,0.294-0.152,0.447-0.215c2.076-0.909,4.268-1.267,6.518-1.259
					c0.851-0.003,1.703,0.105,2.554,0.192c0.389,0.039,0.773,0.136,1.219,0.218c-0.704,1.041-0.988,2.131-0.788,3.361
					c-1.214-0.371-2.397-0.523-3.601-0.468c-1.188,0.047-2.365,0.147-3.517,0.478c1.382,0.058,2.665,0.399,3.916,1.138
					c-2.843,2.15-5.14,4.644-6.507,7.895c0.137-0.071,0.237-0.168,0.326-0.276c0.731-0.915,1.451-1.829,2.329-2.61
					c1.267-1.127,2.775-1.805,4.378-2.321c0.153-0.052,0.305-0.094,0.463-0.144c0.016,0.021,0.031,0.037,0.047,0.047
					C235.043,565.134,234.128,567.002,233.928,569.121 M247.411,548.38c0.042,0.01,0.084,0.016,0.126,0.026
					c0.047-0.079,0.11-0.16,0.158-0.244c0.189-0.329,0.384-0.655,0.788-0.76c0.095-0.021,0.189,0.005,0.284,0.01
					c-0.005,0.089-0.005,0.176-0.01,0.266c-0.01,0.052-0.032,0.097-0.037,0.15c-0.131,0.815,0.079,1.603,0.242,2.386
					c0.021,0.094,0.179,0.187,0.289,0.229c0.2,0.084,0.415,0.131,0.631,0.181c0.074,0.016,0.147-0.005,0.221-0.008
					c-0.005-0.061,0-0.132-0.021-0.192c-0.136-0.439-0.294-0.862-0.415-1.298c-0.331-1.204-0.194-2.323,0.583-3.335
					c0.037-0.047,0.058-0.113,0.116-0.234c-0.189,0.05-0.31,0.079-0.431,0.116c-0.878,0.281-1.714,0.631-2.418,1.243
					c-0.068,0.066-0.168,0.15-0.168,0.223C247.353,547.555,247.389,547.97,247.411,548.38"/>
				<g>
					<path class="st6" d="M274.9,562.169c0.01-0.1,0.031-0.194,0.031-0.294c0.01-2.426,0.016-4.852,0.021-7.277
						c0-0.347,0-0.347,0.352-0.347c0.42,0.002,0.841,0.016,1.256,0c0.221-0.008,0.289,0.063,0.284,0.281
						c-0.01,1.95-0.016,3.897-0.021,5.845l-0.026,7.117v0.334c-0.084,0.01-0.153,0.021-0.221,0.021c-0.578,0.003-1.161-0.003-1.74,0
						c-0.163,0-0.247-0.04-0.294-0.218c-0.762-2.851-1.535-5.7-2.302-8.549c-0.079-0.297-0.152-0.597-0.231-0.891
						c-0.021,0-0.042,0-0.068,0.003l-0.026,9.642l-1.351-0.008c-0.573,0-0.573,0-0.568-0.573l0.037-12.644
						c0.005-0.376,0.005-0.376,0.373-0.378l2.307,0.013c0.71,2.646,1.419,5.285,2.129,7.924
						C274.858,562.169,274.879,562.169,274.9,562.169"/>
					<path class="st6" d="M284.682,558.84c-0.689-0.002-1.293-0.002-1.898-0.013c-0.047-0.003-0.126-0.153-0.126-0.234
						c-0.016-0.483,0-0.967-0.026-1.459c-0.042-0.87-0.762-1.327-1.582-1.012c-0.405,0.158-0.557,0.505-0.615,0.893
						c-0.026,0.155-0.031,0.315-0.031,0.473c-0.005,2.384-0.021,4.765-0.016,7.146c0,0.27,0.026,0.554,0.11,0.809
						c0.147,0.481,0.515,0.66,1.156,0.633c0.441-0.024,0.773-0.279,0.883-0.717c0.052-0.213,0.084-0.436,0.089-0.655
						c0.01-0.733,0.005-1.466,0.016-2.205c0-0.2-0.053-0.287-0.273-0.276c-0.226,0.005-0.541,0.053-0.657-0.071
						c-0.121-0.123-0.047-0.428-0.053-0.657c0-0.318,0.01-0.639,0-0.956c0-0.158,0.058-0.216,0.216-0.216
						c0.852,0.008,1.698,0.008,2.549,0.005c0.158,0.003,0.21,0.063,0.21,0.221c-0.016,1.543,0.016,3.085-0.042,4.62
						c-0.032,0.988-0.405,1.853-1.304,2.397c-0.699,0.428-1.472,0.507-2.265,0.426c-0.373-0.037-0.757-0.126-1.109-0.265
						c-0.957-0.389-1.414-1.175-1.582-2.139c-0.068-0.376-0.079-0.762-0.079-1.138c0.005-2.392-0.005-4.781,0.037-7.172
						c0.005-0.5,0.126-1.02,0.3-1.493c0.336-0.904,1.051-1.409,1.987-1.59c0.731-0.145,1.472-0.129,2.187,0.113
						c1.014,0.336,1.598,1.075,1.766,2.082C284.656,557.181,284.635,557.988,284.682,558.84"/>
					<path class="st6" d="M306.048,558.009l-1.992-0.008c-0.031-0.373-0.031-0.736-0.1-1.088c-0.11-0.568-0.484-0.833-1.078-0.81
						c-0.547,0.019-0.899,0.339-0.994,0.891c-0.152,0.896,0.121,1.672,0.71,2.326c0.463,0.513,0.978,0.983,1.477,1.459
						c0.689,0.649,1.34,1.333,1.677,2.239c0.431,1.175,0.431,2.363-0.063,3.519c-0.273,0.649-0.783,1.091-1.456,1.322
						c-0.867,0.31-1.75,0.318-2.623,0.055c-1.146-0.347-1.719-1.193-1.887-2.313c-0.079-0.507-0.047-1.025-0.074-1.54
						c-0.005-0.15,0.058-0.2,0.205-0.202c0.526,0.008,1.051,0.01,1.577,0c0.174,0.005,0.21,0.084,0.21,0.231
						c0,0.336,0.005,0.673,0.032,1.009c0.063,0.72,0.431,1.051,1.172,1.046c0.625-0.005,0.999-0.386,1.062-1.059
						c0.089-0.986-0.336-1.758-1.004-2.426c-0.526-0.539-1.083-1.046-1.629-1.567c-0.783-0.762-1.361-1.648-1.503-2.746
						c-0.126-0.985-0.089-1.966,0.431-2.862c0.315-0.549,0.789-0.925,1.403-1.117c0.831-0.258,1.671-0.268,2.502-0.016
						c1.046,0.321,1.619,1.093,1.813,2.134C306.011,556.974,306.006,557.481,306.048,558.009"/>
					<path class="st6" d="M292.708,567.891l0.047-13.587l5.819,0.018c0,0.607,0,1.193-0.016,1.784
						c-0.005,0.045-0.168,0.129-0.258,0.126c-1.02,0.008-2.045,0.003-3.07-0.005c-0.368,0-0.368,0.005-0.373,0.368
						c-0.005,1.056,0,2.105-0.016,3.159c0,0.239,0.073,0.31,0.305,0.305c0.804-0.008,1.603,0.005,2.408,0
						c0.21-0.003,0.284,0.06,0.279,0.276c-0.016,0.46-0.016,0.917-0.005,1.382c0.005,0.213-0.079,0.263-0.279,0.263
						c-0.804-0.002-1.608,0.003-2.407-0.008c-0.242-0.013-0.305,0.071-0.305,0.302c0.005,1.141,0,2.279-0.01,3.424
						c0,0.229,0.068,0.307,0.305,0.302c1.035,0,2.071,0.016,3.101,0.008c0.252-0.005,0.321,0.073,0.31,0.315
						c-0.016,0.463-0.01,0.923-0.005,1.388c0,0.139-0.031,0.226-0.205,0.221c-1.829-0.01-3.658-0.016-5.482-0.023
						C292.808,567.909,292.766,567.899,292.708,567.891"/>
					<path class="st7" d="M272.792,545.541c0.005-1.078-0.005-2.155,0.016-3.232c0.016-0.733,0.215-1.414,0.762-1.95
						c0.368-0.357,0.804-0.554,1.309-0.636c0.589-0.1,1.172-0.089,1.745,0.089c0.915,0.281,1.43,0.923,1.619,1.829
						c0.068,0.331,0.089,0.678,0.089,1.015c0,2.044,0.005,4.094-0.026,6.139c-0.01,0.951-0.321,1.785-1.198,2.315
						c-0.867,0.523-2.828,0.549-3.658-0.431c-0.462-0.549-0.657-1.191-0.662-1.889C272.771,547.707,272.787,546.624,272.792,545.541
						 M276.503,545.557h0.01c0.005-0.962,0.01-1.926,0.01-2.886c0-0.131-0.005-0.263-0.01-0.397
						c-0.042-0.615-0.368-0.952-0.93-0.964c-0.562-0.013-0.904,0.331-0.957,0.962c-0.016,0.121-0.016,0.242-0.021,0.365
						c-0.005,1.961-0.01,3.919-0.016,5.876c0,0.139,0,0.281,0.021,0.421c0.047,0.318,0.142,0.618,0.463,0.778
						c0.678,0.334,1.388-0.06,1.409-0.825C276.519,547.778,276.498,546.669,276.503,545.557"/>
					<path class="st7" d="M306.222,545.663c-0.005,1.093,0.005,2.187-0.021,3.28c-0.016,0.778-0.252,1.48-0.857,2.016
						c-0.536,0.465-1.183,0.597-1.866,0.602c-0.804,0-1.545-0.16-2.113-0.773c-0.489-0.526-0.683-1.167-0.689-1.855
						c-0.005-2.187,0.005-4.376,0.021-6.562c0.01-1.154,0.599-2.079,1.567-2.42c0.862-0.305,1.734-0.292,2.575,0.073
						c0.731,0.321,1.135,0.925,1.293,1.685c0.063,0.315,0.084,0.641,0.094,0.959C306.232,543.67,306.222,544.666,306.222,545.663
						 M302.506,545.668h-0.016c0,0.604-0.005,1.209-0.005,1.811c0.005,0.507-0.01,1.012,0.021,1.519
						c0.026,0.581,0.378,0.907,0.92,0.909c0.557,0,0.888-0.302,0.951-0.88c0.021-0.147,0.026-0.294,0.026-0.444
						c0.005-1.942,0.01-3.882,0.016-5.824c0-0.15,0-0.3-0.016-0.444c-0.047-0.494-0.273-0.786-0.668-0.872
						c-0.704-0.155-1.193,0.195-1.214,0.92C302.495,543.465,302.511,544.564,302.506,545.668"/>
					<path class="st7" d="M296.519,544.984v0.318c-0.005,1.18,0,2.363-0.016,3.545c-0.01,0.762-0.205,1.469-0.783,2.026
						c-0.41,0.397-0.914,0.575-1.472,0.628c-0.83,0.084-1.629,0.016-2.302-0.534c-0.636-0.523-0.872-1.246-0.878-2.032
						c-0.016-2.213-0.016-4.426,0.021-6.638c0.016-0.915,0.326-1.724,1.172-2.223c0.967-0.568,3.028-0.555,3.805,0.678
						c0.294,0.473,0.431,0.999,0.452,1.546c0.021,0.42,0.01,0.836,0,1.256c-0.005,0.068-0.084,0.195-0.131,0.195
						c-0.52,0.013-1.036,0.005-1.588,0.005c0.005-0.326,0.005-0.62,0.005-0.915c0-0.192,0-0.384-0.021-0.578
						c-0.068-0.583-0.405-0.894-0.941-0.894c-0.547,0.003-0.888,0.339-0.941,0.931c-0.011,0.131-0.011,0.263-0.016,0.394
						c-0.005,1.961-0.01,3.916-0.016,5.882c0,0.137,0,0.279,0.016,0.415c0.047,0.368,0.184,0.688,0.573,0.81
						c0.378,0.115,0.773,0.121,1.041-0.21c0.142-0.163,0.247-0.407,0.252-0.615c0.042-0.725,0.037-1.453,0.031-2.181
						c0-0.058-0.105-0.121-0.163-0.171c-0.016-0.018-0.047-0.005-0.079-0.003c-0.599-0.021-0.599-0.021-0.594-0.623
						c0-0.273-0.01-0.544,0.005-0.812c0.005-0.073,0.11-0.202,0.163-0.2C294.9,544.974,295.683,544.979,296.519,544.984"/>
					<path class="st7" d="M271.81,543.662l-1.698-0.008c0-0.118,0.005-0.237,0-0.352c-0.021-0.463-0.01-0.93-0.084-1.382
						c-0.063-0.415-0.415-0.631-0.857-0.631c-0.468,0-0.783,0.21-0.883,0.636c-0.058,0.21-0.084,0.431-0.084,0.646
						c-0.016,1.987-0.021,3.974-0.026,5.961c0.005,0.131,0,0.268,0.021,0.394c0.052,0.368,0.194,0.683,0.583,0.796
						c0.373,0.113,0.762,0.113,1.025-0.208c0.147-0.179,0.247-0.436,0.263-0.662c0.042-0.533,0.031-1.07,0.026-1.603
						c0-0.184,0.058-0.247,0.242-0.239c0.484,0.013,0.967,0.005,1.43,0.008c0.026,0.042,0.042,0.058,0.042,0.073
						c-0.021,0.768,0.026,1.545-0.079,2.297c-0.168,1.217-0.946,1.892-2.176,2.037c-0.652,0.073-1.293,0.029-1.882-0.271
						c-0.941-0.479-1.283-1.335-1.293-2.302c-0.021-2.208-0.01-4.415,0.021-6.62c0.016-0.912,0.3-1.758,1.167-2.218
						c1.067-0.565,2.181-0.544,3.222,0.082c0.673,0.405,0.951,1.096,1.014,1.845C271.846,542.503,271.81,543.076,271.81,543.662"/>
					<path class="st7" d="M290.106,549.746c0,0.526-0.005,1.007,0,1.488c-0.005,0.2-0.152,0.16-0.268,0.158
						c-1.062,0-2.129-0.005-3.196-0.008c-0.4,0-0.794-0.016-1.193,0c-0.242,0.01-0.31-0.066-0.305-0.31
						c0.016-3.151,0.021-6.299,0.032-9.451c0.005-0.518,0.016-1.033,0.005-1.548c-0.005-0.187,0.063-0.242,0.242-0.239
						c1.487,0.01,2.98,0.013,4.468,0.013c0.179,0,0.258,0.042,0.252,0.234c-0.016,0.397-0.016,0.786-0.005,1.185
						c0.005,0.195-0.079,0.226-0.247,0.226c-0.872-0.01-1.75,0-2.623-0.016c-0.231-0.005-0.294,0.063-0.294,0.292
						c0.01,0.875,0.005,1.753-0.005,2.625c-0.005,0.226,0.052,0.31,0.294,0.305c0.646-0.016,1.303,0.005,1.95-0.005
						c0.21-0.003,0.284,0.063,0.273,0.268c-0.016,0.376-0.016,0.757,0,1.13c0.005,0.205-0.079,0.252-0.268,0.252
						c-0.657-0.01-1.325,0-1.982-0.016c-0.21-0.005-0.279,0.063-0.273,0.268c0,0.957,0,1.908-0.01,2.865
						c-0.005,0.226,0.079,0.281,0.289,0.279c0.846-0.008,1.692-0.003,2.539,0.003L290.106,549.746z"/>
					<path class="st6" d="M286.038,567.862l-0.005-0.271c0.016-4.3,0.031-8.589,0.047-12.885c0-0.489-0.026-0.413,0.436-0.418
						c0.463,0,0.925,0.016,1.388,0c0.242-0.008,0.31,0.076,0.305,0.305c-0.01,1.445-0.01,2.886-0.016,4.328
						c-0.011,2.229-0.016,4.46-0.026,6.694c0.005,0.363,0.005,0.363,0.378,0.365c0.951,0.005,1.903,0.018,2.859,0.008
						c0.252-0.003,0.321,0.076,0.31,0.315c-0.016,0.462-0.01,0.922-0.01,1.382c0.005,0.15-0.026,0.229-0.2,0.231
						c-1.787-0.016-3.569-0.021-5.351-0.029C286.127,567.893,286.101,567.875,286.038,567.862"/>
					<path class="st6" d="M268.451,567.815l-2.113-0.005l0.042-13.571c0.137,0,0.263-0.013,0.394-0.016
						c0.473,0.005,0.946,0.021,1.414,0.003c0.252-0.01,0.315,0.084,0.31,0.321c-0.01,1.193-0.01,2.389-0.016,3.582l-0.031,9.317
						V567.815z"/>
					<path class="st7" d="M279.536,551.331l0.031-11.508c0.562,0,1.104,0,1.651,0.013c0.047,0,0.11,0.087,0.131,0.145
						c0.021,0.063,0.01,0.142,0.005,0.21l-0.026,9.161c0,0.363,0,0.363,0.352,0.365c0.794,0.003,1.593,0.01,2.381,0.003
						c0.205,0,0.279,0.058,0.268,0.273c-0.016,0.392-0.01,0.783-0.005,1.177c0.005,0.142-0.042,0.205-0.195,0.205
						c-1.509-0.008-3.017-0.013-4.52-0.024C279.594,551.352,279.573,551.344,279.536,551.331"/>
					<path class="st7" d="M297.528,576.448c-0.384,0-0.746,0.01-1.109-0.013c-0.058,0-0.142-0.115-0.168-0.192
						c-0.436-1.624-0.872-3.246-1.309-4.87c-0.01-0.029-0.021-0.058-0.079-0.087l-0.016,5.133h-1.046l0.021-7.44
						c0.452-0.003,0.909-0.008,1.372,0.01c0.052,0.005,0.131,0.131,0.153,0.21c0.273,1.007,0.541,2.016,0.815,3.02
						c0.089,0.326,0.179,0.644,0.331,0.959l0.016-4.194c0.326,0.008,0.615-0.008,0.904,0.008c0.053,0.01,0.137,0.152,0.132,0.229
						c0.01,0.673,0.005,1.343,0,2.018l-0.016,4.856V576.448z"/>
					<path class="st7" d="M297.765,539.881c0.557,0.003,1.104,0,1.65,0.01c0.042,0.005,0.1,0.089,0.126,0.153
						c0.021,0.042,0.005,0.102,0.005,0.152l-0.037,10.922v0.273l-1.782-0.005L297.765,539.881z"/>
					<path class="st7" d="M276.456,576.39l0.021-7.469h0.478c0.484,0.003,0.962,0.003,1.445,0.003
						c1.035,0.008,1.671,0.591,1.682,1.619c0.016,1.416,0.01,2.833-0.016,4.247c-0.021,1.03-0.657,1.603-1.692,1.606
						C277.744,576.39,277.108,576.39,276.456,576.39 M277.623,572.658c0,0.662-0.01,1.325,0,1.99
						c0.005,0.78-0.158,0.651,0.699,0.673c0.01,0,0.021-0.003,0.026-0.003c0.268-0.005,0.436-0.142,0.505-0.397
						c0.031-0.131,0.052-0.276,0.052-0.415c0.005-1.235,0.01-2.46,0.01-3.695c0-0.652-0.174-0.817-0.82-0.817
						c-0.052,0.002-0.105,0.005-0.158,0c-0.237-0.034-0.31,0.066-0.31,0.297C277.639,571.081,277.628,571.867,277.623,572.658"/>
					<path class="st7" d="M285.155,568.913c0.831,0.037,1.635,0.037,2.428,0.118c0.557,0.058,0.946,0.444,1.009,0.988
						c0.063,0.62,0.042,1.254,0,1.877c-0.031,0.36-0.279,0.66-0.641,0.865c0.1,0.082,0.163,0.137,0.226,0.189
						c0.389,0.32,0.468,0.757,0.478,1.219c0.016,0.57,0.01,1.128,0.031,1.695c0.005,0.174,0.042,0.347,0.068,0.562
						c-0.368-0.005-0.725,0.003-1.088-0.013c-0.042-0.003-0.11-0.084-0.126-0.142c-0.032-0.139-0.053-0.294-0.053-0.444
						c-0.01-0.554,0.01-1.111-0.016-1.672c-0.037-0.738-0.484-0.807-1.046-0.773c-0.047,0.008-0.126,0.153-0.126,0.234
						c-0.01,0.815-0.01,1.637-0.01,2.465v0.313l-1.156-0.005L285.155,568.913z M286.306,571.158c-0.005,0.323-0.01,0.633,0,0.954
						c0,0.068,0.037,0.171,0.089,0.194c0.341,0.176,0.962-0.084,1.036-0.465c0.058-0.297,0.052-0.612,0.058-0.923
						c0.005-0.765-0.184-0.93-0.951-0.899c-0.173,0.008-0.237,0.074-0.231,0.237C286.311,570.558,286.306,570.858,286.306,571.158"
						/>
					<path class="st7" d="M266.411,568.9c0.762,0.003,1.503-0.039,2.234,0.019c0.836,0.066,1.346,0.675,1.356,1.569
						c0.016,1.432,0.016,2.864-0.016,4.302c-0.021,0.996-0.657,1.566-1.661,1.572c-0.641,0.003-1.282-0.005-1.934-0.008
						L266.411,568.9z M267.552,572.608c-0.005,0.67-0.01,1.341-0.01,2.013c0.005,0.78-0.131,0.652,0.683,0.662
						c0.331,0.005,0.51-0.153,0.573-0.468c0.026-0.132,0.031-0.268,0.031-0.4c0.005-1.193,0.01-2.386,0.01-3.58
						c0-0.723-0.147-0.875-0.867-0.872c-0.042-0.003-0.084-0.003-0.131-0.005c-0.226-0.026-0.289,0.071-0.289,0.286
						C267.562,571.034,267.552,571.817,267.552,572.608"/>
					<path class="st7" d="M302.548,572.742c0.005-0.731,0-1.467,0.01-2.205c0.011-0.754,0.442-1.343,1.099-1.532
						c0.857-0.25,1.735-0.019,2.155,0.565c0.231,0.321,0.315,0.694,0.315,1.072c0.005,1.401,0.005,2.801-0.016,4.194
						c-0.005,0.652-0.216,1.246-0.857,1.532c-0.699,0.318-1.424,0.313-2.087-0.137c-0.473-0.323-0.62-0.82-0.625-1.364
						C302.537,574.156,302.548,573.449,302.548,572.742 M304.929,572.758L304.929,572.758c0-0.736,0.016-1.472,0.005-2.202
						c-0.01-0.355-0.226-0.549-0.557-0.565c-0.362-0.013-0.562,0.147-0.631,0.512c-0.021,0.103-0.032,0.208-0.037,0.313
						c0,1.285-0.005,2.568-0.01,3.85c0,0.097,0.016,0.195,0.031,0.284c0.063,0.389,0.263,0.56,0.636,0.541
						c0.331-0.013,0.541-0.207,0.552-0.583C304.934,574.19,304.929,573.473,304.929,572.758"/>
					<path class="st7" d="M301.838,572.316c0.005,0.09,0.01,0.171,0.01,0.245c0,0.765,0.01,1.527-0.005,2.289
						c-0.016,0.644-0.205,1.23-0.841,1.514c-0.683,0.31-1.393,0.3-2.039-0.129c-0.42-0.273-0.604-0.712-0.615-1.185
						c-0.01-1.545-0.021-3.096,0.021-4.644c0.021-0.902,0.704-1.495,1.614-1.498c0.174-0.002,0.357-0.008,0.531,0.029
						c0.815,0.147,1.282,0.675,1.335,1.516c0.021,0.336,0,0.673,0,1.035l-1.125-0.008c0.005-0.308,0.021-0.615,0-0.914
						c-0.021-0.384-0.21-0.571-0.552-0.581c-0.373-0.021-0.62,0.142-0.631,0.531c-0.021,1.474-0.026,2.954-0.011,4.431
						c0.005,0.378,0.258,0.547,0.626,0.528c0.347-0.013,0.536-0.195,0.557-0.578c0.021-0.444,0.016-0.888,0.026-1.33
						c0.01-0.176-0.074-0.244-0.237-0.221c-0.252,0.039-0.326-0.066-0.31-0.31c0.021-0.234,0.005-0.476,0.005-0.72H301.838z"/>
					<path class="st7" d="M290.322,568.971l1.74,0.01c0.389,2.468,0.778,4.941,1.177,7.456c-0.384-0.005-0.747,0.003-1.104-0.013
						c-0.042,0-0.105-0.11-0.116-0.171c-0.058-0.318-0.115-0.625-0.147-0.943c-0.016-0.168-0.084-0.234-0.252-0.231
						c-0.336,0.008-0.678,0.005-1.015-0.003c-0.158-0.002-0.221,0.061-0.242,0.218c-0.042,0.32-0.095,0.644-0.158,0.964
						c-0.016,0.066-0.095,0.16-0.152,0.16c-0.3,0.021-0.599,0.01-0.957,0.008C289.507,573.93,289.912,571.468,290.322,568.971
						 M290.548,574.077c0.331-0.002,0.615-0.002,0.904,0.005c0.184,0.005,0.226-0.061,0.2-0.237
						c-0.163-1.043-0.31-2.076-0.463-3.114c-0.005-0.05-0.031-0.1-0.047-0.15c-0.016,0.003-0.037,0.003-0.053,0.008
						C290.91,571.733,290.732,572.881,290.548,574.077"/>
					<path class="st7" d="M280.798,568.95l1.156,0.005l0.005,0.284c-0.01,1.732-0.016,3.456-0.021,5.18
						c0,0.145,0.005,0.286,0.021,0.428c0.032,0.371,0.221,0.562,0.568,0.575c0.357,0.013,0.557-0.155,0.62-0.52
						c0.021-0.147,0.031-0.297,0.031-0.444c0.01-1.748,0.021-3.49,0.016-5.235c0-0.213,0.047-0.31,0.279-0.286
						c0.263,0.026,0.61-0.061,0.768,0.076c0.131,0.121,0.047,0.481,0.047,0.736c-0.005,1.674-0.005,3.346-0.016,5.023
						c-0.005,0.696-0.226,1.298-0.941,1.579c-0.578,0.234-1.172,0.218-1.74-0.047c-0.599-0.287-0.815-0.838-0.825-1.448
						c-0.016-1.919,0.005-3.839,0.016-5.763C280.782,569.047,280.792,569.01,280.798,568.95"/>
					<path class="st7" d="M274.065,576.364l-3.207-0.013l0.021-7.427l3.206,0.01c0,0.3,0.005,0.615-0.016,0.93
						c0,0.04-0.137,0.108-0.216,0.108c-0.52,0.013-1.03,0.01-1.55,0.002c-0.21-0.005-0.289,0.061-0.284,0.271
						c0.01,0.515,0.01,1.043,0,1.564c-0.005,0.187,0.063,0.249,0.247,0.247c0.389-0.008,0.783,0.005,1.172,0
						c0.163-0.005,0.226,0.052,0.221,0.213c-0.01,0.265-0.005,0.544-0.005,0.841c-0.473-0.003-0.914,0.008-1.346-0.01
						c-0.216-0.005-0.305,0.06-0.3,0.286c0.016,0.547,0.01,1.096-0.005,1.645c-0.005,0.221,0.084,0.273,0.284,0.268
						c0.515-0.002,1.036,0.008,1.551,0.003c0.173-0.005,0.242,0.053,0.231,0.231C274.059,575.804,274.07,576.075,274.065,576.364"/>
					<path class="st6" d="M294.521,553.557c0.315-0.507,0.641-0.946,0.872-1.43c0.268-0.565,0.652-0.78,1.277-0.686
						c0.379,0.055,0.778,0.01,1.23,0.013c-0.084,0.105-0.126,0.163-0.174,0.216c-0.557,0.594-1.109,1.182-1.661,1.769
						c-0.047,0.047-0.11,0.113-0.168,0.113C295.462,553.562,295.016,553.557,294.521,553.557"/>
				</g>
			</g>
			<path class="st0" d="M534.261,572.81L534.261,572.81c0,0-3.711,4.194-9.261,8.21l-2.35-0.155c0,0,6.492-6.165,7.506-11.792
				L534.261,572.81z"/>
			<path class="st0" d="M588.152,566.655c0,0,1.33,4.972,7.106,7.913l-3.916,1.498C591.343,576.067,588.1,574.295,588.152,566.655z"
				/>
			<path class="st1" d="M648.046,484.985c-0.037-9.43-7.275-17.043-16.163-17.009c-1.976,0.008-3.9,0.428-5.65,1.13l0.031-0.024
				c0,0-0.021,0.016-0.031,0.024c-1.267,0.505-2.46,1.172-3.553,1.989c-18.665,10.725-30.15,21.29-30.15,21.29v0.005
				c-3.543,3.143-5.792,7.874-5.771,13.156c0.037,9.435,7.274,17.051,16.163,17.019c2.602-0.01,5.056-0.694,7.227-1.866l0.01,0.016
				c17.524-8.173,29.829-20.88,29.829-20.88l0,0C644.824,496.875,648.072,491.335,648.046,484.985z"/>
			<path class="st0" d="M600.62,538.603c0.042,9.161,7.322,16.554,16.273,16.52c1.997-0.008,3.895-0.4,5.655-1.08v0.003
				c0.01-0.005,0.021-0.013,0.037-0.018c1.277-0.5,2.47-1.143,3.574-1.94c18.786-10.415,30.36-20.68,30.36-20.68v-0.003
				c3.564-3.054,5.824-7.645,5.808-12.78c-0.037-9.167-7.322-16.562-16.273-16.525c-2.623,0.01-5.088,0.67-7.269,1.813l-0.016-0.016
				c-17.64,7.939-30.029,20.284-30.029,20.284l0,0C603.873,527.056,600.604,532.435,600.62,538.603z"/>
			<path class="st1" d="M602.822,538.141c0.042,8.368,6.691,15.122,14.87,15.091c1.818-0.008,3.558-0.365,5.161-0.986l0,0
				c0.016-0.002,0.021-0.01,0.037-0.013c1.162-0.457,2.26-1.049,3.264-1.771c17.167-9.519,27.742-18.896,27.742-18.896v-0.003
				c3.254-2.791,5.319-6.988,5.303-11.677c-0.031-8.373-6.686-15.132-14.865-15.101c-2.402,0.01-4.652,0.615-6.644,1.658
				l-0.01-0.013c-16.121,7.253-27.443,18.528-27.443,18.528l0,0C605.792,527.587,602.806,532.506,602.822,538.141z"/>
			<path class="st5" d="M590.15,495.006c0,0-8.326,10.899,0.452,21.542c8.778,10.644,19.726,5.398,22.864,2.539
				C613.466,519.087,595.132,518.344,590.15,495.006z"/>
			<path class="st5" d="M610.691,524.527c0,0-13.324,7.805-5.477,21.803c7.853,13.995,21.582,4.925,23.595,2.631
				C628.809,548.961,606.312,547.823,610.691,524.527z"/>
			<path class="st5" d="M629.713,550.882c0,0,1.498,14.181,14.46,17.684c0,0-7.916,1.903-11.932,1.411
				c-4.01-0.491-8.878-6.413-6.891-16.462L629.713,550.882z"/>
			<path class="st0" d="M206.323,736.099c0,0,7.422,65.75,5.756,112.335c0,0,52.204,16.589,88.051,5.051
				c0,0,3.201-16.531,1.135-43.826l56.835-1.761c0,0,3.921,26.875,8.268,37.145c0,0,52.64,10.833,86.206-1.687
				c0,0,4.026-59.684-1.614-109.229C450.961,734.128,350.516,769.843,206.323,736.099z"/>
			<path class="st8" d="M211.148,739.289c0,0,123.242,30.428,233.8-0.321c0,0,7.916,46.459,2.376,99.867
				c0,0-27.553,12.215-78.081,2.134c0,0-5.056-18.602-6.849-38.502c0,0-62.864,2.991-66.532,1.976c0,0,3.406,28.851-0.3,47.153
				c0,0-33.95,6.433-77.881-7.169C217.682,844.428,219.521,787.809,211.148,739.289z"/>
			<path class="st0" d="M301.265,809.659l-1.23-5.009c0,0-17.256-0.4-29.555-1.84l1.367,3.516
				C271.846,806.326,285.144,808.897,301.265,809.659z"/>
			<path class="st0" d="M355.772,807.456l0.699-4.715c0,0,9.472-0.378,12.62-0.636l-2.554,3.306L355.772,807.456z"/>
		</g>
		<g>
			<g>
				<path class="st0" d="M523.007,250.313c0,0,34.005-36.84,27.09-158.39c0,0,3.848-46.196-18.578-26.462
					c0,0-31.842,16.145-50.233,21.976c-18.391,5.832-33.734,19.285-53.197,43.955c0,0,7.598,5.945,18.736,11.046
					c0,0-11.041,8.449-26.638,7.225c0,0,22.528,5.503,28.806,18.959c0,0-8.497-4.192-12.189,1.028
					c-3.692,5.219-1.645,17.595,10.021,19.826c0,0-0.076,2.47-10.392,2.021C436.433,191.496,473.678,250.373,523.007,250.313z"/>
				<path class="st0" d="M227.006,135.006c0,0-18.898-35.074-50.412-44.357s-44.462-17.708-55.032-25.159
					c-10.57-7.453-9.035,6.673-9.353,14.859c-0.318,8.186-8.279,121.551,27.671,172.899c0,0,51.345-13.043,83.762-62.569
					c0,0-5.532,3.708-12.278-0.168c0,0,15.963-1.248,13.456-21.697c0,0-9.839-2.938-18.838,4.46c0,0,9.385-17.845,32.373-20.943
					c0,0-18.402-1.792-27.979-11.209C210.375,141.121,215.697,142.272,227.006,135.006z"/>
				<path class="st9" d="M143.709,249.656c0,0-34.778-32.234-27.377-168.474c0,0-2.018-12.783,0.673-13.456
					c2.691-0.673,24.22,18.502,44.741,23.211c20.52,4.71,39.695,10.765,59.878,42.049c0,0-1.661,5.188-14.612,6.702
					c0,0,7.737,8.878,20.52,12.615c0,0-23.061,6.699-25.306,27.106c0,0,8.3-9.868,19.288-8.073c0,0,1.569,16.767-17.942,18.139
					c0,0,4.775,5.748,15.395,5.803C218.967,195.278,195.753,231.32,143.709,249.656L143.709,249.656z"/>
				<path class="st0" d="M301.383,281.65c0,0-13.017-11.724-62.485-20.743c-48.123-8.775-89.676,11.559-129.023-5.159
					c0,0,68.317,0.833,111.455-63.841c0,0-3.677,2.62-12.003-1.771c0,0,14.917,1.285,14.236-20.586c0,0-6.371-3.997-17.495,3.627
					c0,0,6.381-18.147,29.611-20.872c0,0-14.271,0.78-26.665-11.44c0,0,18.549-1.979,32.709-22.899
					c14.16-20.919,45.808-48.712,61.297-44.904c0,0-23.569-28.12-51.516-0.357c0,0,2.36-37.332,36.362-35.048
					c0,0-31.311-14.465-51.177,6.851c0,0,34.091-64.985,98.653-16.751c0,0-8.418-20.491-17.172-27.755
					c0,0,58.018-0.673,67.96,33.863c9.94,34.536,17.056,50.236,25.895,60.517c0,0-7.206-5.366-11.979-1.732
					c0,0,15.14,25.973,40.875,20.323c0,0-4.497,10.097-17.327,11.361c0,0,14.809,14.993,29.608,16.691
					c0,0-8.975,10.809-24.828,9.863c0,0,22.988,8.439,27.842,24.202c0,0-8.949-8.415-19.119-5.54c0,0-3.104,17.366,14.236,20.586
					c0,0-2.88,3.445-11.627,2.386c0,0,41.088,63.981,110.785,59.442c0,0-7.558,15.737-87.539,5.724
					c-70.858-8.875-104.798,24.557-104.798,24.557S337.123,275.524,301.383,281.65z"/>
				<path class="st1" d="M127.433,256.444c0,0,66.83-4.597,104.842-75.239c0,0-6.505,4.599-11.214,6.618c0,0,9.501-4.1,6.728-21.866
					c0,0-6.547-3.204-13.718,0.329c0,0,11.59-11.653,38.838-14.008c0,0-25.285-3.206-35.545-11.112c0,0,18.67-5.104,28.594-21.697
					c9.924-16.594,44.291-52.246,62.793-42.155c0,0-21.866-34.649-53.655-11.437c0,0,4.373-30.948,42.722-25.398
					c0,0-21.193-17.493-50.291-7.064c0,0,33.639-47.432,92.845,1.346c0,0-8.914-24.893-16.82-32.126c0,0,45.077,1.346,57.355,25.734
					c0,0,2.523,4.878,4.878,15.306s13.624,38.517,18.67,45.413c0,0-3.532-0.673-7.905,3.196c0,0,11.437,26.239,36.331,24.893
					c0,0-6.728,6.392-16.82,4.878c0,0,13.624,18.533,27.921,20.383c0,0-7.233,7.091-27.584,5.8v1.424
					c0,0,23.364,7.209,30.428,16.964c0,0-9.74-3.7-13.945,1.177c0,0-1.593,16.909,9.267,22.399c0,0-8.315-2.271-11.848-2.944
					c0,0,38.743,69.521,105.686,68.512c0,0-14.108,4.83-64.577,2.752c-50.47-2.079-66.761-4.862-113.475,23.721
					c0,0-27.705-6.896-56.719-0.594c0,0-28.491-22.323-65.644-24.494C198.415,254.986,143.914,261.49,127.433,256.444z"/>
				<path class="st0" d="M357.932,282.244c0,0,29.014-27.006,84.519-25.385c55.505,1.622,90.827,9.177,107.646-4.87
					c0,0-14.307,26.651-50.044,27.411c0,0,23.989,15.585,54.677,8.173c0,0-12.034,34.047-66.866,46.98c0,0,34.764-2.83,53.545-9.211
					c0,0-33.393,47.295-80.472,68.191c-47.079,20.896-45.25,92.551-131.777,90.574c-86.527-1.976-96.724-76.459-133.339-90.377
					c-36.614-13.913-79.336-57.655-86.737-76.293c0,0,17.156,16.736,56.178,16.354c0,0-44.047-9.9-63.736-46.217
					c0,0,25.839,6.179,55.553-8.604c0,0-29.156,1.283-48.331-23.676c0,0,24.583,12.015,88.148,2.657
					c63.566-9.358,104.317,23.7,104.317,23.7S334.253,275.34,357.932,282.244z"/>
				<path class="st0" d="M330.92,279.414c0,0-60.099-2.455-81.258,29.576c0,0-9.953,13.38,10.179,23.085
					c20.131,9.706,60.136,28.888,69.568,28.615c9.432-0.273,67.676-27.695,67.676-27.695s20.531-9.282,11.924-24.21
					C400.402,293.855,360.339,279.805,330.92,279.414z"/>
				<path class="st10" d="M330.642,281.579c0,0-55.797-2.218-75.437,26.746c0,0-9.24,12.095,9.451,20.878
					c18.688,8.772,55.826,26.12,64.58,25.873c8.765-0.247,62.835-25.043,62.835-25.043s19.053-8.397,11.064-21.895
					C395.145,294.638,357.953,281.934,330.642,281.579z"/>
				<path class="st9" d="M431.644,131.505c0,0,20.231-27.931,39.737-36.38c19.506-8.449,55.981-21.882,62.191-27.584
					c6.21-5.703,13.466-10.042,12.305,19.895c-1.161,29.934,9.451,106.861-25.458,162.347c0,0-48.893-9.012-81.005-57.182
					c0,0,4.72,1.624,11.616-2.381c0,0-15.501-0.618-14.226-20.57c0,0,6.657-3.974,19.104,5.535c0,0-2.604-13.727-27.818-24.178
					c0,0,16.076-1.282,24.806-9.853C452.895,141.153,437.952,138.827,431.644,131.505z"/>
				<path class="st0" d="M360.082,141.497c0,0,3.356-13.984,21.503-12.743c18.147,1.246,29.532,19.485,29.532,19.485
					s-0.57-4.234-4.058-9.474c-3.485-5.238-13.713-18.347-32.06-14.454c-13.322,2.825-14.991,16.928-14.991,16.928"/>
				<path class="st0" d="M300.377,141.497c0,0-3.356-13.984-21.503-12.743c-18.147,1.246-29.532,19.485-29.532,19.485
					s0.57-4.234,4.058-9.474c3.485-5.238,13.713-18.347,32.06-14.454c13.322,2.825,14.991,16.928,14.991,16.928"/>
				<g>
					<path class="st0" d="M369.301,276.068c-13.201-10.071-21.245-34.501-21.989-60.088c-1.046-35.818,15.508-65.5,36.967-66.301
						c21.463-0.799,39.708,27.584,40.751,63.405c0.515,17.553-3.201,33.637-9.653,45.563c0,0-24.299,3.627-44.593,14.786
						L369.301,276.068z"/>
					<path class="st2" d="M373.143,273.353c-11.516-9.771-19.871-30.861-20.599-55.589c-1.022-34.607,13.282-63.237,31.942-63.944
						c18.665-0.699,34.625,26.778,35.65,61.395c0.499,16.964-2.678,32.491-8.25,43.997
						C411.886,259.212,390.759,262.633,373.143,273.353L373.143,273.353z"/>
					<path class="st0" d="M287.252,274.131c14.234-9.325,23.471-34.333,24.255-61.195c1.046-35.818-15.508-65.497-36.967-66.301
						c-21.464-0.799-39.708,27.587-40.751,63.405c-0.544,18.599,1.109,35.873,8.281,47.978c0,0,35.229,7.188,43.963,13.787
						L287.252,274.131z"/>
				</g>
				<path class="st3" d="M124.855,263.511c0,0,29.805,5.322,65.037-0.899s81.405,0.016,106.524,19.632
					c0,0-34.023,6.081-47.624,28.21c0,0-9.051,12.134,13.348,22.73c22.399,10.596,58.099,28.028,67.268,27.506
					c9.169-0.523,63.303-25.169,67.676-27.695c4.373-2.525,23.666-13.963,8.371-28.717c-15.295-14.754-44.995-20.854-44.995-20.854
					s21.852-17.448,53.248-21.708s111.46,7.253,125.812-1.419c0,0-7.624,14.205-46.423,16.446c0,0,15.774,20.181,57.001,14.575
					c0,0-10.578,24.444-67.092,43.059c0,0,14.578,6.725,51.132-4.486c0,0-23.322,32.073-74.68,59.208s-49.116,90.827-126.934,91.723
					s-98.453-71.318-126.038-85.111c-27.584-13.792-57.187-27.921-87.126-68.288c0,0,25.566,15.811,60.887,6.728
					c0,0-46.086-6.728-71.989-42.722c0,0,38.341,2.631,56.514-15.474C164.773,275.955,142.46,277.642,124.855,263.511z"/>
				<g>
					<path class="st0" d="M395.111,228.219c2.978,0.047,4.221,2.384,4.807,4.904c3.921-5.488,5.685-13.579,5.046-21.464
						c-1.217-14.943-8.838-25.038-17.955-24.368c-2.612,0.189-6.615,3.004-8.673,4.93c5.438,2.428,6.329,8.157,5.406,14.213
						c-1.067,6.985-5.209,10.342-9.6,9.674c-0.631-0.092-2.297-0.983-2.852-1.285c0.018,0.271,0.026,1.243,0.045,1.511
						c1.219,14.946,8.01,26.468,18.591,24.31c0.131-0.021,0.247-0.047,0.378-0.06c-0.78-1.553-0.854-1.958-1.096-4.102
						C388.733,232.313,392.008,228.169,395.111,228.219"/>
					<path class="st11" d="M396.01,228.534c1.966,0.302,3.43,2.084,3.984,4.465c2.709-4.888,4.123-11.703,3.511-19.135
						c-1.138-14.081-9.035-24.991-17.627-24.363c-2.468,0.181-4.71,1.314-6.641,3.127c3.183,1.687,4.978,6.836,4.108,12.536
						c-1.009,6.589-5.18,11.424-9.322,10.794c-0.599-0.089-1.151-0.297-1.674-0.586c0.024,0.258,0.019,0.512,0.037,0.77
						c1.149,14.084,9.051,25.004,17.637,24.368c0.118-0.008,0.237-0.037,0.35-0.055c-0.733-1.464-1.033-3.369-0.725-5.377
						C390.27,231.025,393.112,228.1,396.01,228.534"/>
					<path class="st12" d="M393.908,228.8c1.842-2.849,2.917-7.232,2.683-12.121c-0.397-8.36-4.45-14.985-9.041-14.794
						c-1.522,0.063-2.912,0.88-4.081,2.234c-0.037,0.349-0.071,0.694-0.124,1.046c-0.478,3.13-1.671,5.85-3.238,7.787
						c-0.166,1.401-0.221,2.875-0.147,4.4c0.397,8.357,4.439,14.98,9.035,14.791c0.644-0.026,1.264-0.197,1.855-0.476
						C391.642,230.305,392.712,229.275,393.908,228.8"/>
				</g>
				<path class="st2" d="M285.399,273.353c11.516-9.771,19.871-30.861,20.599-55.589c1.022-34.607-13.282-63.237-31.942-63.944
					c-18.665-0.699-34.625,26.778-35.65,61.395c-0.499,16.964,2.678,32.491,8.249,43.997
					C246.656,259.212,267.783,262.633,285.399,273.353L285.399,273.353z"/>
				<g>
					<path class="st0" d="M263.431,228.219c-2.978,0.047-4.221,2.384-4.807,4.904c-3.921-5.488-5.685-13.579-5.046-21.464
						c1.217-14.943,8.838-25.038,17.955-24.368c2.612,0.189,6.615,3.004,8.673,4.93c-5.437,2.428-6.329,8.157-5.406,14.213
						c1.067,6.985,5.209,10.342,9.6,9.674c0.631-0.092,2.297-0.983,2.851-1.285c-0.018,0.271-0.026,1.243-0.045,1.511
						c-1.219,14.946-8.01,26.468-18.591,24.31c-0.131-0.021-0.247-0.047-0.378-0.06c0.781-1.553,0.854-1.958,1.096-4.102
						C269.81,232.313,266.535,228.169,263.431,228.219"/>
					<path class="st11" d="M262.532,228.534c-1.966,0.302-3.43,2.084-3.984,4.465c-2.709-4.888-4.123-11.703-3.511-19.135
						c1.138-14.081,9.036-24.991,17.627-24.363c2.468,0.181,4.71,1.314,6.641,3.127c-3.183,1.687-4.978,6.836-4.108,12.536
						c1.009,6.589,5.18,11.424,9.322,10.794c0.599-0.089,1.151-0.297,1.674-0.586c-0.024,0.258-0.018,0.512-0.037,0.77
						c-1.148,14.084-9.051,25.004-17.637,24.368c-0.118-0.008-0.237-0.037-0.35-0.055c0.733-1.464,1.033-3.369,0.726-5.377
						C268.272,231.025,265.431,228.1,262.532,228.534"/>
					<path class="st12" d="M264.635,228.8c-1.842-2.849-2.917-7.232-2.683-12.121c0.397-8.36,4.449-14.985,9.041-14.794
						c1.522,0.063,2.912,0.88,4.081,2.234c0.037,0.349,0.071,0.694,0.124,1.046c0.478,3.13,1.671,5.85,3.238,7.787
						c0.165,1.401,0.221,2.875,0.147,4.4c-0.397,8.357-4.439,14.98-9.036,14.791c-0.644-0.026-1.264-0.197-1.855-0.476
						C266.9,230.305,265.831,229.275,264.635,228.8"/>
				</g>
				<path class="st0" d="M213.96,201.88c0,0-18.833-10.386-24.888-31.915c-6.055-21.529-26.015-52.927-58.756-53.823
					c0,0,7.401,28.286,22.875,42.175c0,0-13.897-5.117-18.386-10.079c0,0,5.156,23.351,26.909,39.022
					c0,0-19.734-8.552-25.789-17.072c0,0-1.572,28.036,25.117,41.939c0,0-9.416-2.915-14.352-6.728c0,0,4.752,24.16,22.783,32.712
					C169.472,238.111,194.218,229.759,213.96,201.88z"/>
				<path class="st3" d="M211.976,204.219c0,0-22.037-13.511-29.498-41.053c-7.461-27.54-37.763-45.779-47.673-43.505
					c0,0,10.499,29.214,24.178,41.227c0,0-14.137-2.321-21.085-8.465c0,0,9.982,27.219,33.642,38.302c0,0-19.918-3.03-33.787-15.75
					c0,0,1.332,29.718,35.445,40.638c0,0-10.428,1.238-23.647-6.851c0,0,3.6,19.519,22.042,28.155
					C171.593,236.915,198.476,223.352,211.976,204.219z"/>
				<path class="st0" d="M444.144,199.199c0,0,17.498-7.719,26.833-33.668c9.332-25.95,28.042-47.797,54.63-48.94
					c0,0-7.059,26.961-18.213,37.608c0,0,11.382-5.285,15.48-9.611c0,0,0.912,17.072-22.991,39.379c0,0,15.477-5.235,20.486-12.063
					c0,0,3.645,24.583-22.079,39.605c0,0,8.194-2.271,11.608-5.233c0,0,1.059,19.274-20.068,31.716
					C489.83,237.993,458.057,227.178,444.144,199.199z"/>
				<path class="st13" d="M261.92,300.707c0,0-3.175,6.507,0,10.097c0,0,73.812-23.773,134.702,0c0,0,2.828-7.829-1.469-10.565
					c0,0,18.202,11.101,4.914,24.399c-13.288,13.298-70.89,31.692-70.89,31.692s-50.727-15.106-71.234-31.308
					C242.22,312.598,261.92,300.707,261.92,300.707z"/>
				<path class="st14" d="M316.316,353.339c0,0,0.862-19.745-15.416-23.821c-16.283-4.076-28.651,3.141-28.465,4.379
					C272.908,337.032,309.36,350.012,316.316,353.339L316.316,353.339z"/>
				<path class="st14" d="M341.698,353.339c0,0-0.862-19.745,15.416-23.821c16.284-4.076,28.651,3.141,28.465,4.379
					C385.106,337.032,348.655,350.012,341.698,353.339L341.698,353.339z"/>
				<path class="st3" d="M445.539,201.081c0,0,17.285-6.599,29.469-37.169c12.184-30.567,33.356-43.101,48-44.252
					c0,0-11.459,33.855-23.637,40.696c0,0,15.548-5.782,21.868-12.023c0,0-10.268,32.656-33.931,41.926
					c0,0,24.089-5.537,31.329-13.729c0,0-1.275,29.737-31.329,38.349c0,0,12.421,0.071,20.954-6.118c0,0-1.29,17.926-22.113,27.358
					C486.148,236.119,457.649,220.479,445.539,201.081z"/>
			</g>
			<g>
				<g>
					<path class="st0" d="M334.663,374.44c0,0-84.482,4.894-122.784-36.501c0,0,11.848,25.148,59.939,36.785
						c0,0,2.662,2.965,7.724,6.762c0.72,38.231,25.088,68.848,54.706,68.533c29.818-0.315,53.658-31.852,53.248-70.441l0,0
						c5.861-4.144,7.429-7.346,7.429-7.346s31.492-9.627,59.594-43.994C449.726,333.857,415.448,370.54,334.663,374.44z"/>
					<path class="st0" d="M454.519,328.238c0.4-0.468,0.62-0.747,0.62-0.747C454.934,327.747,454.727,327.986,454.519,328.238z"/>
				</g>
				<path class="st2" d="M392.186,368.164c0.074,7.524-38.136,29.852-73.437,24.544c-35.298-5.311-39.195-17.403-39.195-17.403
					s33.095,6.604,53.794,6.581C354.058,381.862,392.186,368.164,392.186,368.164z"/>
				<path class="st15" d="M296.987,423.501c0,0,15.582,23.753,36.212,22.649c20.63-1.104,37.122-22.649,37.122-22.649
					s-25.109-20.583-37.122,0C333.199,423.501,322.329,401.076,296.987,423.501z"/>
			</g>
		</g>
	</g>
</g>
</svg>