<!-- Generator: Adobe Illustrator 19.2.1, SVG Export Plug-In  -->
<svg version="1.1"
	 xmlns="http://www.w3.org/2000/svg" xmlns:xlink="http://www.w3.org/1999/xlink" xmlns:a="http://ns.adobe.com/AdobeSVGViewerExtensions/3.0/"
	 x="0px" y="0px" width="1803.98px" height="525.946px" viewBox="0 0 1803.98 525.946"
	 style="enable-background:new 0 0 1803.98 525.946;" xml:space="preserve">
<style type="text/css">
	.st0{fill:#A2A2A2;}
	.st1{fill:#231F20;}
	.st2{fill:#C3002F;}
</style>
<defs>
</defs>
<g>
	<g>
		<path class="st0" d="M37.242,144.609v148.623h74.254v37.242H0V144.609H37.242z"/>
		<path class="st0" d="M125.333,144.609h37.242v185.866h-37.242V144.609z"/>
		<path class="st0" d="M270.151,144.148c12.914,0,25.02,2.421,36.435,7.379c11.415,4.958,21.446,11.645,30.094,20.062
			l-26.519,26.519c-11.184-11.069-24.444-16.603-39.779-16.603c-15.566,0-28.825,5.534-39.779,16.603
			c-10.954,11.069-16.488,24.329-16.488,39.779c0,15.566,5.534,28.825,16.488,39.779c10.954,10.954,24.213,16.488,39.779,16.488
			s28.825-5.534,39.894-16.603l26.519,26.519c-8.648,8.532-18.679,15.22-30.094,20.178c-11.415,4.958-23.521,7.379-36.435,7.379
			c-25.828,0-47.965-9.224-66.298-27.557s-27.557-40.471-27.557-66.298s9.224-47.965,27.557-66.414s40.471-27.672,66.298-27.672
			L270.151,144.148z"/>
		<path class="st0" d="M462.013,144.609v37.127h-74.254v37.242h55.691v37.127h-55.691v37.127h74.254v37.242h-74.254h-37.242V144.609
			H462.013z"/>
		<path class="st0" d="M590.804,247.342V144.609h37.242v189.325L516.55,227.626v102.849h-37.242V141.15L590.804,247.342z"/>
		<path class="st0" d="M735.623,144.148c12.914,0,25.02,2.421,36.435,7.379s21.446,11.645,30.094,20.062l-26.519,26.519
			c-11.184-11.069-24.444-16.603-39.779-16.603c-15.566,0-28.825,5.534-39.779,16.603c-10.954,11.069-16.488,24.329-16.488,39.779
			c0,15.566,5.534,28.825,16.488,39.779c10.954,10.954,24.213,16.488,39.779,16.488s28.825-5.534,39.894-16.603l26.519,26.519
			c-8.648,8.532-18.679,15.22-30.094,20.178s-23.521,7.379-36.435,7.379c-25.828,0-47.965-9.224-66.298-27.557
			c-18.333-18.333-27.557-40.471-27.557-66.298s9.224-47.965,27.557-66.414c18.333-18.448,40.471-27.672,66.298-27.672
			L735.623,144.148z"/>
		<path class="st0" d="M815.988,144.609h37.242v185.866h-37.242V144.609z"/>
		<path class="st0" d="M919.413,301.765c-4.151,9.455-8.417,18.794-12.683,28.249h-40.01l84.285-188.864l84.516,188.864h-40.125
			c-4.151-9.339-8.302-18.794-12.453-28.134h-63.3L919.413,301.765z M967.724,269.019l-16.373-38.626l-16.488,38.626H967.724z"/>
		<path class="st0" d="M1131.106,144.609h46.466v37.127h-46.466v148.739h-37.242V181.736h-46.466v-37.127h46.466H1131.106z"/>
		<path class="st0" d="M1343.146,144.609v74.715v37.358c0,20.639-7.264,38.28-21.907,52.923s-32.284,21.907-52.808,21.907
			c-20.639,0-38.28-7.264-52.923-21.907c-14.643-14.643-21.907-32.284-21.907-52.923v-37.358v-74.715h37.473v74.715v33.437v3.805
			c0,10.262,3.69,19.025,10.954,26.289s16.027,10.954,26.289,10.954c10.146,0,18.909-3.69,26.289-10.954
			s11.069-16.027,11.069-26.289v-3.805v-33.437v-74.715H1343.146z"/>
		<path class="st0" d="M1361.363,144.378h60.418c17.872,0,35.513,6.226,48.311,19.025c12.798,12.798,17.987,24.79,17.987,42.662
			v5.765c0,13.836-3.92,23.983-11.761,35.052s-14.413,14.297-26.635,18.909l41.97,64.684h-45.429l-47.504-72.64v72.64h-37.242
			L1361.363,144.378z M1425.24,233.967c7.725,0,11.645-1.96,17.065-7.379s7.379-11.645,7.379-19.371
			c0-7.61-1.96-12.683-7.379-18.218s-15.104-7.495-22.83-7.495h-20.87v52.347L1425.24,233.967z"/>
		<path class="st0" d="M1556.684,301.765c-4.151,9.455-8.417,18.794-12.683,28.249h-40.01l84.285-188.864l84.516,188.864h-40.125
			c-4.151-9.339-8.302-18.794-12.453-28.134h-63.3L1556.684,301.765z M1604.995,269.019l-16.373-38.626l-16.488,38.626H1604.995z"/>
		<path class="st0" d="M1742.088,293.578c10.262,0,18.794-8.532,18.794-18.794c0-7.956-3.113-13.029-9.455-15.335
			c-13.375-4.958-10.147-3.805-23.176-8.302c-13.721-4.727-26.404-14.067-34.936-25.712c-5.073-6.918-7.61-15.45-7.61-25.712
			c0-15.45,5.534-28.71,16.603-39.779c11.069-11.069,24.329-16.603,39.894-16.603c15.45,0,28.71,5.534,39.779,16.603
			c11.069,11.069,16.603,24.329,16.603,39.779h-37.473c0-10.147-8.532-18.679-18.679-18.679c-10.262,0-18.794,8.532-18.794,18.794
			c0,6.687,2.652,11.761,8.071,15.22c11.069,7.149,9.801,5.765,23.06,9.685c14.297,4.151,27.211,13.029,36.089,24.444
			c5.189,6.687,7.841,15.335,7.841,25.828c0,15.566-5.535,28.825-16.603,39.894c-11.069,11.069-24.329,16.603-39.779,16.603
			c-15.566,0-28.825-5.534-39.894-16.603c-11.069-11.069-16.603-24.329-16.603-39.894h37.588c0,10.377,8.417,18.794,18.794,18.794
			L1742.088,293.578z"/>
	</g>
	<g>
		<g>
			<path class="st1" d="M816.135,398.547l-15.081,12.092c-3.98-4.133-7.587-7.228-10.827-9.256c-3.233-2.043-7.914-3.05-14.037-3.05
				c-6.679,0-12.123,1.517-16.271,4.528c-4.17,3.02-6.251,6.924-6.251,11.681c0,4.133,1.829,7.769,5.451,10.934
				c3.637,3.164,9.836,6.633,18.589,10.393c8.753,3.751,15.569,7.259,20.441,10.499c4.88,3.233,8.883,6.824,12.017,10.735
				c3.134,3.934,5.467,8.059,6.992,12.412c1.533,4.331,2.295,8.944,2.295,13.786c0,11.329-4.109,20.983-12.352,28.95
				c-8.234,7.998-18.199,11.985-29.888,11.985c-11.422,0-21.493-3.118-30.232-9.355c-8.737-6.252-15.455-15.615-20.151-28.089
				l18.604-5.245c6.771,15.356,17.155,22.996,31.123,22.996c6.771,0,12.405-2.021,16.911-6.07c4.491-4.048,6.732-9.164,6.732-15.356
				c0-3.698-1.189-7.411-3.538-11.147c-2.356-3.728-5.291-6.809-8.776-9.225c-3.492-2.409-9.066-5.185-16.69-8.311
				c-7.625-3.134-13.503-6.008-17.613-8.601c-4.125-2.607-7.686-5.703-10.674-9.302c-3.019-3.599-5.223-7.174-6.618-10.742
				c-1.403-3.561-2.089-7.373-2.089-11.429c0-9.775,3.926-18.085,11.764-24.963c7.846-6.862,17.362-10.308,28.562-10.308
				c7.419,0,14.929,1.601,22.569,4.803C804.729,387.11,811.065,391.99,816.135,398.547z"/>
			<path class="st1" d="M893.319,378.129l64.328,141.496h-19.495L922.33,484.75h-57.824l-15.638,34.875h-19.366L893.319,378.129z
				 M893.258,420.643l-21.784,48.614H915.3L893.258,420.643z"/>
			<path class="st1" d="M973.696,377.9l100.781,103.572v-98.113h18.604v142.587L992.308,422.824v96.801h-18.612V377.9z"/>
			<path class="st1" d="M1112.547,383.359h83.328v18.612h-32.534v117.654h-18.39V401.971h-32.404V383.359z"/>
			<path class="st1" d="M1263.315,378.129l64.344,141.496h-19.511l-15.813-34.875h-57.832l-15.631,34.875h-19.366L1263.315,378.129z
				 M1263.262,420.643l-21.783,48.614h43.825L1263.262,420.643z"/>
			<path class="st1" d="M1343.693,377.9l100.774,103.572v-98.113h18.604v142.587l-100.758-103.122v96.801h-18.619V377.9z"/>
			<path class="st1" d="M1491.098,383.359h33.052c26.176,0,45.641,6.923,58.412,20.754c12.756,13.831,19.145,29.629,19.145,47.386
				c0,17.895-6.603,33.731-19.801,47.493c-13.183,13.77-32.366,20.632-57.535,20.632h-33.274V383.359z M1509.71,401.543v99.691
				h1.075c13.839,0,24.231-0.618,31.222-1.875c7-1.235,13.633-3.972,19.908-8.189c6.276-4.193,11.262-9.79,14.967-16.728
				c3.713-6.953,5.574-14.601,5.574-22.942c0-10.483-2.974-19.969-8.883-28.462c-5.917-8.478-13-14.182-21.226-17.109
				c-8.25-2.928-19.314-4.384-33.22-4.384H1509.71z"/>
			<path class="st1" d="M1621.699,383.359h75.529v18.612h-57.123v34.013h57.123v18.406h-57.123v46.845h57.123v18.391h-75.529
				V383.359z"/>
			<path class="st1" d="M1722.038,383.359h29.531c14.684,0,26.655,3.652,35.888,10.964c9.234,7.304,13.854,16.668,13.854,28.074
				c0,9.119-2.99,17.17-8.975,24.17c-5.962,6.984-15.287,11.902-27.944,14.746l39.587,58.312h-21.349l-37.803-56.04h-4.178v56.04
				h-18.612V383.359z M1740.65,399.828v47.5c27.456,0.572,41.18-7.38,41.18-23.857c0-5.772-1.601-10.499-4.803-14.174
				c-3.21-3.675-7.487-6.161-12.839-7.487C1758.842,400.491,1750.996,399.828,1740.65,399.828z"/>
		</g>
	</g>
	<g>
		<path class="st2" d="M674.307,81.682v18.702h-5.776V81.682h-50.467l56.242-80.857v75.356h11.413v5.5H674.307z M668.532,18.289
			l-40.428,57.892h40.428V18.289z"/>
		<path class="st2" d="M396.127,100.383v-9.763c-5.96,7.15-13.523,10.726-22.689,10.726c-8.251,0-15.174-2.795-20.764-8.389
			c-5.685-5.683-8.526-12.651-8.526-20.902c0-8.25,2.795-15.171,8.388-20.764c5.683-5.684,12.651-8.526,20.902-8.526
			c9.076,0,16.639,3.575,22.689,10.726v-9.901h5.638v56.792H396.127z M390.214,55.28c-4.675-4.675-10.268-7.013-16.776-7.013
			c-6.601,0-12.193,2.292-16.777,6.875c-4.675,4.675-7.013,10.314-7.013,16.914c0,6.511,2.338,12.102,7.013,16.777
			c4.675,4.675,10.266,7.013,16.777,7.013c6.6,0,12.191-2.291,16.776-6.876c4.675-4.675,7.013-10.313,7.013-16.914
			C397.227,65.548,394.889,59.955,390.214,55.28z"/>
		<path class="st2" d="M456.769,100.383V66.418c0-12.009-5.41-18.015-16.226-18.015c-5.318,0-9.351,1.56-12.101,4.675
			c-2.843,3.118-4.263,7.38-4.263,12.789v34.516h-5.638V43.591h5.638v6.875c2.565-5.04,8.021-7.563,16.364-7.563
			c7.058,0,12.466,2.018,16.226,6.051c3.758,4.035,5.638,9.672,5.638,16.913v34.516H456.769z"/>
		<path class="st2" d="M526.486,92.82c-5.685,5.685-12.651,8.526-20.902,8.526c-8.251,0-15.174-2.795-20.764-8.389
			c-5.685-5.683-8.526-12.651-8.526-20.902c0-8.158,2.841-15.079,8.526-20.764c5.591-5.776,12.514-8.664,20.764-8.664
			c8.158,0,15.079,2.843,20.764,8.526c5.683,5.685,8.526,12.652,8.526,20.902C534.874,80.307,532.077,87.229,526.486,92.82z
			 M522.498,55.142c-4.585-4.675-10.223-7.013-16.914-7.013c-6.418,0-11.964,2.385-16.639,7.151
			c-4.768,4.768-7.151,10.36-7.151,16.776c0,6.511,2.338,12.102,7.013,16.777c4.675,4.675,10.266,7.013,16.777,7.013
			c6.6,0,12.191-2.291,16.776-6.876c4.675-4.675,7.013-10.313,7.013-16.914C529.374,65.365,527.081,59.727,522.498,55.142z"/>
		<path class="st2" d="M576.951,96.808c-3.668,3.118-8.068,4.675-13.201,4.675c-8.801,0-15.401-3.988-19.802-11.964l4.813-2.888
			c1.558,2.843,3.438,5.043,5.638,6.601c2.29,1.742,5.408,2.613,9.351,2.613c8.616,0,12.926-3.666,12.926-11.002
			c0-3.207-1.513-6.003-4.538-8.388c-0.917-0.55-2.224-1.168-3.919-1.856c-1.697-0.688-3.782-1.489-6.257-2.406
			c-4.585-1.651-7.885-3.301-9.901-4.95c-2.935-2.383-4.4-5.821-4.4-10.314c0-3.851,1.465-7.15,4.4-9.901
			c2.84-2.84,6.553-4.263,11.138-4.263c6.326,0,11.688,2.2,16.089,6.6l-4.125,3.576c-3.118-3.116-7.105-4.675-11.963-4.675
			c-6.601,0-9.901,2.888-9.901,8.663c0,2.568,1.008,4.675,3.025,6.325c1.65,1.285,4.263,2.523,7.838,3.714
			c3.116,1.1,5.683,2.131,7.701,3.094c2.015,0.962,3.528,1.811,4.538,2.543c3.941,3.026,5.913,7.105,5.913,12.239
			C582.314,89.795,580.526,93.783,576.951,96.808z"/>
		<path class="st2" d="M297.411,93.508c-5.318,5.043-12.056,7.563-20.214,7.563c-6.785,0-12.606-1.878-17.464-5.638
			c-4.675-3.758-7.793-9.028-9.351-15.814h6.05c1.19,4.493,3.803,8.251,7.838,11.277c3.941,3.025,8.251,4.538,12.926,4.538
			c6.051,0,11.229-2.063,15.539-6.188c4.308-4.308,6.463-9.44,6.463-15.401c0-7.425-2.66-13.246-7.976-17.464
			c-4.035-3.207-8.16-4.812-12.376-4.812h-5.775v-8.114h5.775c5.775,0,10.404-1.602,13.889-4.812
			c3.39-3.115,5.088-7.654,5.088-13.613c0-5.683-1.835-10.314-5.5-13.889c-3.668-3.665-8.388-5.5-14.164-5.5
			c-11.001,0-17.649,5.775-19.939,17.327h-6.463c0.825-7.151,3.62-12.742,8.388-16.777C264.911,2.062,270.916,0,278.159,0
			c7.516,0,13.796,2.292,18.839,6.875c5.041,4.493,7.563,10.543,7.563,18.152c0,12.193-6.143,19.664-18.427,22.414
			c12.834,3.851,19.252,12.651,19.252,26.402C305.387,82.004,302.727,88.558,297.411,93.508z"/>
		<path class="st2" d="M804.254,100.383V61.193c0-3.483-1.147-6.509-3.438-9.076c-2.293-2.566-5.593-3.851-9.901-3.851
			c-8.893,0-13.339,4.31-13.339,12.926v39.191h-5.638V61.193c0-3.851-1.285-6.921-3.85-9.214c-2.66-2.475-5.823-3.713-9.488-3.713
			c-3.76,0-6.923,1.192-9.488,3.576c-2.568,2.292-3.85,5.41-3.85,9.351v39.191h-5.638V43.591h5.638v5.638
			c2.75-4.308,7.196-6.463,13.339-6.463c7.333,0,12.741,2.98,16.226,8.938c3.3-5.958,8.663-8.938,16.089-8.938
			c5.683,0,10.266,1.605,13.751,4.812c3.483,3.301,5.225,7.838,5.225,13.614v39.191H804.254z"/>
		<path class="st2" d="M829.143,70.818c0,7.701,2.063,13.799,6.188,18.29c4.308,4.585,10.221,6.875,17.739,6.875
			c3.85,0,7.333-0.64,10.451-1.925c3.941-1.651,7.471-4.996,10.589-10.039l5.088,2.338c-3.575,6.786-9.076,11.369-16.501,13.751
			c-2.843,0.915-6.051,1.375-9.626,1.375c-8.526,0-15.539-2.795-21.039-8.388c-5.593-5.591-8.388-12.604-8.388-21.04
			c0-8.526,2.75-15.538,8.251-21.04c5.591-5.59,12.651-8.388,21.177-8.388c8.433,0,15.401,2.613,20.902,7.838
			c5.591,5.225,8.388,12.011,8.388,20.352H829.143z M867.921,52.804c-4.31-3.115-9.261-4.675-14.851-4.675
			c-11.736,0-19.437,5.776-23.102,17.327h46.066C875.117,60.23,872.412,56.014,867.921,52.804z"/>
		<path class="st2" d="M923.337,96.808c-3.668,3.118-8.068,4.675-13.201,4.675c-8.801,0-15.401-3.988-19.802-11.964l4.813-2.888
			c1.558,2.843,3.438,5.043,5.638,6.601c2.29,1.742,5.408,2.613,9.351,2.613c8.616,0,12.926-3.666,12.926-11.002
			c0-3.207-1.513-6.003-4.538-8.388c-0.917-0.55-2.224-1.168-3.919-1.856c-1.697-0.688-3.782-1.489-6.257-2.406
			c-4.585-1.651-7.885-3.301-9.901-4.95c-2.935-2.383-4.4-5.821-4.4-10.314c0-3.851,1.466-7.15,4.4-9.901
			c2.84-2.84,6.553-4.263,11.138-4.263c6.326,0,11.688,2.2,16.089,6.6l-4.125,3.576c-3.118-3.116-7.106-4.675-11.964-4.675
			c-6.601,0-9.901,2.888-9.901,8.663c0,2.568,1.008,4.675,3.025,6.325c1.65,1.285,4.263,2.523,7.838,3.714
			c3.115,1.1,5.683,2.131,7.701,3.094c2.016,0.962,3.528,1.811,4.538,2.543c3.94,3.026,5.913,7.105,5.913,12.239
			C928.7,89.795,926.912,93.783,923.337,96.808z"/>
		<path class="st2" d="M942.038,70.818c0,7.701,2.063,13.799,6.188,18.29c4.308,4.585,10.221,6.875,17.739,6.875
			c3.85,0,7.333-0.64,10.451-1.925c3.941-1.651,7.471-4.996,10.589-10.039l5.088,2.338c-3.575,6.786-9.076,11.369-16.501,13.751
			c-2.843,0.915-6.051,1.375-9.626,1.375c-8.526,0-15.539-2.795-21.039-8.388c-5.593-5.591-8.388-12.604-8.388-21.04
			c0-8.526,2.75-15.538,8.251-21.04c5.591-5.59,12.651-8.388,21.177-8.388c8.433,0,15.401,2.613,20.902,7.838
			c5.591,5.225,8.388,12.011,8.388,20.352H942.038z M980.816,52.804c-4.31-3.115-9.261-4.675-14.851-4.675
			c-11.736,0-19.437,5.776-23.102,17.327h46.066C988.012,60.23,985.307,56.014,980.816,52.804z"/>
		<path class="st2" d="M1036.232,96.808c-3.668,3.118-8.068,4.675-13.201,4.675c-8.801,0-15.401-3.988-19.802-11.964l4.813-2.888
			c1.558,2.843,3.438,5.043,5.638,6.601c2.29,1.742,5.408,2.613,9.351,2.613c8.616,0,12.926-3.666,12.926-11.002
			c0-3.207-1.513-6.003-4.538-8.388c-0.917-0.55-2.224-1.168-3.919-1.856c-1.697-0.688-3.782-1.489-6.257-2.406
			c-4.585-1.651-7.885-3.301-9.901-4.95c-2.935-2.383-4.4-5.821-4.4-10.314c0-3.851,1.466-7.15,4.4-9.901
			c2.84-2.84,6.553-4.263,11.138-4.263c6.326,0,11.688,2.2,16.089,6.6l-4.125,3.576c-3.118-3.116-7.106-4.675-11.964-4.675
			c-6.601,0-9.901,2.888-9.901,8.663c0,2.568,1.008,4.675,3.025,6.325c1.65,1.285,4.263,2.523,7.838,3.714
			c3.115,1.1,5.683,2.131,7.701,3.094c2.016,0.962,3.528,1.811,4.538,2.543c3.941,3.026,5.913,7.105,5.913,12.239
			C1041.595,89.795,1039.808,93.783,1036.232,96.808z"/>
	</g>
	<rect x="428.028" y="24.772" class="st2" width="24.892" height="5.5"/>
</g>
</svg>