<!-- Generator: Adobe Illustrator 22.1.0, SVG Export Plug-In  -->
<svg version="1.1"
	 xmlns="http://www.w3.org/2000/svg" xmlns:xlink="http://www.w3.org/1999/xlink" xmlns:a="http://ns.adobe.com/AdobeSVGViewerExtensions/3.0/"
	 x="0px" y="0px" width="1081.062px" height="236.239px" viewBox="0 0 1081.062 236.239"
	 style="enable-background:new 0 0 1081.062 236.239;" xml:space="preserve">
<style type="text/css">
	.st0{fill:#FFFFFF;}
	.st1{fill:#C10230;}
</style>
<defs>
</defs>
<g>
	<g>
		<g>
			<path class="st0" d="M74.424,234.053l-14.761-40.767H21.474L6.638,234.053H0L40.609,122.69l40.375,111.363H74.424z
				 M57.399,187.116l-16.79-46.309l-16.868,46.309H57.399z"/>
			<path class="st0" d="M132.526,234.053V123.626h6.248v104.179h42.093v6.248H132.526z"/>
			<path class="st0" d="M262.396,234.053l-14.758-40.767H209.45l-14.839,40.767h-6.638l40.609-111.363l40.375,111.363H262.396z
				 M245.374,187.116l-16.793-46.309l-16.869,46.309H245.374z"/>
			<path class="st0" d="M375.712,123.626v6.248h-48.965v45.842h48.965v6.249h-48.965v45.841h48.965v6.248h-55.214V123.626H375.712z"
				/>
			<path class="st0" d="M385.631,234.053l34.985-60.681l-28.738-49.746h7.106l25.146,43.656l25.224-43.656h7.108l-28.817,49.746
				l35.143,60.681h-7.106l-31.551-54.511l-31.471,54.511H385.631z"/>
			<path class="st0" d="M559.547,216.48l4.763,4.219c-10.778,9.786-23.455,14.681-38.032,14.681
				c-15.673,0-29.013-5.505-40.025-16.518c-11.01-11.012-16.514-24.352-16.514-40.025c0-15.564,5.504-28.879,16.514-39.943
				c11.012-11.064,24.352-16.596,40.025-16.596c14.577,0,27.254,4.92,38.032,14.759l-4.763,4.217
				c-9.476-8.379-20.565-12.573-33.268-12.573c-13.85,0-25.681,4.895-35.493,14.683c-9.816,9.789-14.723,21.606-14.723,35.453
				c0,13.902,4.906,25.748,14.723,35.535c9.812,9.789,21.643,14.683,35.493,14.683C538.982,229.055,550.071,224.865,559.547,216.48z
				"/>
			<path class="st0" d="M633.111,123.626v6.248h-48.964v45.842h48.964v6.249h-48.964v45.841h48.964v6.248H577.9V123.626H633.111z"/>
			<path class="st0" d="M650.604,234.053V123.626h6.247v104.179h42.094v6.248H650.604z"/>
			<path class="st0" d="M766.967,123.626v6.248H718v45.842h48.967v6.249H718v45.841h48.967v6.248h-55.215V123.626H766.967z"/>
			<path class="st0" d="M851.777,216.636v-93.011h6.247v112.613l-67.552-94.808v92.622h-6.247V121.909L851.777,216.636z"/>
			<path class="st0" d="M962.123,216.48l4.764,4.219c-10.776,9.786-23.455,14.681-38.03,14.681
				c-15.673,0-29.012-5.505-40.025-16.518c-11.011-11.012-16.518-24.352-16.518-40.025c0-15.564,5.507-28.879,16.518-39.943
				c11.012-11.064,24.352-16.596,40.025-16.596c14.575,0,27.254,4.92,38.03,14.759l-4.764,4.217
				c-9.476-8.379-20.565-12.573-33.267-12.573c-13.85,0-25.681,4.895-35.494,14.683c-9.815,9.789-14.721,21.606-14.721,35.453
				c0,13.902,4.906,25.748,14.721,35.535c9.813,9.789,21.644,14.683,35.494,14.683C941.558,229.055,952.648,224.865,962.123,216.48z
				"/>
			<path class="st0" d="M987.504,123.626v110.427h-6.247V123.626H987.504z"/>
			<path class="st0" d="M1074.502,234.053l-14.761-40.767h-38.187l-14.839,40.767h-6.637l40.609-111.363l40.374,111.363H1074.502z
				 M1057.476,187.116l-16.789-46.309l-16.869,46.309H1057.476z"/>
		</g>
	</g>
	<g>
		<path class="st1" d="M658.409,37.569c7.182,7.182,10.773,15.8,10.773,25.854s-3.591,18.672-10.773,25.809
			c-7.182,7.137-15.8,10.728-25.854,10.728c-10.054,0-18.672-3.591-25.809-10.728s-10.728-15.755-10.728-25.809
			s3.591-18.672,10.728-25.854s15.755-10.772,25.809-10.772C642.61,26.797,651.228,30.387,658.409,37.569z M617.07,47.848
			c-4.264,4.309-6.419,9.471-6.419,15.485c0,6.06,2.154,11.221,6.419,15.485c4.264,4.264,9.426,6.419,15.485,6.419
			c6.015,0,11.176-2.154,15.485-6.419c4.309-4.264,6.464-9.426,6.464-15.485c0-6.015-2.155-11.176-6.464-15.485
			c-4.309-4.309-9.471-6.463-15.485-6.463C626.496,41.384,621.334,43.539,617.07,47.848z"/>
		<path class="st1" d="M674.478,77.786V52.471V27.156h14.498h10.817c6.957,0,12.927,2.469,17.909,7.451
			c4.982,4.982,7.451,10.952,7.451,17.909s-2.469,12.927-7.451,17.864c-4.982,4.937-10.952,7.406-17.909,7.406h-10.817v21.724
			h-14.498V77.786z M699.794,63.378c3.007,0,5.566-1.077,7.675-3.187c2.11-2.11,3.187-4.668,3.187-7.675
			c0-2.962-1.077-5.521-3.187-7.675c-2.11-2.154-4.668-3.232-7.675-3.232h-10.817v10.862v10.862L699.794,63.378z"/>
		<path class="st1" d="M766.134,26.976c5.027,0,9.74,0.943,14.184,2.873s8.349,4.533,11.715,7.81l-10.324,10.324
			c-4.354-4.309-9.516-6.463-15.485-6.463c-6.06,0-11.221,2.154-15.485,6.463s-6.419,9.471-6.419,15.485
			c0,6.06,2.154,11.221,6.419,15.485c4.264,4.264,9.426,6.419,15.485,6.419s11.221-2.154,15.53-6.463l10.324,10.324
			c-3.366,3.322-7.271,5.925-11.715,7.855c-4.444,1.93-9.157,2.873-14.184,2.873c-10.054,0-18.672-3.591-25.809-10.728
			c-7.137-7.137-10.728-15.755-10.728-25.809s3.591-18.672,10.728-25.854c7.137-7.182,15.755-10.772,25.809-10.772L766.134,26.976z"
			/>
		<path class="st1" d="M797.419,27.156h14.498v72.355h-14.498V27.156z"/>
		<path class="st1" d="M879.649,37.524c7.182,7.182,10.772,15.8,10.772,25.854s-3.591,18.672-10.772,25.809
			c-7.182,7.137-15.8,10.728-25.854,10.728s-18.672-3.591-25.809-10.728c-7.137-7.137-10.728-15.755-10.728-25.809
			s3.591-18.672,10.728-25.854c7.137-7.182,15.755-10.772,25.809-10.772S872.468,30.342,879.649,37.524z M838.31,47.803
			c-4.264,4.309-6.419,9.471-6.419,15.485c0,6.06,2.155,11.221,6.419,15.485c4.264,4.264,9.426,6.419,15.485,6.419
			c6.015,0,11.176-2.154,15.485-6.419c4.309-4.264,6.464-9.426,6.464-15.485c0-6.015-2.154-11.176-6.464-15.485
			c-4.309-4.309-9.471-6.463-15.485-6.463C847.736,41.339,842.574,43.494,838.31,47.803z M865.151,6.643l-14.722,13.69l-5.207-3.95
			L856.758,0L865.151,6.643z"/>
		<path class="st1" d="M939.167,67.148V27.156h14.498v73.702l-43.404-41.384v40.038h-14.498V25.809L939.167,67.148z"/>
	</g>
</g>
<g>
	<path class="st1" d="M468.298,27.147v57.495h28.725V99.05h-43.133V27.147H468.298z"/>
	<path class="st1" d="M520.842,87.943c-1.606,3.658-3.256,7.271-4.906,10.928h-15.478l32.606-73.062l32.695,73.062h-15.522
		c-1.606-3.613-3.212-7.271-4.817-10.883h-24.488L520.842,87.943z M539.532,75.275l-6.334-14.943l-6.378,14.943H539.532z"/>
</g>
</svg>