<!-- Generator: Adobe Illustrator 22.1.0, SVG Export Plug-In  -->
<svg version="1.1"
	 xmlns="http://www.w3.org/2000/svg" xmlns:xlink="http://www.w3.org/1999/xlink" xmlns:a="http://ns.adobe.com/AdobeSVGViewerExtensions/3.0/"
	 x="0px" y="0px" width="831.329px" height="154.343px" viewBox="0 0 831.329 154.343"
	 style="enable-background:new 0 0 831.329 154.343;" xml:space="preserve">
<style type="text/css">
	.st0{fill:#F69322;}
	.st1{fill:#623288;}
</style>
<defs>
</defs>
<g>
	<g>
		<path class="st0" d="M89.881,9.481c8.324,0.048,14.776,2.373,19.355,6.976c5.056,5.08,7.585,11.186,7.585,18.317
			c0,7.179-2.528,13.297-7.585,18.353c-4.579,4.579-11.031,6.893-19.355,6.941h-9.373V9.481H89.881z M83.369,12.45v44.684h6.475
			c7.274,0,13.011-2.027,17.208-6.082c4.484-4.484,6.726-9.91,6.726-16.278c0-6.344-2.242-11.77-6.726-16.278
			c-4.198-4.031-9.934-6.046-17.208-6.046H83.369z"/>
		<path class="st0" d="M148.339,9.481v2.862h-22.432v21.001h22.432v2.862h-22.432v21.001h22.432v2.862h-25.294V9.481H148.339z"/>
		<path class="st0" d="M170.055,32.055c-3.601-1.193-6.447-2.832-8.533-4.919s-3.13-4.621-3.13-7.602c0-2.91,1.043-5.414,3.13-7.513
			s4.622-3.148,7.603-3.148c2.934,0,5.462,1.049,7.585,3.148c1.145,1.121,1.944,2.373,2.397,3.756l-2.576,1.002
			c-0.382-1.026-1.002-1.968-1.86-2.826c-1.526-1.526-3.375-2.29-5.545-2.29s-4.026,0.763-5.562,2.29
			c-1.54,1.526-2.308,3.387-2.308,5.581c0,2.17,0.763,4.031,2.29,5.581c1.431,1.407,3.411,2.695,5.939,3.864
			c4.055,1.312,7.465,3.351,10.232,6.118c2.91,2.91,4.365,6.428,4.365,10.554c0,4.15-1.462,7.692-4.383,10.625
			c-2.922,2.934-6.445,4.4-10.571,4.4c-4.15,0-7.68-1.479-10.59-4.436c-2.361-2.337-3.768-5.056-4.222-8.157l2.683-0.966
			c0.286,2.743,1.455,5.128,3.506,7.155c2.385,2.385,5.259,3.578,8.622,3.578s6.237-1.193,8.622-3.578s3.578-5.259,3.578-8.622
			c0-3.339-1.193-6.201-3.578-8.586C175.648,34.965,173.084,33.296,170.055,32.055z"/>
		<path class="st0" d="M199.427,9.481c8.324,0.048,14.776,2.373,19.355,6.976c5.056,5.08,7.585,11.186,7.585,18.317
			c0,7.179-2.528,13.297-7.585,18.353c-4.579,4.579-11.031,6.893-19.355,6.941h-9.373V9.481H199.427z M192.916,12.45v44.684h6.475
			c7.274,0,13.011-2.027,17.208-6.082c4.484-4.484,6.726-9.91,6.726-16.278c0-6.344-2.242-11.77-6.726-16.278
			c-4.198-4.031-9.934-6.046-17.208-6.046H192.916z"/>
		<path class="st0" d="M257.885,9.481v2.862h-22.432v21.001h22.432v2.862h-22.432v21.001h22.432v2.862h-25.294V9.481H257.885z"/>
		<path class="st0" d="M286.935,42.538v17.53h-2.862V9.481h13.273c3.864,0.525,7.143,2.135,9.838,4.83
			c3.22,3.244,4.83,7.131,4.83,11.663c0,4.579-1.61,8.485-4.83,11.717s-7.108,4.848-11.663,4.848H286.935z M286.935,12.379V39.64
			h8.586c3.745,0,6.953-1.33,9.624-3.989c2.671-2.659,4.007-5.885,4.007-9.677c0-3.768-1.336-6.976-4.007-9.624
			c-2.671-2.647-5.879-3.971-9.624-3.971H286.935z"/>
		<path class="st0" d="M343.676,9.481v2.862h-22.432v21.001h22.432v2.862h-22.432v21.001h22.432v2.862h-25.294V9.481H343.676z"/>
		<path class="st0" d="M375.553,60.676c-7.036-0.072-13.046-2.612-18.031-7.62c-5.08-5.056-7.62-11.174-7.62-18.353
			c0-7.155,2.533-13.267,7.602-18.335c5.068-5.068,11.181-7.602,18.336-7.602c7.179,0,13.302,2.534,18.37,7.602
			c5.068,5.068,7.603,11.18,7.603,18.335c0,7.179-2.528,13.297-7.585,18.353c-3.673,3.673-7.883,6.01-12.629,7.012
			c1.765,0.477,3.947,1.538,6.547,3.184c1.765,0.954,3.578,1.562,5.438,1.825c2.552-0.072,3.947-1.503,4.186-4.293h2.862
			c-0.549,4.102-2.671,6.297-6.368,6.583c-3.029,0-5.867-0.799-8.515-2.397c-2.957-1.55-5.295-2.385-7.012-2.504
			c-1.598,0.119-2.791,0.537-3.578,1.252s-1.319,1.562-1.591,2.54c-0.276,0.978-0.424,1.586-0.448,1.825h-2.862
			C370.902,63.908,372.667,61.439,375.553,60.676z M375.839,11.663c-6.344,0-11.77,2.254-16.278,6.762
			c-4.508,4.508-6.762,9.934-6.762,16.278c0,6.368,2.254,11.806,6.762,16.314c4.508,4.508,9.934,6.762,16.278,6.762
			c6.368,0,11.806-2.254,16.314-6.762c4.508-4.508,6.762-9.946,6.762-16.314c0-6.344-2.254-11.77-6.762-16.278
			C387.645,13.917,382.207,11.663,375.839,11.663z"/>
		<path class="st0" d="M438.197,9.481h2.862v36.349c-0.525,3.864-2.135,7.143-4.83,9.838c-3.22,3.22-7.108,4.83-11.663,4.83
			c-4.579,0-8.479-1.61-11.699-4.83s-4.83-7.108-4.83-11.663V9.481h2.862v34.524c0,3.745,1.336,6.952,4.007,9.624
			c2.671,2.671,5.891,4.007,9.66,4.007s6.981-1.336,9.643-4.007c2.658-2.671,3.988-5.879,3.988-9.624V9.481z"/>
		<path class="st0" d="M474.366,9.481v2.862h-22.432v21.001h22.432v2.862h-22.432v21.001h22.432v2.862h-25.294V9.481H474.366z"/>
		<path class="st0" d="M485.886,9.481l33.63,47.117V9.481h2.862v50.587h-4.4L485.135,14.06v46.008h-2.862V9.481H485.886z
			 M502.665,1.646c1.407,1.026,2.385,1.538,2.934,1.538h0.143c0.429-0.167,0.739-0.549,0.93-1.145
			c0.095-0.334,0.143-0.918,0.143-1.753l2.361,0.465c-0.048,0.882-0.167,1.61-0.358,2.182c-0.429,1.312-1.169,2.194-2.218,2.647
			c-0.286,0.095-0.584,0.143-0.894,0.143c-0.978,0-2.23-0.537-3.757-1.61c-1.407-1.049-2.385-1.574-2.934-1.574
			c-0.072,0-0.119,0.012-0.143,0.036c-0.405,0.143-0.704,0.525-0.894,1.145c-0.119,0.334-0.179,0.918-0.179,1.753l-2.325-0.501
			c0.024-0.882,0.131-1.598,0.322-2.147c0.429-1.312,1.181-2.194,2.254-2.647C498.312,0.06,498.61,0,498.944,0
			C499.922,0,501.162,0.549,502.665,1.646z"/>
		<path class="st0" d="M572.803,16.368c5.068,5.068,7.603,11.18,7.603,18.335c0,7.179-2.535,13.303-7.603,18.371
			s-11.191,7.602-18.37,7.602c-7.155,0-13.268-2.534-18.336-7.602c-5.068-5.068-7.602-11.192-7.602-18.371
			c0-7.155,2.533-13.267,7.602-18.335c5.068-5.068,11.181-7.602,18.336-7.602C561.612,8.765,567.735,11.299,572.803,16.368z
			 M554.433,11.663c-6.344,0-11.77,2.254-16.278,6.762c-4.508,4.508-6.762,9.934-6.762,16.278c0,6.368,2.254,11.806,6.762,16.314
			c4.508,4.508,9.934,6.762,16.278,6.762c6.368,0,11.806-2.254,16.314-6.762c4.508-4.508,6.762-9.946,6.762-16.314
			c0-6.344-2.254-11.77-6.762-16.278C566.239,13.917,560.801,11.663,554.433,11.663z"/>
	</g>
	<g>
		<path class="st1" d="M37.177,79.622c10.268,0,19.07,3.667,26.405,11.002c7.335,7.335,11.002,16.136,11.002,26.405
			c0,7.518-2.063,14.348-6.189,20.537l6.326,6.28l-10.543,10.498l-6.326-6.234c-6.28,4.126-13.111,6.189-20.537,6.189
			c-10.268,0-19.07-3.667-26.359-10.956S0,127.25,0,116.982s3.667-19.07,10.956-26.405c7.289-7.335,16.09-11.002,26.359-11.002
			L37.177,79.622z M47.675,116.89l9.718,9.672c1.467-3.026,2.2-6.234,2.2-9.627c0-6.143-2.2-11.414-6.601-15.815
			S43.32,94.52,37.177,94.52c-6.189,0-11.46,2.2-15.815,6.601s-6.555,9.672-6.555,15.815c0,6.189,2.2,11.46,6.555,15.815
			s9.627,6.555,15.815,6.555c3.392,0,6.601-0.733,9.672-2.2l-9.718-9.672L47.675,116.89z"/>
		<path class="st1" d="M139.678,79.942v29.705V124.5c0,8.206-2.888,15.219-8.71,21.041c-5.822,5.822-12.836,8.71-20.995,8.71
			c-8.206,0-15.219-2.888-21.041-8.71c-5.822-5.822-8.71-12.836-8.71-21.041v-14.853V79.942H95.12v29.705v13.294v1.513
			c0,4.08,1.467,7.564,4.355,10.452c2.888,2.888,6.372,4.355,10.452,4.355c4.034,0,7.518-1.467,10.452-4.355
			c2.934-2.888,4.401-6.372,4.401-10.452v-1.513v-13.294V79.942H139.678z"/>
		<path class="st1" d="M146.967,79.942h14.807v73.896h-14.807V79.942z"/>
		<path class="st1" d="M213.436,79.942v14.761h-29.522v14.807h22.141v14.761h-22.141v14.761h29.522v14.807h-29.522h-14.807V79.942
			H213.436z"/>
		<path class="st1" d="M220.267,79.851h24.021c7.105,0,14.119,2.475,19.207,7.564c5.088,5.088,7.151,9.856,7.151,16.961v2.292
			c0,5.501-1.559,9.535-4.676,13.936c-3.117,4.401-5.73,5.684-10.589,7.518l16.686,25.717h-18.061l-18.887-28.88v28.88h-14.807
			L220.267,79.851z M245.663,115.469c3.071,0,4.63-0.779,6.784-2.934c2.155-2.155,2.934-4.63,2.934-7.701
			c0-3.026-0.779-5.043-2.934-7.243c-2.155-2.2-6.005-2.98-9.077-2.98h-8.297v20.812L245.663,115.469z"/>
		<path class="st1" d="M340.829,90.578c7.335,7.335,11.002,16.136,11.002,26.405s-3.667,19.07-11.002,26.359
			c-7.335,7.289-16.136,10.956-26.404,10.956c-10.268,0-19.07-3.667-26.359-10.956c-7.289-7.289-10.956-16.09-10.956-26.359
			s3.667-19.07,10.956-26.405c7.289-7.335,16.09-11.002,26.359-11.002C324.693,79.576,333.494,83.243,340.829,90.578z
			 M298.609,101.075c-4.355,4.401-6.555,9.672-6.555,15.815c0,6.189,2.2,11.46,6.555,15.815c4.355,4.355,9.627,6.555,15.815,6.555
			c6.143,0,11.414-2.2,15.815-6.555c4.401-4.355,6.601-9.627,6.601-15.815c0-6.143-2.2-11.414-6.601-15.815
			c-4.401-4.401-9.672-6.601-15.815-6.601C308.236,94.474,302.964,96.674,298.609,101.075z"/>
		<path class="st1" d="M406.657,139.169c4.08,0,7.472-3.392,7.472-7.472c0-3.163-1.238-5.18-3.759-6.097
			c-5.318-1.971-4.034-1.513-9.214-3.301c-5.455-1.879-10.498-5.593-13.89-10.223c-2.017-2.75-3.026-6.143-3.026-10.223
			c0-6.143,2.2-11.414,6.601-15.815s9.672-6.601,15.861-6.601c6.143,0,11.414,2.2,15.815,6.601s6.601,9.672,6.601,15.815h-14.898
			c0-4.034-3.392-7.426-7.426-7.426c-4.08,0-7.472,3.392-7.472,7.472c0,2.659,1.054,4.676,3.209,6.051
			c4.401,2.842,3.896,2.292,9.168,3.851c5.684,1.65,10.819,5.18,14.348,9.718c2.063,2.659,3.117,6.097,3.117,10.268
			c0,6.189-2.2,11.46-6.601,15.861c-4.401,4.401-9.672,6.601-15.815,6.601c-6.189,0-11.46-2.2-15.861-6.601
			c-4.401-4.401-6.601-9.672-6.601-15.861h14.944c0,4.126,3.346,7.472,7.472,7.472L406.657,139.169z"/>
		<path class="st1" d="M480.278,79.942v14.761h-29.522v14.807h22.141v14.761h-22.141v14.761h29.522v14.807h-29.522h-14.807V79.942
			H480.278z"/>
		<path class="st1" d="M487.108,79.851h24.021c7.105,0,14.119,2.475,19.207,7.564c5.088,5.088,7.151,9.856,7.151,16.961v2.292
			c0,5.501-1.559,9.535-4.676,13.936c-3.117,4.401-5.73,5.684-10.589,7.518l16.686,25.717h-18.061l-18.887-28.88v28.88h-14.807
			L487.108,79.851z M512.504,115.469c3.071,0,4.63-0.779,6.784-2.934s2.934-4.63,2.934-7.701c0-3.026-0.779-5.043-2.934-7.243
			s-6.005-2.98-9.077-2.98h-8.297v20.812L512.504,115.469z"/>
		<path class="st1" d="M588.096,79.942v59.089h29.522v14.807h-44.328V79.942H588.096z"/>
		<path class="st1" d="M685.004,90.578c7.335,7.335,11.002,16.136,11.002,26.405s-3.667,19.07-11.002,26.359
			s-16.136,10.956-26.405,10.956c-10.268,0-19.07-3.667-26.359-10.956s-10.956-16.09-10.956-26.359s3.667-19.07,10.956-26.405
			c7.289-7.335,16.09-11.002,26.359-11.002C668.868,79.576,677.67,83.243,685.004,90.578z M642.785,101.075
			c-4.355,4.401-6.555,9.672-6.555,15.815c0,6.189,2.2,11.46,6.555,15.815c4.355,4.355,9.627,6.555,15.815,6.555
			c6.143,0,11.414-2.2,15.815-6.555c4.401-4.355,6.601-9.627,6.601-15.815c0-6.143-2.2-11.414-6.601-15.815
			c-4.401-4.401-9.672-6.601-15.815-6.601C652.411,94.474,647.14,96.674,642.785,101.075z"/>
		<path class="st1" d="M719.798,80.172c9.902,0,18.199,8.206,18.382,18.016c0,1.971-0.688,4.263-1.284,6.097
			c8.435,3.667,15.999,12.01,15.999,23.7c0,7.06-2.521,13.111-7.564,18.153c-5.043,5.043-11.094,7.564-18.153,7.564h-25.717V80.172
			h18.382H719.798z M719.798,103.688c2.475,0,4.447-1.879,4.447-4.309c0-2.475-1.971-4.538-4.447-4.538h-3.667v8.847H719.798z
			 M738.18,128.03c0-3.071-1.1-5.684-3.255-7.839s-4.768-2.292-7.793-2.292H716.13v21.087h11.002
			C733.183,138.986,738.18,134.035,738.18,128.03z"/>
		<path class="st1" d="M820.327,90.578c7.335,7.335,11.002,16.136,11.002,26.405s-3.667,19.07-11.002,26.359
			s-16.136,10.956-26.404,10.956c-10.268,0-19.07-3.667-26.359-10.956c-7.289-7.289-10.956-16.09-10.956-26.359
			s3.667-19.07,10.956-26.405c7.289-7.335,16.09-11.002,26.359-11.002C804.191,79.576,812.993,83.243,820.327,90.578z
			 M778.108,101.075c-4.355,4.401-6.555,9.672-6.555,15.815c0,6.189,2.2,11.46,6.555,15.815c4.355,4.355,9.627,6.555,15.815,6.555
			c6.143,0,11.414-2.2,15.815-6.555c4.401-4.355,6.601-9.627,6.601-15.815c0-6.143-2.2-11.414-6.601-15.815
			c-4.401-4.401-9.672-6.601-15.815-6.601C787.734,94.474,782.463,96.674,778.108,101.075z"/>
	</g>
</g>
</svg>