<!-- Generator: Adobe Illustrator 19.2.1, SVG Export Plug-In  -->
<svg version="1.1"
	 xmlns="http://www.w3.org/2000/svg" xmlns:xlink="http://www.w3.org/1999/xlink" xmlns:a="http://ns.adobe.com/AdobeSVGViewerExtensions/3.0/"
	 x="0px" y="0px" width="2015.022px" height="647.549px" viewBox="0 0 2015.022 647.549"
	 style="enable-background:new 0 0 2015.022 647.549;" xml:space="preserve">
<style type="text/css">
	.st0{fill:#231F20;}
	.st1{fill:#A2A2A2;}
	.st2{fill:#C3002F;}
	.st3{fill:#BE0E2F;stroke:#C3002F;stroke-width:4;stroke-miterlimit:10;}
</style>
<defs>
</defs>
<g>
	<g>
		<path class="st0" d="M81.277,448.429c-6.403,14.58-12.983,28.988-19.563,43.571H0l130.007-291.316L260.37,492h-61.891
			c-6.403-14.404-12.805-28.991-19.208-43.395H81.632L81.277,448.429z M155.795,397.92l-25.254-59.581l-25.432,59.581H155.795z"/>
		<path class="st0" d="M619.446,206.02v115.246v57.623c0,31.836-11.204,59.046-33.791,81.634
			c-22.587,22.585-49.798,33.788-81.455,33.788c-31.835,0-59.046-11.203-81.632-33.788c-22.587-22.588-33.791-49.798-33.791-81.634
			v-57.623V206.02h57.801v115.246v51.576v5.871c0,15.827,5.691,29.343,16.896,40.549c11.204,11.203,24.721,16.894,40.549,16.894
			c15.651,0,29.167-5.691,40.549-16.894c11.382-11.206,17.073-24.723,17.073-40.549v-5.871v-51.576V206.02H619.446z"/>
		<path class="st0" d="M819.703,364.485V206.02h57.445v292.027L705.169,334.071v158.641h-57.445V200.685L819.703,364.485z"/>
		<path class="st0" d="M1149.789,205.309c19.919,0,38.593,3.733,56.2,11.382c17.607,7.649,33.08,17.961,46.418,30.946
			l-40.905,40.905c-17.251-17.073-37.704-25.61-61.358-25.61c-24.01,0-44.462,8.537-61.358,25.61
			c-16.896,17.073-25.432,37.528-25.432,61.356c0,24.011,8.537,44.465,25.432,61.359c16.896,16.894,37.348,25.431,61.358,25.431
			s44.462-8.537,61.536-25.61l40.905,40.908c-13.339,13.158-28.811,23.476-46.418,31.122c-17.607,7.646-36.281,11.382-56.2,11.382
			c-39.838,0-73.985-14.228-102.263-42.504c-28.278-28.28-42.506-62.426-42.506-102.264s14.228-73.985,42.506-102.441
			c28.278-28.456,62.425-42.684,102.263-42.684L1149.789,205.309z"/>
		<path class="st0" d="M1331.195,206.02v229.245h114.534v57.447H1273.75V206.02H1331.195z"/>
		<path class="st0" d="M1467.071,206.02h57.445v286.692h-57.445V206.02z"/>
		<path class="st0" d="M1690.448,205.309c19.919,0,38.593,3.733,56.2,11.382c17.607,7.649,33.08,17.961,46.418,30.946
			l-40.905,40.905c-17.251-17.073-37.704-25.61-61.358-25.61c-24.01,0-44.462,8.537-61.358,25.61
			c-16.896,17.073-25.432,37.528-25.432,61.356c0,24.011,8.537,44.465,25.432,61.359c16.896,16.894,37.348,25.431,61.358,25.431
			s44.462-8.537,61.536-25.61l40.905,40.908c-13.339,13.158-28.811,23.476-46.418,31.122c-17.607,7.646-36.281,11.382-56.2,11.382
			c-39.838,0-73.985-14.228-102.263-42.504c-28.278-28.28-42.506-62.426-42.506-102.264s14.228-73.985,42.506-102.441
			c28.278-28.456,62.425-42.684,102.263-42.684L1690.448,205.309z"/>
		<path class="st0" d="M1871.854,206.02v108.843l63.136-108.843h66.337l-84.656,145.659l98.35,141.032h-69.894l-73.274-105.286
			v105.286h-57.445V206.02H1871.854z"/>
	</g>
	<g>
		<path class="st1" d="M833.181,40.406v128.273h-7.815V40.406h-30.114v-7.814h68.043v7.814H833.181z"/>
		<path class="st1" d="M941.25,161.245c-6.99,5.845-16.201,8.767-27.636,8.767c-11.055,0-20.269-2.983-27.636-8.958
			c-7.752-6.48-11.627-15.247-11.627-26.302V32.592h7.624v102.16c0,8.769,3.174,15.63,9.53,20.585
			c5.843,4.575,13.214,6.861,22.109,6.861c8.767,0,16.135-2.35,22.109-7.052c6.48-5.08,9.72-11.88,9.72-20.394V32.592h7.814v102.16
			C953.257,145.806,949.255,154.64,941.25,161.245z"/>
		<path class="st1" d="M1027.777,168.678V32.592h65.375v7.814h-57.56v49.557h57.56v8.386h-57.56v62.516h57.56v7.814H1027.777z"/>
		<path class="st1" d="M1199.507,148.093c-11.436,13.724-26.368,20.585-44.79,20.585h-45.362V32.592h45.362
			c18.297,0,33.164,6.861,44.599,20.585c10.798,12.834,16.201,28.589,16.201,47.267
			C1215.517,119.251,1210.18,135.134,1199.507,148.093z M1193.789,58.513c-9.911-12.197-22.937-18.297-39.072-18.297h-37.738
			v120.648h37.738c13.976,0,26.112-5.21,36.404-15.63c11.055-11.18,16.582-26.111,16.582-44.791
			C1207.702,83.799,1203.062,69.824,1193.789,58.513z"/>
		<path class="st1" d="M1296.709,161.245c-6.99,5.845-16.201,8.767-27.636,8.767c-11.055,0-20.269-2.983-27.636-8.958
			c-7.752-6.48-11.627-15.247-11.627-26.302V32.592h7.624v102.16c0,8.769,3.174,15.63,9.53,20.585
			c5.843,4.575,13.214,6.861,22.109,6.861c8.767,0,16.135-2.35,22.109-7.052c6.48-5.08,9.72-11.88,9.72-20.394V32.592h7.814v102.16
			C1308.716,145.806,1304.714,154.64,1296.709,161.245z"/>
		<path class="st1" d="M1439.274,160.673c-7.118,5.212-16.773,8.386-28.971,9.53c-1.4,0.125-2.924,0.22-4.574,0.285
			c-1.653,0.063-3.368,0.096-5.146,0.096c-20.584,0-37.357-6.48-50.317-19.441c-13.089-13.085-19.632-29.923-19.632-50.508
			c0-20.584,6.48-37.357,19.441-50.318c13.085-13.085,29.923-19.631,50.508-19.631c11.689,0,22.234,1.716,31.639,5.147
			c5.59,2.162,10.989,5.273,16.201,9.339v9.72c-5.337-4.447-11.183-8.005-17.535-10.673c-9.658-3.938-19.759-5.908-30.305-5.908
			c-18.044,0-32.91,5.845-44.599,17.534c-11.692,11.692-17.535,26.622-17.535,44.791c0,18.172,5.781,33.039,17.344,44.599
			c11.689,11.692,26.618,17.535,44.79,17.535c11.308,0,21.156-2.032,29.543-6.1c4.828-2.411,10.927-6.289,18.297-11.625v8.958
			L1439.274,160.673z"/>
		<path class="st1" d="M1551.918,168.678l-15.629-40.788h-61.944l-15.819,40.788h-7.624l54.321-140.47l54.51,140.47H1551.918z
			 M1505.222,48.03l-27.827,72.046h55.654L1505.222,48.03z"/>
		<path class="st1" d="M1670.279,160.673c-7.118,5.212-16.773,8.386-28.971,9.53c-1.4,0.125-2.924,0.22-4.574,0.285
			c-1.653,0.063-3.368,0.096-5.146,0.096c-20.584,0-37.357-6.48-50.317-19.441c-13.089-13.085-19.632-29.923-19.632-50.508
			c0-20.584,6.48-37.357,19.441-50.318c13.085-13.085,29.923-19.631,50.508-19.631c11.689,0,22.234,1.716,31.639,5.147
			c5.59,2.162,10.989,5.273,16.201,9.339v9.72c-5.337-4.447-11.183-8.005-17.535-10.673c-9.658-3.938-19.759-5.908-30.305-5.908
			c-18.044,0-32.91,5.845-44.599,17.534c-11.692,11.692-17.535,26.622-17.535,44.791c0,18.172,5.781,33.039,17.344,44.599
			c11.689,11.692,26.618,17.535,44.79,17.535c11.308,0,21.156-2.032,29.543-6.1c4.828-2.411,10.927-6.289,18.297-11.625v8.958
			L1670.279,160.673z"/>
		<path class="st1" d="M1690.674,168.678V32.592h7.624v136.087H1690.674z"/>
		<path class="st1" d="M1842.577,150.953c-13.088,13.089-29.923,19.631-50.508,19.631c-20.584,0-37.357-6.48-50.317-19.441
			c-13.089-13.085-19.632-29.923-19.632-50.508c0-20.584,6.48-37.357,19.441-50.318c13.085-13.085,29.923-19.631,50.508-19.631
			c20.457,0,37.292,6.48,50.508,19.441c13.086,13.089,19.632,29.924,19.632,50.508
			C1862.209,121.22,1855.663,137.992,1842.577,150.953z M1837.05,55.844c-11.692-11.689-26.684-17.534-44.981-17.534
			c-18.044,0-32.91,5.845-44.599,17.534c-11.692,11.692-17.535,26.622-17.535,44.791c0,18.172,5.781,33.039,17.344,44.599
			c11.689,11.692,26.618,17.535,44.79,17.535c18.297,0,33.289-5.719,44.981-17.155c11.561-11.561,17.344-26.555,17.344-44.98
			C1854.394,82.338,1848.611,67.408,1837.05,55.844z M1788.829,24.969l-3.621-3.622L1806.364,0l3.621,3.811L1788.829,24.969z"/>
		<path class="st1" d="M1891.559,53.177v115.501h-7.624V31.639l101.588,119.123V32.592h7.814v138.373L1891.559,53.177z"/>
	</g>
	<g>
		<path class="st2" d="M74.372,537.333v13.427c-9.362-4.593-17.971-6.889-25.838-6.889c-10.087,0-18.581,3.261-25.492,9.773
			c-6.911,6.517-10.362,14.516-10.362,24.002c0,9.672,3.539,17.737,10.6,24.209c7.07,6.469,15.91,9.702,26.546,9.702
			c7.725,0,15.91-2.428,24.546-7.29v13.564c-7.867,4.177-16.387,6.269-25.563,6.269c-13.45,0-24.944-4.557-34.491-13.657
			C4.778,601.343,0,590.366,0,577.513c0-12.622,4.69-23.43,14.078-32.421c9.38-8.995,20.688-13.485,33.908-13.485
			C56.489,531.607,65.275,533.515,74.372,537.333z"/>
		<path class="st2" d="M134.691,564.935h11.857v56.237h-11.857v-11.18c-5.778,8.495-12.927,12.746-21.475,12.746
			c-7.397,0-13.733-2.907-18.971-8.725c-5.256-5.817-7.876-12.883-7.876-21.201c0-7.862,2.637-14.733,7.928-20.617
			c5.301-5.889,11.521-8.826,18.653-8.826c4.398,0,8.583,1.208,12.538,3.61c3.955,2.411,7.026,5.543,9.202,9.406V564.935z
			 M136.329,593.224c0-5.132-1.84-9.534-5.531-13.189c-3.69-3.659-8.105-5.485-13.246-5.485c-5.008,0-9.379,1.818-13.113,5.455
			c-3.735,3.632-5.601,7.902-5.601,12.808c0,5.318,1.814,9.844,5.459,13.57c3.646,3.725,8.061,5.583,13.255,5.583
			c5.141,0,9.556-1.845,13.246-5.552C134.488,602.71,136.329,598.312,136.329,593.224z"/>
		<path class="st2" d="M163.246,621.172v-56.237h11.724v8.659c2.779-3.548,5.425-6.136,7.946-7.773
			c2.522-1.633,5.415-2.451,8.68-2.451c4.283,0,7.627,0.929,10.06,2.792c2.434,1.867,4.487,4.84,6.168,8.932
			c2.973-4.092,5.84-7.066,8.592-8.932c2.76-1.863,5.964-2.792,9.618-2.792c4.46,0,8.317,1.668,11.556,5.008
			c3.238,3.341,4.867,7.305,4.867,11.897v40.898h-11.866V583.34c0-6.225-3.071-9.34-9.228-9.34c-3.505,0-6.478,1.593-8.929,4.774
			c-2.434,3.177-3.654,7.114-3.654,11.791v30.607h-11.857v-36.266c0-7.362-3.026-11.042-9.061-11.042
			c-3.602,0-6.645,1.504-9.15,4.504c-2.486,2.995-3.743,6.698-3.743,11.104v31.7H163.246z"/>
		<path class="st2" d="M270.808,564.935v11.318c5.672-8.588,12.936-12.884,21.785-12.884c7.256,0,13.503,2.893,18.75,8.689
			c5.247,5.795,7.858,12.711,7.858,20.754c0,8.14-2.655,15.157-7.964,21.064c-5.309,5.907-11.565,8.862-18.785,8.862
			c-4.168,0-8.177-1.088-12.007-3.269c-3.849-2.185-7-5.34-9.495-9.477v37.557h-11.866v-82.614H270.808z M306.795,592.813
			c0-4.951-1.849-9.277-5.575-12.981c-3.716-3.708-8.087-5.557-13.131-5.557c-5.123,0-9.556,1.84-13.3,5.522
			c-3.742,3.676-5.619,8.016-5.619,13.016c0,5.141,1.849,9.592,5.548,13.361c3.699,3.774,8.071,5.659,13.105,5.659
			c5.212,0,9.681-1.862,13.396-5.592C304.946,602.52,306.795,598.042,306.795,592.813z"/>
		<path class="st2" d="M332.429,564.935h11.857v31.696c0,9.773,4.3,14.653,12.892,14.653c3.814,0,6.831-1.306,9.061-3.916
			c2.221-2.614,3.336-6.189,3.336-10.737v-31.696h11.724v33.607c0,7.044-2.291,12.839-6.884,17.379
			c-4.593,4.548-10.451,6.817-17.583,6.817c-7.273,0-13.157-2.27-17.661-6.817c-4.486-4.539-6.742-10.473-6.742-17.79V564.935z"/>
		<path class="st2" d="M429.55,571.616l-7.893,6.955c-2.052-1.455-3.823-2.557-5.327-3.309c-1.495-0.747-3.265-1.119-5.318-1.119
			c-4.805,0-7.221,1.765-7.221,5.313c0,2.548,3.053,5.012,9.176,7.414c6.106,2.394,10.494,5.022,13.175,7.885
			c2.69,2.858,4.027,6.308,4.027,10.348c0,4.721-1.929,8.835-5.787,12.362c-3.875,3.513-8.415,5.273-13.636,5.273
			c-7.955,0-14.485-3.681-19.564-11.042l9.335-4.5c3.274,3.186,6.681,4.77,10.229,4.77c2.451,0,4.601-0.669,6.442-2.004
			c1.84-1.346,2.76-2.902,2.76-4.672c0-3.137-3.229-5.96-9.671-8.459c-6.469-2.509-10.928-5.04-13.397-7.606
			c-2.486-2.566-3.716-5.734-3.716-9.508c0-4.676,1.752-8.57,5.273-11.68c3.531-3.11,7.946-4.667,13.264-4.667
			S422.975,566.117,429.55,571.616z"/>
		<path class="st2" d="M474.544,534.47h12.521l27.27,61.501l27.466-61.501h12.626l-40.251,89.631L474.544,534.47z"/>
		<path class="st2" d="M562.746,546.465c0-2.456,0.902-4.579,2.726-6.372c1.814-1.796,3.973-2.694,6.477-2.694
			c2.46,0,4.566,0.898,6.372,2.694c1.796,1.792,2.689,3.916,2.689,6.372c0,2.499-0.893,4.632-2.689,6.406
			c-1.806,1.774-3.912,2.659-6.372,2.659c-2.503,0-4.663-0.885-6.477-2.659C563.649,551.096,562.746,548.964,562.746,546.465z
			 M566.082,564.935h11.733v56.237h-11.733V564.935z"/>
		<path class="st2" d="M608.75,564.935v11.592c2.637-4.636,5.22-7.985,7.742-10.056c2.522-2.067,5.804-3.102,9.848-3.102
			c1.133,0,2.778,0.27,4.911,0.818l-3.62,11.862c-2.273-0.456-3.769-0.681-4.494-0.681c-4,0-7.354,1.394-10.052,4.19
			c-2.708,2.796-4.062,6.283-4.062,10.464v31.151h-11.857v-56.237H608.75z"/>
		<path class="st2" d="M648.63,548.575h11.866v16.36h11.716v10.84h-11.716v45.398H648.63v-45.398h-9.335v-10.972h9.335V548.575z"/>
		<path class="st2" d="M680.599,564.935h11.849v31.696c0,9.773,4.309,14.653,12.892,14.653c3.814,0,6.831-1.306,9.07-3.916
			c2.212-2.614,3.336-6.189,3.336-10.737v-31.696h11.724v33.607c0,7.044-2.292,12.839-6.884,17.379
			c-4.592,4.548-10.45,6.817-17.582,6.817c-7.273,0-13.157-2.27-17.661-6.817c-4.495-4.539-6.743-10.473-6.743-17.79V564.935z"/>
		<path class="st2" d="M791.152,564.935h11.857v56.237h-11.857v-11.18c-5.778,8.495-12.927,12.746-21.466,12.746
			c-7.415,0-13.733-2.907-18.989-8.725c-5.247-5.817-7.867-12.883-7.867-21.201c0-7.862,2.646-14.733,7.937-20.617
			c5.292-5.889,11.503-8.826,18.635-8.826c4.415,0,8.601,1.208,12.547,3.61c3.946,2.411,7.026,5.543,9.202,9.406V564.935z
			 M792.781,593.224c0-5.132-1.84-9.534-5.522-13.189c-3.681-3.659-8.105-5.485-13.255-5.485c-4.999,0-9.379,1.818-13.104,5.455
			c-3.726,3.632-5.601,7.902-5.601,12.808c0,5.318,1.823,9.844,5.459,13.57c3.646,3.725,8.061,5.583,13.246,5.583
			c5.15,0,9.575-1.845,13.255-5.552C790.94,602.71,792.781,598.312,792.781,593.224z"/>
		<path class="st2" d="M822.44,532.696h11.857v88.477H822.44V532.696z"/>
	</g>
	<g>
		<path class="st3" d="M936.199,534.741h4.895v62.176c-0.898,6.61-3.652,12.22-8.262,16.828c-5.507,5.508-12.158,8.262-19.95,8.262
			c-7.833,0-14.503-2.753-20.011-8.262c-5.508-5.506-8.262-12.157-8.262-19.949v-59.055h4.896v59.055
			c0,6.404,2.284,11.892,6.853,16.461c4.569,4.569,10.077,6.854,16.523,6.854c6.446,0,11.944-2.285,16.492-6.854
			c4.549-4.569,6.824-10.057,6.824-16.461V534.741z"/>
		<path class="st3" d="M1008.655,621.272l-11.566-31.944h-29.925l-11.627,31.944h-5.201l31.822-87.266l31.638,87.266H1008.655z
			 M995.314,584.494l-13.157-36.29l-13.219,36.29H995.314z"/>
		<path class="st3" d="M1039.131,534.741c14.239,0.082,25.274,4.059,33.108,11.933c8.649,8.69,12.974,19.135,12.974,31.333
			c0,12.281-4.325,22.745-12.974,31.394c-7.833,7.833-18.869,11.791-33.108,11.871h-16.033v-86.532H1039.131z M1027.994,539.82
			v76.434h11.076c12.443,0,22.255-3.467,29.436-10.403c7.669-7.67,11.505-16.952,11.505-27.844c0-10.852-3.836-20.134-11.505-27.844
			c-7.181-6.894-16.993-10.343-29.436-10.343H1027.994z"/>
	</g>
</g>
</svg>