<?xml version="1.0" encoding="utf-8"?>
<!-- Generator: Adobe Illustrator 23.0.5, SVG Export Plug-In . SVG Version: 6.00 Build 0)  -->
<svg version="1.1" id="Capa_1" xmlns="http://www.w3.org/2000/svg" xmlns:xlink="http://www.w3.org/1999/xlink" x="0px" y="0px"
	 viewBox="0 0 1156 242" style="enable-background:new 0 0 1156 242;" xml:space="preserve">
<style type="text/css">
	.st0{fill:#FFFFFF;}
	.st1{fill:#FF083D;}
</style>
<g>
	<g>
		<g>
			<path class="st0" d="M1041.47,116.99l-0.08-0.02c-7.33-1.6-11.82-2.84-11.82-7.94c0-4.97,4.11-8.05,10.73-8.05
				c6.38,0,10.34,3.37,10.34,8.8v2.22h6.63v-2.22c0-9.2-6.81-15.39-16.93-15.39c-10.41,0-17.41,5.91-17.41,14.71
				c0,10.6,9.79,12.74,17.03,14.33c7.57,1.68,11.86,2.9,11.86,8.32c0,5.32-4.47,8.9-11.13,8.9c-7.47,0-12.11-3.86-12.11-10.06v-2.22
				h-6.68v2.22c0,9.98,7.56,16.69,18.81,16.69c10.49,0,17.81-6.39,17.81-15.54C1058.51,120.81,1049.06,118.69,1041.47,116.99z"/>
			<path class="st0" d="M1081.7,94.95l-0.09-0.2l-0.09,0.2h-2.35l-21.93,51.76h7.18l5.84-13.71h23.09l5.94,13.71h7.24l-22.52-51.76
				H1081.7z M1073.01,126.49l8.65-20.47l8.88,20.47H1073.01z"/>
			<path class="st0" d="M1149.54,127.2l-0.53,1.46c-2.83,7.71-9.31,12.13-17.8,12.13c-11.55,0-19.62-8.18-19.62-19.9
				c0-11.78,8.07-20,19.62-20c8.22,0,14.57,4.14,17.41,11.35l0.55,1.41h6.93l-1.04-2.96c-3.55-10.13-12.7-16.42-23.86-16.42
				c-15.24,0-26.3,11.2-26.3,26.62c0,15.37,11.06,26.52,26.3,26.52c11.65,0,20.71-6.47,24.23-17.3l0.94-2.91H1149.54z"/>
		</g>
	</g>
	<g>
		<polygon class="st0" points="943.72,113.77 943.72,113.77 943.72,113.77 		"/>
		<path class="st0" d="M936.11,93c-0.97,2.56-0.09,4.94,0.31,7.37c0.9,0.25,1.79,0.5,2.69,0.75c-1.56-4.12-2.96-8.24,0.53-12.49
			c-3.29,0.91-5.74,2.18-7.35,3.82c0.11,1.09,0.21,2.18,0.32,3.26C933.43,94.2,934.19,92.59,936.11,93z"/>
		<path class="st0" d="M961.1,113.92c-3.99-1.57-3.48-0.12-14.66-6.51c-4.05-3.39-9.07-6.23-15.29-8.37
			c-0.13-4.4-1.53-8.68-2.18-13.03c-4.54,3.72-6.51,6.65-9.48,12.1c-1.99-1.58-11.12-3.69-24.25,1.39c4.85,0.33,7.81,1.13,7.45,2.4
			c-9.36,3.3-15.46,8.01-17.81,16.01c9.09-4.77,20.2-4.65,27.23-2.97c-2.63,3.69-2.24,7.04-1.92,8.59
			c-5.38-1.9-11.41-1.39-18.1-0.12c3.68-0.25,8.41,1.4,10.19,2.8c-8.34,6.49-12.99,12.47-16.18,19.82
			c4.31-4.94,6.61-10.21,19.01-13.81c-2.71,4.59-5.34,10.2-5.51,15.22c2.48-9,9.16-18.15,16.67-20.41c-1.8-1.51-3.68-2.59-5.66-3.34
			c1.87-5.81,3.88-5.98,5.93-4.51c-2.15,6.79,4.54,8.96,6.74,11.05c-1.11-2.5-6.17-7.54-1.88-8.43c7.3,1.97,8.7,0.21,11.61-0.59
			c-13.32,0.75-21.01-9.87-7.59-12.32c0.04-0.93,13.01,2.75,18.3,4.89c-2.13-1.24-3.94-2.51-4.55-3.87
			c0.36,0.25,0.87-0.01,1.54-0.78c-2.48-1.09-3.23-2.36-7.44-2.73c0.15,0.53,0.29,1.06,0.43,1.59c-4.86-1.15-9.72-2.31-14.59-3.46
			c1.72,1.02,2.68,2.11,2.5,3.3c-4.23,1.94-6.97,4.06-8.72,6.11c-5.54-2.31-15.37-1.99-22.08-0.98
			c0.45-5.62,11.22-10.07,18.56-10.09c-1.93-1.7-5.43-2.95-7.3-4.01c7.38-1.15,17.19,2.5,21.87,6.45c-1.64-2.05-3.4-4.04-3.2-6.91
			c1.97-4.18,4.19-5.73,6.41-7.38c-1.49,2.8-2.85,4.63-4.34,7.43c3.11,0.02,2.21,2.63,3.26,3.35c-0.6-0.62,0.22-2.21-0.09-3.92
			c-0.2-2.01,0.6-4.02,2.4-6.02c0.99,2.4,1.6,4.78,1.38,7.09c0.23,1.87-0.26,3.55-2.29,4.8c7.72-1.09,13.54,0.24,16.59,5.11
			c4.11,2.09,8.22,4.17,12.33,6.26c-1.08,0.59-1.33,0.75-1.72,1.27c1.46,1.9,2.53,2.68,3.5,2.9c-1.36,4.11-4.41,6.68-6.14,7.03
			c-17.06,2.51-26.6,5.08-35.62,22.13c-1.98-5.26-0.81-10.33,1.5-15.32c-8.75,8.92-5.29,16.04-0.07,22.89
			c4.43-19.13,14.64-26.51,34.93-27.6C955.67,127.35,964.61,116.06,961.1,113.92z"/>
	</g>
	<g>
		
			<rect x="991.78" y="86.09" transform="matrix(1 -1.190803e-03 1.190803e-03 1 -0.1226 1.1835)" class="st0" width="4.05" height="34.91"/>
		
			<rect x="987.78" y="121" transform="matrix(1 -1.190803e-03 1.190803e-03 1 -0.1642 1.1788)" class="st0" width="4.05" height="34.91"/>
	</g>
</g>
<g>
	<path class="st1" d="M32.24,109.26H3.98V54.8h6.38v48.69h21.88V109.26z"/>
	<path class="st1" d="M46.97,109.26h-6.38V54.8h6.38V109.26z"/>
	<path class="st1" d="M98.36,106.98c-4.03,2.13-9.04,3.19-15.04,3.19c-7.75,0-13.95-2.49-18.61-7.48
		c-4.66-4.99-6.99-11.53-6.99-19.64c0-8.71,2.62-15.75,7.86-21.12c5.24-5.37,11.89-8.05,19.94-8.05c5.17,0,9.44,0.75,12.84,2.24v6.8
		c-3.9-2.18-8.2-3.27-12.91-3.27c-6.25,0-11.32,2.09-15.21,6.27c-3.89,4.18-5.83,9.76-5.83,16.75c0,6.63,1.82,11.92,5.45,15.86
		c3.63,3.94,8.4,5.91,14.3,5.91c5.47,0,10.2-1.22,14.2-3.65V106.98z"/>
	<path class="st1" d="M138.32,109.26h-28.87V54.8h27.65v5.77h-21.27v18.12h19.67v5.74h-19.67v19.07h22.48V109.26z"/>
	<path class="st1" d="M192.71,109.26h-7.82l-28.03-43.41c-0.71-1.09-1.29-2.23-1.75-3.42h-0.23c0.2,1.17,0.3,3.66,0.3,7.48v39.35
		h-6.38V54.8h8.28l27.27,42.73c1.14,1.77,1.87,2.99,2.2,3.65h0.15c-0.25-1.57-0.38-4.24-0.38-8.01V54.8h6.38V109.26z"/>
	<path class="st1" d="M244.06,106.98c-4.03,2.13-9.04,3.19-15.04,3.19c-7.75,0-13.95-2.49-18.61-7.48
		c-4.66-4.99-6.99-11.53-6.99-19.64c0-8.71,2.62-15.75,7.86-21.12c5.24-5.37,11.89-8.05,19.94-8.05c5.17,0,9.44,0.75,12.84,2.24v6.8
		c-3.9-2.18-8.2-3.27-12.91-3.27c-6.25,0-11.32,2.09-15.21,6.27c-3.89,4.18-5.83,9.76-5.83,16.75c0,6.63,1.82,11.92,5.45,15.86
		c3.63,3.94,8.4,5.91,14.3,5.91c5.47,0,10.2-1.22,14.2-3.65V106.98z"/>
	<path class="st1" d="M261.53,109.26h-6.38V54.8h6.38V109.26z"/>
	<path class="st1" d="M318,109.26h-7.06l-5.77-15.27h-23.09l-5.43,15.27h-7.1l20.89-54.46h6.61L318,109.26z M303.08,88.26
		l-8.55-23.21c-0.28-0.76-0.56-1.98-0.84-3.65h-0.15c-0.25,1.54-0.55,2.76-0.87,3.65l-8.47,23.21H303.08z"/>
	<path class="st1" d="M352.64,60.57h-15.72v48.69h-6.38V60.57h-15.69V54.8h37.79V60.57z"/>
	<path class="st1" d="M401.03,87.23c0,15.29-6.9,22.94-20.7,22.94c-13.22,0-19.83-7.35-19.83-22.07V54.8h6.38v32.89
		c0,11.17,4.71,16.75,14.13,16.75c9.09,0,13.64-5.39,13.64-16.18V54.8h6.38V87.23z"/>
	<path class="st1" d="M453.67,109.26h-7.6l-9.12-15.27c-0.84-1.42-1.65-2.63-2.43-3.63c-0.79-1-1.59-1.82-2.41-2.45
		c-0.82-0.63-1.71-1.09-2.66-1.39c-0.95-0.29-2.02-0.44-3.21-0.44h-5.24v23.17h-6.38V54.8h16.26c2.38,0,4.58,0.3,6.59,0.89
		c2.01,0.6,3.76,1.5,5.24,2.72c1.48,1.22,2.64,2.73,3.48,4.54c0.84,1.81,1.25,3.93,1.25,6.36c0,1.9-0.28,3.64-0.85,5.22
		c-0.57,1.58-1.38,2.99-2.43,4.23c-1.05,1.24-2.32,2.3-3.8,3.17c-1.48,0.87-3.15,1.55-4.99,2.03v0.15c0.91,0.41,1.7,0.87,2.37,1.39
		c0.67,0.52,1.31,1.13,1.92,1.84c0.61,0.71,1.21,1.51,1.8,2.41c0.59,0.9,1.26,1.94,1.99,3.13L453.67,109.26z M421.01,60.57v19.75
		h8.66c1.6,0,3.07-0.24,4.42-0.72c1.35-0.48,2.53-1.17,3.51-2.07c0.99-0.9,1.76-2,2.32-3.3c0.56-1.3,0.84-2.77,0.84-4.39
		c0-2.91-0.94-5.18-2.83-6.82c-1.89-1.63-4.61-2.45-8.18-2.45H421.01z"/>
	<path class="st1" d="M503.31,109.26h-7.06l-5.77-15.27h-23.09l-5.43,15.27h-7.1l20.89-54.46h6.61L503.31,109.26z M488.39,88.26
		l-8.55-23.21c-0.28-0.76-0.56-1.98-0.84-3.65h-0.15c-0.25,1.54-0.55,2.76-0.87,3.65l-8.47,23.21H488.39z"/>
	<path class="st1" d="M508.78,107.06v-7.52c0.86,0.76,1.89,1.44,3.1,2.05c1.2,0.61,2.47,1.12,3.8,1.54
		c1.33,0.42,2.66,0.74,4.01,0.97c1.34,0.23,2.58,0.34,3.72,0.34c3.92,0,6.86-0.73,8.79-2.18c1.94-1.46,2.91-3.55,2.91-6.29
		c0-1.47-0.32-2.75-0.97-3.84c-0.65-1.09-1.54-2.08-2.68-2.98c-1.14-0.9-2.49-1.76-4.04-2.58c-1.56-0.82-3.23-1.69-5.03-2.6
		c-1.9-0.96-3.67-1.94-5.32-2.92c-1.65-0.99-3.08-2.08-4.29-3.27c-1.22-1.19-2.17-2.54-2.87-4.04c-0.7-1.51-1.04-3.27-1.04-5.3
		c0-2.48,0.54-4.64,1.63-6.48c1.09-1.84,2.52-3.35,4.29-4.54c1.77-1.19,3.79-2.08,6.06-2.66c2.27-0.58,4.58-0.87,6.93-0.87
		c5.37,0,9.28,0.65,11.74,1.94V63c-3.22-2.23-7.34-3.34-12.38-3.34c-1.39,0-2.79,0.15-4.18,0.44c-1.39,0.29-2.63,0.77-3.72,1.42
		c-1.09,0.66-1.98,1.51-2.66,2.54c-0.68,1.04-1.03,2.3-1.03,3.8c0,1.39,0.26,2.6,0.78,3.61c0.52,1.01,1.28,1.94,2.3,2.77
		c1.01,0.84,2.25,1.65,3.7,2.43c1.46,0.79,3.13,1.65,5.03,2.58c1.95,0.96,3.8,1.98,5.55,3.04c1.75,1.06,3.28,2.24,4.6,3.53
		c1.32,1.29,2.36,2.72,3.13,4.29c0.77,1.57,1.16,3.37,1.16,5.39c0,2.68-0.53,4.96-1.58,6.82c-1.05,1.86-2.47,3.37-4.25,4.54
		c-1.79,1.17-3.84,2.01-6.17,2.53c-2.33,0.52-4.79,0.78-7.37,0.78c-0.86,0-1.92-0.07-3.19-0.21c-1.27-0.14-2.56-0.34-3.87-0.61
		c-1.32-0.27-2.56-0.59-3.74-0.99C510.43,107.98,509.49,107.54,508.78,107.06z"/>
	<path class="st0" d="M583.38,92.61v16.65H572.5V60.92h17.06c12.18,0,18.27,5.14,18.27,15.4c0,4.85-1.75,8.78-5.24,11.78
		c-3.5,3-8.16,4.5-14.01,4.5H583.38z M583.38,69.28v15.07h4.28c5.8,0,8.7-2.54,8.7-7.62c0-4.97-2.9-7.45-8.7-7.45H583.38z"/>
	<path class="st0" d="M635.33,110.1c-6.92,0-12.56-2.25-16.92-6.76c-4.36-4.51-6.54-10.38-6.54-17.61c0-7.64,2.21-13.82,6.64-18.54
		c4.43-4.72,10.29-7.08,17.6-7.08c6.9,0,12.48,2.26,16.74,6.77c4.26,4.52,6.39,10.47,6.39,17.87c0,7.6-2.21,13.72-6.62,18.37
		C648.19,107.78,642.43,110.1,635.33,110.1z M635.8,69.49c-3.82,0-6.85,1.43-9.1,4.3c-2.25,2.87-3.37,6.66-3.37,11.38
		c0,4.79,1.12,8.57,3.37,11.36c2.25,2.79,5.19,4.18,8.83,4.18c3.75,0,6.73-1.35,8.93-4.06c2.2-2.71,3.3-6.47,3.3-11.28
		c0-5.01-1.07-8.91-3.2-11.7C642.43,70.88,639.51,69.49,635.8,69.49z"/>
	<path class="st0" d="M707.8,109.26h-12.51l-7.52-12.44c-0.56-0.94-1.1-1.79-1.62-2.53c-0.52-0.74-1.04-1.38-1.57-1.9
		c-0.53-0.53-1.08-0.93-1.65-1.21c-0.57-0.28-1.2-0.42-1.87-0.42h-2.93v18.51h-10.89V60.92h17.26c11.73,0,17.6,4.38,17.6,13.15
		c0,1.69-0.26,3.24-0.78,4.67c-0.52,1.43-1.25,2.71-2.19,3.86c-0.94,1.15-2.08,2.13-3.42,2.97c-1.34,0.83-2.83,1.48-4.47,1.95v0.13
		c0.72,0.23,1.42,0.59,2.09,1.1c0.67,0.51,1.33,1.1,1.96,1.77c0.63,0.67,1.23,1.4,1.8,2.17c0.57,0.77,1.1,1.53,1.57,2.28
		L707.8,109.26z M678.14,69.08v13.45h4.72c2.34,0,4.21-0.67,5.63-2.02c1.44-1.37,2.16-3.07,2.16-5.09c0-4.22-2.53-6.34-7.58-6.34
		H678.14z"/>
	<path class="st0" d="M47.77,184.87c-4.47,2.16-10.31,3.25-17.52,3.25c-9.4,0-16.79-2.76-22.18-8.29S0,166.94,0,157.73
		c0-9.8,3.03-17.75,9.08-23.84c6.05-6.1,13.91-9.14,23.56-9.14c5.98,0,11.02,0.75,15.13,2.26v13.29c-4.1-2.45-8.77-3.67-14.01-3.67
		c-5.75,0-10.4,1.81-13.93,5.43c-3.53,3.62-5.3,8.52-5.3,14.7c0,5.93,1.67,10.65,5,14.16c3.33,3.52,7.82,5.28,13.46,5.28
		c5.38,0,10.31-1.31,14.78-3.93V184.87z"/>
	<path class="st0" d="M83.28,188.11c-8.77,0-15.92-2.86-21.45-8.57c-5.53-5.71-8.29-13.15-8.29-22.33c0-9.69,2.81-17.52,8.42-23.5
		c5.61-5.98,13.05-8.97,22.3-8.97c8.75,0,15.82,2.86,21.22,8.59c5.4,5.73,8.1,13.27,8.1,22.65c0,9.63-2.8,17.39-8.4,23.29
		C99.58,185.17,92.28,188.11,83.28,188.11z M83.88,136.63c-4.84,0-8.69,1.82-11.54,5.45c-2.85,3.63-4.27,8.44-4.27,14.42
		c0,6.07,1.42,10.87,4.27,14.4c2.85,3.53,6.58,5.3,11.19,5.3c4.76,0,8.53-1.72,11.32-5.15c2.79-3.43,4.19-8.2,4.19-14.29
		c0-6.35-1.35-11.29-4.06-14.83C92.28,138.39,88.58,136.63,83.88,136.63z"/>
	<path class="st0" d="M175.14,187.05h-15.85l-9.53-15.77c-0.71-1.2-1.4-2.26-2.05-3.2s-1.32-1.74-1.99-2.41
		c-0.67-0.67-1.37-1.18-2.09-1.54c-0.73-0.36-1.52-0.53-2.37-0.53h-3.72v23.46h-13.8v-61.27h21.88c14.87,0,22.3,5.55,22.3,16.66
		c0,2.14-0.33,4.11-0.98,5.92c-0.66,1.81-1.58,3.44-2.78,4.89c-1.2,1.45-2.64,2.71-4.34,3.76s-3.58,1.88-5.66,2.48v0.17
		c0.91,0.28,1.79,0.75,2.65,1.39c0.85,0.64,1.68,1.39,2.48,2.24s1.56,1.77,2.29,2.76c0.73,0.98,1.39,1.94,1.99,2.88L175.14,187.05z
		 M137.54,136.11v17.05h5.98c2.96,0,5.34-0.85,7.14-2.56c1.82-1.74,2.73-3.89,2.73-6.45c0-5.36-3.2-8.03-9.61-8.03H137.54z"/>
	<path class="st0" d="M232.27,187.05h-15.85l-9.53-15.77c-0.71-1.2-1.4-2.26-2.05-3.2s-1.32-1.74-1.99-2.41
		c-0.67-0.67-1.37-1.18-2.09-1.54c-0.73-0.36-1.52-0.53-2.37-0.53h-3.72v23.46h-13.8v-61.27h21.88c14.87,0,22.3,5.55,22.3,16.66
		c0,2.14-0.33,4.11-0.98,5.92c-0.66,1.81-1.58,3.44-2.78,4.89c-1.2,1.45-2.64,2.71-4.34,3.76c-1.69,1.05-3.58,1.88-5.66,2.48v0.17
		c0.91,0.28,1.79,0.75,2.65,1.39c0.85,0.64,1.68,1.39,2.48,2.24s1.56,1.77,2.29,2.76c0.73,0.98,1.39,1.94,1.99,2.88L232.27,187.05z
		 M194.67,136.11v17.05h5.98c2.96,0,5.34-0.85,7.14-2.56c1.82-1.74,2.73-3.89,2.73-6.45c0-5.36-3.2-8.03-9.61-8.03H194.67z"/>
	<path class="st0" d="M274.74,187.05H238v-61.27h35.34v11.24H251.8v13.63h20.04v11.19H251.8v14.01h22.95V187.05z"/>
	<path class="st0" d="M281.75,184.7v-13.67c2.48,2.08,5.17,3.64,8.08,4.68c2.91,1.04,5.84,1.56,8.8,1.56c1.74,0,3.25-0.16,4.55-0.47
		c1.3-0.31,2.38-0.75,3.25-1.3c0.87-0.56,1.52-1.21,1.94-1.97c0.43-0.75,0.64-1.57,0.64-2.46c0-1.2-0.34-2.26-1.03-3.2
		c-0.68-0.94-1.62-1.81-2.8-2.61c-1.18-0.8-2.58-1.57-4.21-2.31c-1.62-0.74-3.38-1.5-5.26-2.26c-4.79-1.99-8.35-4.43-10.7-7.31
		c-2.35-2.88-3.52-6.35-3.52-10.43c0-3.19,0.64-5.93,1.92-8.22s3.03-4.18,5.23-5.66c2.21-1.48,4.76-2.57,7.67-3.27
		c2.91-0.7,5.98-1.05,9.23-1.05c3.19,0,6.02,0.19,8.48,0.58c2.46,0.38,4.74,0.98,6.81,1.77v12.78c-1.03-0.71-2.14-1.34-3.35-1.88
		c-1.21-0.54-2.46-0.99-3.74-1.35c-1.28-0.36-2.56-0.62-3.82-0.79c-1.27-0.17-2.47-0.26-3.61-0.26c-1.57,0-2.99,0.15-4.27,0.45
		c-1.28,0.3-2.36,0.72-3.25,1.26s-1.57,1.19-2.05,1.94s-0.73,1.6-0.73,2.54c0,1.03,0.27,1.94,0.81,2.76
		c0.54,0.81,1.31,1.58,2.31,2.31c1,0.73,2.21,1.44,3.63,2.14c1.42,0.7,3.03,1.42,4.83,2.16c2.45,1.03,4.65,2.12,6.6,3.27
		c1.95,1.15,3.62,2.46,5.02,3.91c1.4,1.45,2.46,3.11,3.2,4.98c0.74,1.87,1.11,4.04,1.11,6.52c0,3.42-0.65,6.29-1.94,8.61
		c-1.3,2.32-3.05,4.2-5.28,5.64c-2.22,1.44-4.81,2.47-7.75,3.1c-2.95,0.63-6.06,0.94-9.34,0.94c-3.36,0-6.56-0.28-9.59-0.85
		C286.6,186.69,283.97,185.84,281.75,184.7z"/>
	<path class="st0" d="M347.42,165.94v21.11h-13.8v-61.27h21.62c15.44,0,23.16,6.51,23.16,19.53c0,6.15-2.22,11.13-6.64,14.93
		c-4.43,3.8-10.35,5.7-17.75,5.7H347.42z M347.42,136.37v19.1h5.43c7.35,0,11.02-3.22,11.02-9.66c0-6.3-3.67-9.44-11.02-9.44H347.42
		z"/>
	<path class="st0" d="M413.27,188.11c-8.77,0-15.92-2.86-21.45-8.57c-5.53-5.71-8.29-13.15-8.29-22.33c0-9.69,2.81-17.52,8.42-23.5
		c5.61-5.98,13.05-8.97,22.3-8.97c8.75,0,15.82,2.86,21.22,8.59c5.4,5.73,8.1,13.27,8.1,22.65c0,9.63-2.8,17.39-8.4,23.29
		C429.57,185.17,422.27,188.11,413.27,188.11z M413.87,136.63c-4.84,0-8.69,1.82-11.54,5.45c-2.85,3.63-4.27,8.44-4.27,14.42
		c0,6.07,1.42,10.87,4.27,14.4c2.85,3.53,6.58,5.3,11.19,5.3c4.76,0,8.53-1.72,11.32-5.15c2.79-3.43,4.19-8.2,4.19-14.29
		c0-6.35-1.35-11.29-4.06-14.83C422.27,138.39,418.57,136.63,413.87,136.63z"/>
	<path class="st0" d="M508.85,187.05h-13.93l-25.25-38.5c-1.48-2.25-2.51-3.95-3.08-5.08h-0.17c0.23,2.16,0.34,5.47,0.34,9.91v33.67
		h-13.03v-61.27h14.87l24.31,37.3c1.11,1.68,2.14,3.35,3.08,5h0.17c-0.23-1.42-0.34-4.23-0.34-8.42v-33.88h13.03V187.05z"/>
	<path class="st0" d="M522.87,187.05v-61.27h21.71c21.76,0,32.64,9.96,32.64,29.87c0,9.54-2.97,17.16-8.91,22.86
		c-5.94,5.7-13.85,8.55-23.74,8.55H522.87z M536.67,137.01v38.84h6.84c5.98,0,10.67-1.79,14.08-5.38s5.11-8.47,5.11-14.66
		c0-5.84-1.69-10.43-5.06-13.78c-3.38-3.35-8.11-5.02-14.21-5.02H536.67z"/>
	<path class="st0" d="M624.13,187.05h-36.75v-61.27h35.34v11.24h-21.54v13.63h20.04v11.19h-20.04v14.01h22.95V187.05z"/>
	<path class="st0" d="M689.08,187.05h-13.93l-25.25-38.5c-1.48-2.25-2.51-3.95-3.08-5.08h-0.17c0.23,2.16,0.34,5.47,0.34,9.91v33.67
		h-13.03v-61.27h14.87l24.31,37.3c1.11,1.68,2.14,3.35,3.08,5h0.17c-0.23-1.42-0.34-4.23-0.34-8.42v-33.88h13.03V187.05z"/>
	<path class="st0" d="M747.02,184.87c-4.47,2.16-10.31,3.25-17.52,3.25c-9.4,0-16.79-2.76-22.18-8.29
		c-5.38-5.53-8.08-12.89-8.08-22.09c0-9.8,3.03-17.75,9.08-23.84c6.05-6.1,13.91-9.14,23.57-9.14c5.98,0,11.02,0.75,15.13,2.26
		v13.29c-4.1-2.45-8.77-3.67-14.01-3.67c-5.75,0-10.4,1.81-13.93,5.43c-3.53,3.62-5.3,8.52-5.3,14.7c0,5.93,1.67,10.65,5,14.16
		c3.33,3.52,7.82,5.28,13.46,5.28c5.38,0,10.31-1.31,14.78-3.93V184.87z"/>
	<path class="st0" d="M771.5,187.05h-13.8v-61.27h13.8V187.05z"/>
	<path class="st0" d="M839.31,187.05h-15.04l-4.36-13.63h-21.79l-4.32,13.63h-14.95l22.3-61.27h16.36L839.31,187.05z M816.75,162.82
		l-6.58-20.6c-0.48-1.54-0.83-3.38-1.03-5.51h-0.34c-0.14,1.79-0.5,3.57-1.07,5.34l-6.67,20.77H816.75z"/>
</g>
</svg>
