<!-- Generator: Adobe Illustrator 19.2.1, SVG Export Plug-In  -->
<svg version="1.1"
	 xmlns="http://www.w3.org/2000/svg" xmlns:xlink="http://www.w3.org/1999/xlink" xmlns:a="http://ns.adobe.com/AdobeSVGViewerExtensions/3.0/"
	 x="0px" y="0px" width="2164.777px" height="501.189px" viewBox="0 0 2164.777 501.189"
	 style="enable-background:new 0 0 2164.777 501.189;" xml:space="preserve">
<style type="text/css">
	.st0{fill:#231F20;}
	.st1{fill:#A2A2A2;}
</style>
<defs>
</defs>
<g>
	<g>
		<path class="st0" d="M732.543,41.463v217.953h-12.331V54.719l-84.314,110.518L551.429,54.719v204.697h-12.331V41.463h17.88
			l78.919,103.273l78.765-103.273H732.543z"/>
		<path class="st0" d="M839.361,41.463l79.073,217.953h-12.948l-34.835-95.875h-75.374l-35.452,95.875h-13.102l79.998-217.953
			H839.361z M866.182,151.365l-33.14-91.405l-33.294,91.405H866.182z"/>
		<path class="st0" d="M1045.137,41.463v12.331h-96.645v90.48h96.645v12.331h-96.645v90.48h96.645v12.331H936.161V41.463H1045.137z"
			/>
		<path class="st0" d="M1138.7,138.725c-15.517-5.138-27.771-12.203-36.762-21.194s-13.487-19.91-13.487-32.755
			c0-12.537,4.496-23.326,13.487-32.369s19.91-13.564,32.755-13.564c12.639,0,23.532,4.521,32.677,13.564
			c4.932,4.83,8.375,10.225,10.327,16.185l-11.098,4.316c-1.644-4.419-4.316-8.478-8.015-12.177
			c-6.577-6.577-14.541-9.865-23.892-9.865c-9.351,0-17.341,3.288-23.969,9.865c-6.628,6.577-9.942,14.592-9.942,24.046
			c0,9.351,3.288,17.366,9.865,24.046c6.166,6.063,14.695,11.612,25.587,16.647c17.469,5.652,32.164,14.438,44.084,26.358
			c12.537,12.537,18.805,27.694,18.805,45.471c0,17.88-6.294,33.14-18.882,45.779c-12.588,12.639-27.771,18.959-45.548,18.959
			c-17.88,0-33.089-6.371-45.625-19.113c-10.173-10.07-16.236-21.785-18.188-35.144l11.56-4.162
			c1.233,11.817,6.268,22.093,15.106,30.828c10.276,10.276,22.658,15.414,37.148,15.414c14.489,0,26.872-5.138,37.148-15.414
			c10.276-10.276,15.414-22.658,15.414-37.148c0-14.386-5.138-26.717-15.414-36.993
			C1162.797,151.262,1151.751,144.069,1138.7,138.725z"/>
		<path class="st0" d="M1279.892,53.795v205.622h-12.177V53.795h-55.182V41.463h122.541v12.331H1279.892z"/>
		<path class="st0" d="M1410.294,183.888h-40.693v75.528h-12.331V41.463h57.186c16.647,2.261,30.776,9.197,42.388,20.809
			c13.873,13.975,20.809,30.725,20.809,50.249c0,19.73-6.936,36.531-20.809,50.404c-9.659,9.659-20.706,15.979-33.14,18.959
			l50.25,77.532h-15.106L1410.294,183.888z M1369.601,53.949v117.454h36.994c16.133,0,29.954-5.729,41.464-17.187
			c11.509-11.458,17.264-25.356,17.264-41.695c0-16.236-5.755-30.057-17.264-41.463c-11.509-11.406-25.33-17.109-41.464-17.109
			H1369.601z"/>
		<path class="st0" d="M1542.699,0l-33.448,25.433h-11.406L1520.041,0H1542.699z M1518.962,41.463v217.953h-12.331V41.463H1518.962z
			"/>
		<path class="st0" d="M1630.25,41.463l79.074,217.953h-12.948l-34.835-95.875h-75.374l-35.452,95.875h-13.102l79.998-217.953
			H1630.25z M1657.071,151.365l-33.14-91.405l-33.294,91.405H1657.071z"/>
	</g>
	<g>
		<path class="st1" d="M583.961,316.62c25.17,0,48.973,8.997,66.968,26.992c32.801,32.801,32.801,96.694,0,129.381
			c-17.995,17.881-41.798,26.878-66.968,26.878h-45.329V316.734h45.329V316.62z M584.189,463.085
			c15.034,0,28.928-4.214,39.634-14.92s14.92-24.828,14.92-39.976c0-15.034-4.214-29.156-15.034-39.976
			c-10.706-10.82-24.828-15.034-39.862-15.034h-8.428v109.905h8.656H584.189z"/>
		<path class="st1" d="M842.951,342.701c18.223,18.223,27.334,40.09,27.334,65.602s-9.111,47.379-27.334,65.488
			s-40.09,27.22-65.602,27.22s-47.379-9.111-65.488-27.22s-27.22-39.976-27.22-65.488s9.111-47.379,27.22-65.602
			s39.976-27.334,65.488-27.334S824.728,324.479,842.951,342.701z M738.056,368.783c-10.82,10.934-16.286,24.031-16.286,39.293
			c0,15.375,5.467,28.473,16.286,39.293s23.917,16.286,39.293,16.286c15.261,0,28.359-5.467,39.293-16.286s16.4-23.917,16.4-39.293
			c0-15.261-5.467-28.359-16.4-39.293s-24.031-16.4-39.293-16.4C761.974,352.382,748.876,357.849,738.056,368.783z"/>
		<path class="st1" d="M971.762,315.823c12.756,0,24.714,2.392,35.99,7.289s21.184,11.503,29.726,19.817l-26.195,26.195
			c-11.047-10.934-24.145-16.4-39.293-16.4c-15.375,0-28.473,5.467-39.293,16.4s-16.286,24.031-16.286,39.293
			c0,15.375,5.467,28.473,16.286,39.293s23.917,16.286,39.293,16.286s28.473-5.467,39.406-16.4l26.195,26.195
			c-8.542,8.428-18.451,15.034-29.726,19.931s-23.234,7.289-35.99,7.289c-25.512,0-47.379-9.111-65.488-27.22
			s-27.22-39.976-27.22-65.488s9.111-47.379,27.22-65.602s39.976-27.334,65.488-27.334L971.762,315.823z"/>
		<path class="st1" d="M1131.552,316.279h45.898v36.673h-45.898v146.92h-36.787v-146.92h-45.898v-36.673h45.898H1131.552z"/>
		<path class="st1" d="M1347.149,342.701c18.223,18.223,27.334,40.09,27.334,65.602s-9.111,47.379-27.334,65.488
			s-40.09,27.22-65.602,27.22s-47.379-9.111-65.488-27.22s-27.22-39.976-27.22-65.488s9.111-47.379,27.22-65.602
			s39.976-27.334,65.488-27.334S1328.926,324.479,1347.149,342.701z M1242.255,368.783c-10.82,10.934-16.286,24.031-16.286,39.293
			c0,15.375,5.467,28.473,16.286,39.293s23.917,16.286,39.293,16.286c15.261,0,28.359-5.467,39.293-16.286s16.4-23.917,16.4-39.293
			c0-15.261-5.467-28.359-16.4-39.293s-24.031-16.4-39.293-16.4C1266.172,352.382,1253.074,357.849,1242.255,368.783z"/>
		<path class="st1" d="M1387.808,316.051h59.679c17.653,0,35.079,6.15,47.721,18.792s17.767,24.487,17.767,42.14v5.695
			c0,13.667-3.872,23.689-11.617,34.623s-14.236,14.123-26.309,18.678l41.457,63.893h-44.873l-46.923-71.752v71.752h-36.787
			L1387.808,316.051z M1450.904,404.545c7.631,0,11.503-1.936,16.856-7.289s7.289-11.503,7.289-19.134
			c0-7.517-1.936-12.528-7.289-17.995s-14.92-7.403-22.551-7.403h-20.614v51.707L1450.904,404.545z"/>
		<path class="st1" d="M1580.74,471.513c-4.1,9.339-8.314,18.564-12.528,27.903h-39.52l83.255-186.554l83.483,186.554h-39.634
			c-4.1-9.225-8.2-18.564-12.3-27.79h-62.526L1580.74,471.513z M1628.461,439.168l-16.173-38.154l-16.286,38.154H1628.461z"/>
		<path class="st1" d="M1754.653,316.62c25.17,0,48.973,8.997,66.968,26.992c32.801,32.801,32.801,96.694,0,129.381
			c-17.995,17.881-41.798,26.878-66.968,26.878h-45.329V316.734h45.329V316.62z M1754.881,463.085
			c15.034,0,28.928-4.214,39.634-14.92s14.92-24.828,14.92-39.976c0-15.034-4.214-29.156-15.034-39.976
			c-10.706-10.82-24.828-15.034-39.862-15.034h-8.428v109.905h8.656H1754.881z"/>
		<path class="st1" d="M2013.642,342.701c18.223,18.223,27.334,40.09,27.334,65.602s-9.111,47.379-27.334,65.488
			s-40.09,27.22-65.602,27.22s-47.379-9.111-65.488-27.22s-27.22-39.976-27.22-65.488s9.111-47.379,27.22-65.602
			s39.976-27.334,65.488-27.334S1995.42,324.479,2013.642,342.701z M1908.748,368.783c-10.82,10.934-16.286,24.031-16.286,39.293
			c0,15.375,5.467,28.473,16.286,39.293s23.917,16.286,39.293,16.286c15.261,0,28.359-5.467,39.293-16.286s16.4-23.917,16.4-39.293
			c0-15.261-5.467-28.359-16.4-39.293s-24.031-16.4-39.293-16.4C1932.666,352.382,1919.568,357.849,1908.748,368.783z"/>
		<path class="st1" d="M2108.856,463.427c10.136,0,18.564-8.428,18.564-18.564c0-7.859-3.075-12.87-9.339-15.148
			c-13.211-4.897-10.022-3.758-22.892-8.2c-13.553-4.67-26.081-13.895-34.509-25.398c-5.011-6.833-7.517-15.261-7.517-25.398
			c0-15.261,5.467-28.359,16.4-39.293s24.031-16.4,39.406-16.4c15.261,0,28.359,5.467,39.292,16.4s16.4,24.031,16.4,39.293h-37.015
			c0-10.022-8.428-18.45-18.45-18.45c-10.136,0-18.564,8.428-18.564,18.564c0,6.606,2.62,11.617,7.972,15.034
			c10.934,7.061,9.681,5.695,22.778,9.567c14.123,4.1,26.878,12.87,35.648,24.145c5.125,6.606,7.745,15.148,7.745,25.512
			c0,15.375-5.467,28.473-16.4,39.406s-24.031,16.4-39.293,16.4c-15.375,0-28.473-5.467-39.406-16.4s-16.4-24.031-16.4-39.406
			h37.129c0,10.25,8.314,18.564,18.564,18.564L2108.856,463.427z"/>
	</g>
	<g>
		<g>
			<path class="st0" d="M455.031,501.189H0V46.155h455.031V501.189z M25.398,475.792h404.238V71.549H25.398V475.792z"/>
		</g>
		<g>
			<g>
				<path class="st0" d="M101.669,122.305c-1.554,0-2.457-1.818-2.72-5.444c0-2.61,0.595-3.912,1.786-3.912h36.89
					c10.218,0.043,18.342,2.509,24.381,7.396c6.036,4.888,9.056,11.6,9.056,20.136c0,20.387-14.574,30.579-43.72,30.579v32.375
					h14.79c1.152,0,1.725,1.205,1.725,3.614c0,2.416-0.331,3.972-0.996,4.682c-0.659,0.708-1.235,1.06-1.72,1.06h-38.877
					c-1.056,0-1.59-1.185-1.59-3.547c0-2.368,0.596-4.152,1.787-5.342c0.356-0.354,1.132-0.528,2.327-0.528
					c5.703,0.084,8.556-0.841,8.556-2.791v-77.285c0-0.662-0.289-0.991-0.863-0.991H101.669z M127.342,160.847
					c9.289-0.044,16.011-1.174,20.167-3.385c5.393-2.874,8.091-7.995,8.091-15.358c0-7.362-2.108-12.364-6.336-14.993
					c-4.22-2.634-11.53-3.947-21.922-3.947V160.847z"/>
			</g>
			<g>
				<path class="st0" d="M194.211,202.108c-8.225-8.844-12.335-21.626-12.335-38.342c0-16.72,4.102-29.591,12.306-38.61
					c8.203-9.022,18.982-13.523,32.333-13.503c13.36,0.02,23.587,4.722,30.691,14.096c7.096,9.381,10.642,22.361,10.642,38.945
					c0,16.585-4.423,29.213-13.268,37.877c-7.782,7.7-17.939,11.546-30.479,11.546C211.561,214.117,201.597,210.114,194.211,202.108
					z M213.651,200.385c3.49,1.858,7.275,2.789,11.342,2.789c8.269,0,14.774-2.854,19.504-8.562
					c5.397-6.592,8.095-16.194,8.095-28.825c0-12.628-2.723-22.986-8.159-31.075c-5.438-8.096-12.095-12.143-19.971-12.143
					c-7.866,0-14.393,3.269-19.568,9.817c-5.181,6.546-7.768,15.148-7.768,25.806C197.127,180.527,202.639,194.589,213.651,200.385z
					"/>
			</g>
			<g>
				<path class="st0" d="M315.086,111.621h0.595c6.767,0,13.09,1.525,18.975,4.578c6.988,3.58,10.479,8.335,10.479,14.264
					c0,2.83-0.961,5.239-2.886,7.231c-1.921,1.988-4.345,2.989-7.263,2.989c-2.875,0-5.296-0.987-7.265-2.957
					c-1.965-1.969-2.952-4.392-2.952-7.263c0-2.344,0.644-4.424,1.925-6.234c-2.655-1.555-5.793-2.328-9.421-2.328
					c-6.681,0.047-11.809,1.32-15.39,3.817c-3.583,2.496-5.374,6.116-5.374,10.845c0,3.451,1.925,6.57,5.77,9.359
					c1.857,1.412,4.161,2.828,6.899,4.243l8.959,4.642c9.779,4.865,16.626,9.353,20.565,13.466c4.91,5.09,7.363,11.443,7.363,19.075
					c0,7.629-3.183,13.998-9.55,19.103c-6.369,5.11-14.439,7.664-24.218,7.664c-7.519,0-14.481-1.566-20.9-4.711
					c-7.47-3.67-11.208-8.289-11.208-13.862c0-2.921,0.995-5.376,2.981-7.366c1.995-1.989,4.402-2.983,7.233-2.983
					c2.876,0,5.287,1.005,7.233,3.016c1.948,2.015,2.92,4.192,2.92,6.537c0,2.343-0.62,4.62-1.859,6.83
					c2.878,1.55,6.437,2.324,10.683,2.324c7.344,0,12.957-1.468,16.851-4.413c3.888-2.939,5.838-7.016,5.838-12.24
					c0-5.217-4.534-10.458-13.601-15.72c-2.566-1.506-5.351-2.985-8.358-4.443l-9.488-4.844
					c-12.074-6.367-18.111-14.884-18.111-25.542c0-8.184,3.14-14.407,9.419-18.677C298.212,113.758,305.93,111.621,315.086,111.621z
					"/>
			</g>
			<g>
				<path class="st0" d="M115.198,273.472c0,28.305,9.164,42.465,27.491,42.465h0.193c4.732,0,9.221-0.882,13.462-2.644V295.11
					c0-0.67-0.278-1.003-0.817-1.003h-10.26c-1.214-0.044-2.026-1.197-2.456-3.464c-0.079-0.585-0.122-1.152-0.122-1.694
					c0-2.478,0.552-3.714,1.638-3.714h30.387c1.047,0,1.575,1.478,1.575,4.434c0,2.959-0.738,4.438-2.206,4.438h-4.471v21.642
					c-3.521,3.021-6.749,5.179-9.682,6.476c-6.163,2.687-12.846,4.028-20.038,4.028c-7.198,0-13.79-1.973-19.787-5.914
					c-9.27-6.125-15.327-15.479-18.179-28.058c-0.926-4.195-1.387-9.584-1.387-16.17c0-6.581,1.095-13,3.274-19.249
					c2.176-6.249,5.136-11.43,8.869-15.54c7.468-8.178,17.47-12.268,30.008-12.268c0.169,0,0.338,0,0.506,0
					c7.674,0,14.361,1.635,20.063,4.907c5.71,3.271,8.558,7.588,8.558,12.963c-0.039,2.682-0.973,4.969-2.799,6.853
					c-1.825,1.886-4.102,2.83-6.824,2.83c-2.728,0-5.02-0.933-6.891-2.799c-1.865-1.868-2.796-4.091-2.796-6.667
					c0-2.583,0.336-4.646,1.006-6.198c-3.274-1.466-6.92-2.201-10.948-2.201c-8.054,0-14.628,3.185-19.721,9.563
					C117.744,254.68,115.198,263.067,115.198,273.472z"/>
			</g>
			<g>
				<path class="st0" d="M187.168,239.184c-1.47,0-2.328-1.722-2.576-5.158c0-2.474,0.567-3.715,1.697-3.715h34.976
					c9.691,0.048,17.401,2.384,23.12,7.014c5.726,4.639,8.586,11.001,8.586,19.098c0,12.666-6.096,21.221-18.306,25.665
					l17.615,28.436c1.254,2.057,2.85,3.503,4.779,4.343c1.931,0.836,4.36,1.258,7.297,1.258c1.014,0,1.514,1.177,1.514,3.526
					c0,2.346-0.301,3.825-0.915,4.431c-0.608,0.61-1.12,0.916-1.542,0.916h-10.693c-3.191,0-6.145-1.258-8.87-3.777
					c-0.836-0.754-1.552-1.635-2.137-2.639l-20.64-33.598c-2.64,0.292-5.829,0.44-9.563,0.44v30.701h14.033
					c1.086,0,1.635,1.142,1.635,3.428c0,2.286-0.312,3.765-0.942,4.434c-0.63,0.674-1.175,1.01-1.636,1.01h-36.865
					c-1.012,0-1.512-1.123-1.512-3.368c0-2.242,0.565-3.929,1.696-5.064c0.338-0.333,1.071-0.501,2.203-0.501
					c5.41,0.082,8.119-0.798,8.119-2.645v-73.29c0-0.63-0.276-0.944-0.818-0.944H187.168z M211.513,275.735
					c8.81-0.041,15.188-1.111,19.126-3.209c5.118-2.724,7.68-7.577,7.68-14.564c0-6.983-2.005-11.723-6.016-14.215
					c-4.001-2.498-10.935-3.744-20.79-3.744V275.735z"/>
			</g>
			<g>
				<path class="st0" d="M266.062,324.996c-1.048,0-1.575-1.132-1.575-3.398c0-2.268,0.502-3.922,1.51-4.969
					c0.33-0.338,1.091-0.505,2.266-0.505c3.1,0,5.139-1.195,6.1-3.586l32.025-82.227c0.337-0.838,1.525-1.256,3.585-1.256
					c2.054,0,3.25,0.418,3.585,1.256l33.532,85.813h7.36c1.093,0,1.633,1.153,1.633,3.461c0,2.307-0.303,3.785-0.906,4.436
					c-0.612,0.648-1.127,0.975-1.544,0.975h-30.509c-1.052,0-1.58-1.132-1.58-3.398c0-2.268,0.318-3.745,0.949-4.435
					c0.631-0.69,1.175-1.039,1.637-1.039c5.198,0,7.797-0.505,7.797-1.51c0-0.376-0.163-0.899-0.5-1.573l-7.487-19.441h-31.898
					l-8.739,22.524h10.816c1.091,0,1.633,1.153,1.633,3.461c0,2.307-0.282,3.785-0.843,4.436c-0.57,0.648-1.042,0.975-1.425,0.975
					H266.062z M295.751,283.913h24.474l-12.144-31.707L295.751,283.913z"/>
			</g>
			<g>
				<path class="st0" d="M101.559,347.516c-1.445,0-2.312-1.657-2.61-4.975c0-2.679,0.551-4.01,1.656-4.01h37.095
					c16.784,0,28.758,3.906,35.914,11.723c7.158,7.82,10.742,19.821,10.742,36.013c0,16.19-4.866,28.509-14.593,36.962
					c-8.586,7.441-19.277,11.181-32.063,11.224h-35.244c-1.15,0-1.721-1.094-1.721-3.283c0-2.188,0.552-3.917,1.652-5.198
					c0.304-0.382,1.534-0.585,3.702-0.605c2.168-0.019,3.824-0.208,4.974-0.576c1.141-0.357,1.715-1.045,1.715-2.066v-74.316
					c0-0.596-0.252-0.893-0.762-0.893H101.559z M126.226,424.637h9.37c9.092,0,17.018-3.147,23.772-9.436
					c6.758-6.289,10.13-15.233,10.13-26.835c0-19.881-6.201-32.398-18.605-37.54c-3.994-1.656-8.562-2.485-13.706-2.485h-10.961
					V424.637z"/>
			</g>
			<g>
				<path class="st0" d="M209.335,424.187c-7.897-8.496-11.85-20.776-11.85-36.84c0-16.059,3.937-28.424,11.823-37.094
					c7.877-8.668,18.236-12.988,31.066-12.967c12.832,0.02,22.663,4.538,29.486,13.541c6.814,9.009,10.225,21.483,10.225,37.413
					c0,15.934-4.246,28.065-12.747,36.397c-7.479,7.391-17.243,11.086-29.285,11.086
					C226.006,435.723,216.437,431.878,209.335,424.187z M228.014,422.532c3.36,1.783,6.989,2.68,10.9,2.68
					c7.945,0,14.189-2.743,18.738-8.228c5.184-6.325,7.773-15.554,7.773-27.687s-2.609-22.083-7.837-29.865
					c-5.228-7.776-11.621-11.663-19.187-11.663c-7.559,0-13.835,3.146-18.8,9.434c-4.969,6.285-7.459,14.555-7.459,24.795
					C212.143,403.452,217.428,416.963,228.014,422.532z"/>
			</g>
			<g>
				<path class="st0" d="M325.464,337.253h0.574c6.499,0,12.576,1.47,18.227,4.396c6.715,3.447,10.073,8.009,10.073,13.705
					c0,2.719-0.923,5.035-2.772,6.944c-1.846,1.915-4.176,2.87-6.981,2.87c-2.757,0-5.088-0.945-6.977-2.833
					c-1.891-1.894-2.837-4.223-2.837-6.981c0-2.25,0.618-4.249,1.851-5.993c-2.552-1.484-5.567-2.229-9.061-2.229
					c-6.408,0.041-11.343,1.26-14.776,3.663c-3.447,2.401-5.162,5.875-5.162,10.421c0,3.316,1.844,6.306,5.539,8.984
					c1.787,1.359,3.998,2.723,6.632,4.086l8.601,4.457c9.395,4.671,15.983,8.988,19.758,12.941
					c4.722,4.882,7.077,10.991,7.077,18.317c0,7.337-3.06,13.451-9.175,18.355c-6.117,4.913-13.874,7.365-23.265,7.365
					c-7.221,0-13.916-1.508-20.078-4.522c-7.185-3.529-10.776-7.973-10.776-13.324c0-2.805,0.959-5.161,2.873-7.069
					c1.908-1.919,4.227-2.872,6.945-2.872c2.761,0,5.08,0.968,6.943,2.903c1.876,1.929,2.808,4.023,2.808,6.279
					c0,2.247-0.591,4.436-1.781,6.561c2.759,1.487,6.175,2.228,10.255,2.228c7.062,0,12.453-1.413,16.194-4.236
					c3.739-2.825,5.609-6.746,5.609-11.76c0-5.009-4.36-10.044-13.071-15.104c-2.465-1.444-5.137-2.867-8.034-4.271l-9.107-4.653
					c-11.602-6.116-17.401-14.298-17.401-24.538c0-7.861,3.022-13.837,9.052-17.939
					C309.254,339.305,316.668,337.253,325.464,337.253z"/>
			</g>
		</g>
	</g>
	<g>
		<path class="st0" d="M1782.441,140.515c-15.388-5.095-27.54-12.101-36.456-21.018c-8.917-8.917-13.375-19.744-13.375-32.482
			c0-12.432,4.458-23.132,13.375-32.1c8.917-8.968,19.744-13.451,32.482-13.451c12.534,0,23.336,4.484,32.406,13.451
			c4.891,4.79,8.305,10.14,10.241,16.05l-11.006,4.28c-1.63-4.382-4.28-8.407-7.949-12.076c-6.522-6.522-14.42-9.783-23.693-9.783
			s-17.196,3.261-23.769,9.783s-9.859,14.47-9.859,23.846c0,9.273,3.261,17.222,9.783,23.846
			c6.114,6.012,14.572,11.515,25.374,16.509c17.324,5.605,31.896,14.318,43.717,26.139c12.432,12.432,18.649,27.463,18.649,45.093
			c0,17.731-6.242,32.864-18.725,45.399c-12.483,12.534-27.54,18.801-45.169,18.801c-17.731,0-32.813-6.318-45.246-18.954
			c-10.089-9.987-16.101-21.604-18.037-34.851l11.464-4.127c1.223,11.719,6.216,21.91,14.98,30.571
			c10.19,10.19,22.47,15.286,36.839,15.286s26.648-5.095,36.839-15.286c10.19-10.19,15.286-22.47,15.286-36.839
			c0-14.267-5.095-26.495-15.286-36.686C1806.338,152.947,1795.383,145.814,1782.441,140.515z"/>
	</g>
</g>
</svg>