<!-- Generator: Adobe Illustrator 19.2.1, SVG Export Plug-In  -->
<svg version="1.1"
	 xmlns="http://www.w3.org/2000/svg" xmlns:xlink="http://www.w3.org/1999/xlink" xmlns:a="http://ns.adobe.com/AdobeSVGViewerExtensions/3.0/"
	 x="0px" y="0px" width="742.792px" height="189.334px" viewBox="0 0 742.792 189.334"
	 style="enable-background:new 0 0 742.792 189.334;" xml:space="preserve">
<style type="text/css">
	.st0{fill:#959595;stroke:#959595;stroke-width:4;stroke-miterlimit:10;}
	.st1{fill:#959595;}
	.st2{fill:#242424;}
	.st3{fill:#BE0E2F;stroke:#C3002F;stroke-width:4;stroke-miterlimit:10;}
</style>
<defs>
</defs>
<g>
	<g>
		<path class="st0" d="M182.395,6.439v3.906h-26.318v28.662h26.318v3.906h-26.318v32.568h-3.906V6.439H182.395z"/>
		<path class="st0" d="M233.372,75.482l-9.229-25.488h-23.877l-9.277,25.488h-4.15L212.23,5.853l25.244,69.629H233.372z
			 M222.727,46.136L212.23,17.181l-10.547,28.955H222.727z"/>
		<path class="st0" d="M299.192,64.495l2.979,2.637c-6.738,6.12-14.665,9.18-23.779,9.18c-9.799,0-18.14-3.442-25.025-10.327
			C246.482,59.1,243.04,50.759,243.04,40.96c0-9.732,3.442-18.059,10.327-24.976c6.885-6.917,15.226-10.376,25.025-10.376
			c9.114,0,17.041,3.076,23.779,9.229l-2.979,2.637c-5.925-5.24-12.858-7.861-20.801-7.861c-8.659,0-16.057,3.061-22.192,9.18
			c-6.136,6.12-9.204,13.51-9.204,22.168c0,8.691,3.068,16.098,9.204,22.217c6.136,6.12,13.533,9.18,22.192,9.18
			C286.334,72.357,293.267,69.737,299.192,64.495z"/>
		<path class="st0" d="M351.829,6.439h3.906v49.609c-0.717,5.273-2.914,9.75-6.592,13.428c-4.395,4.395-9.701,6.592-15.918,6.592
			c-6.25,0-11.572-2.197-15.967-6.592c-4.395-4.395-6.592-9.7-6.592-15.918V6.439h3.906v47.119c0,5.111,1.822,9.489,5.469,13.135
			c3.646,3.646,8.04,5.469,13.184,5.469c5.143,0,9.529-1.822,13.159-5.469c3.63-3.646,5.444-8.023,5.444-13.135V6.439z"/>
		<path class="st0" d="M366.673,75.482V6.439h3.906v65.137h26.318v3.906H366.673z"/>
		<path class="st0" d="M417.405,10.345v65.137h-3.857V10.345h-17.48V6.439h38.818v3.906H417.405z"/>
		<path class="st0" d="M481.224,75.482l-9.229-25.488h-23.877l-9.277,25.488h-4.15l25.391-69.629l25.244,69.629H481.224z
			 M470.579,46.136l-10.498-28.955l-10.547,28.955H470.579z"/>
		<path class="st0" d="M505.54,6.439c11.36,0.065,20.166,3.239,26.416,9.521c6.9,6.934,10.352,15.268,10.352,25
			c0,9.799-3.451,18.148-10.352,25.049c-6.25,6.25-15.056,9.408-26.416,9.473h-12.793V6.439H505.54z M496.653,10.492v60.986h8.838
			c9.928,0,17.757-2.767,23.486-8.301c6.119-6.119,9.18-13.525,9.18-22.217c0-8.658-3.061-16.064-9.18-22.217
			c-5.729-5.501-13.559-8.252-23.486-8.252H496.653z"/>
		<path class="st1" d="M588.401,6.439c11.36,0.065,20.166,3.239,26.416,9.521c6.9,6.934,10.352,15.268,10.352,25
			c0,9.799-3.451,18.148-10.352,25.049c-6.25,6.25-15.056,9.408-26.416,9.473h-12.793V6.439H588.401z M579.515,10.492v60.986h8.838
			c9.928,0,17.757-2.767,23.486-8.301c6.119-6.119,9.18-13.525,9.18-22.217c0-8.658-3.06-16.064-9.18-22.217
			c-5.729-5.501-13.559-8.252-23.486-8.252H579.515z"/>
		<path class="st1" d="M668.187,6.439v3.906h-30.615v28.662h30.615v3.906h-30.615v28.662h30.615v3.906h-34.522V6.439H668.187z"/>
	</g>
	<g>
		<path class="st2" d="M39.903,164.106l39.903-69.242v91.707h-5.091V114.02L39.84,174.288L5.092,114.147v72.424H0v-91.58
			L39.903,164.106z"/>
		<path class="st2" d="M137.912,96.581v5.091H98.009v37.358h39.903v5.091H98.009v37.358h39.903v5.091H92.917V96.581H137.912z"/>
		<path class="st2" d="M168.842,96.581c14.807,0.085,26.284,4.222,34.431,12.41c8.994,9.037,13.491,19.899,13.491,32.585
			c0,12.771-4.497,23.654-13.491,32.648c-8.146,8.146-19.624,12.262-34.431,12.346h-16.674V96.581H168.842z M157.26,101.864v79.488
			h11.519c12.94,0,23.143-3.605,30.612-10.818c7.976-7.977,11.965-17.629,11.965-28.957c0-11.285-3.989-20.938-11.965-28.957
			c-7.469-7.17-17.672-10.756-30.612-10.756H157.26z"/>
		<path class="st2" d="M233.566,96.581v89.989h-5.092V96.581H233.566z"/>
		<path class="st2" d="M319.228,172.252l3.881,3.436c-8.781,7.978-19.113,11.965-30.993,11.965c-12.771,0-23.643-4.486-32.616-13.46
			c-8.974-8.974-13.461-19.845-13.461-32.616c0-12.686,4.487-23.537,13.461-32.553c8.974-9.016,19.846-13.524,32.616-13.524
			c11.88,0,22.212,4.01,30.993,12.028l-3.881,3.438c-7.723-6.832-16.76-10.247-27.112-10.247c-11.286,0-20.928,3.989-28.925,11.965
			c-7.998,7.977-11.996,17.608-11.996,28.894c0,11.328,3.998,20.98,11.996,28.957c7.997,7.977,17.639,11.965,28.925,11.965
			C302.469,182.498,311.506,179.082,319.228,172.252z"/>
		<path class="st2" d="M339.912,96.581v89.989h-5.092V96.581H339.912z"/>
		<path class="st2" d="M409.663,172.379V96.581h5.092v91.771l-55.051-77.261v75.479h-5.091V95.182L409.663,172.379z"/>
		<path class="st2" d="M484.824,186.571l-12.028-33.221h-31.121l-12.092,33.221h-5.409l33.094-90.753l32.902,90.753H484.824z
			 M470.95,148.322l-13.683-37.74l-13.747,37.74H470.95z"/>
	</g>
	<g>
		<path class="st3" d="M585.824,96.581h5.091v64.66c-0.934,6.874-3.798,12.708-8.592,17.501c-5.727,5.729-12.644,8.592-20.747,8.592
			c-8.146,0-15.083-2.863-20.81-8.592c-5.728-5.727-8.592-12.643-8.592-20.746V96.581h5.092v61.415
			c0,6.66,2.375,12.367,7.127,17.119c4.752,4.752,10.479,7.128,17.184,7.128c6.703,0,12.421-2.376,17.151-7.128
			c4.731-4.752,7.097-10.459,7.097-17.119V96.581z"/>
		<path class="st3" d="M661.176,186.571l-12.028-33.221h-31.121l-12.092,33.221h-5.409l33.094-90.753l32.902,90.753H661.176z
			 M647.302,148.322l-13.683-37.74l-13.747,37.74H647.302z"/>
		<path class="st3" d="M692.869,96.581c14.808,0.085,26.284,4.222,34.431,12.41c8.994,9.037,13.492,19.899,13.492,32.585
			c0,12.771-4.498,23.654-13.492,32.648c-8.146,8.146-19.623,12.262-34.431,12.346h-16.674V96.581H692.869z M681.287,101.864v79.488
			h11.518c12.94,0,23.145-3.605,30.612-10.818c7.976-7.977,11.965-17.629,11.965-28.957c0-11.285-3.989-20.938-11.965-28.957
			c-7.468-7.17-17.672-10.756-30.612-10.756H681.287z"/>
	</g>
</g>
</svg>