<!-- Generator: Adobe Illustrator 19.2.1, SVG Export Plug-In  -->
<svg version="1.1"
	 xmlns="http://www.w3.org/2000/svg" xmlns:xlink="http://www.w3.org/1999/xlink" xmlns:a="http://ns.adobe.com/AdobeSVGViewerExtensions/3.0/"
	 x="0px" y="0px" width="1590.545px" height="426.185px" viewBox="0 0 1590.545 426.185"
	 style="enable-background:new 0 0 1590.545 426.185;" xml:space="preserve">
<style type="text/css">
	.st0{fill:#BE0E2F;}
	.st1{fill:#231F20;}
	.st2{fill:#A2A2A2;}
</style>
<defs>
</defs>
<g>
	<g>
		<path class="st0" d="M182.509,94.032L163.195,17.79l-29.861,78.529l-29.861-78.656L84.03,94.032h-5.21l23.635-93.396
			l30.878,80.943l30.878-81.07l23.635,93.523H182.509z"/>
		<path class="st0" d="M241.342,87.043c-5.254,5.254-11.69,7.878-19.315,7.878c-7.624,0-14.022-2.583-19.188-7.751
			c-5.253-5.251-7.878-11.69-7.878-19.314c0-7.539,2.625-13.934,7.878-19.188c5.166-5.338,11.563-8.006,19.188-8.006
			c7.539,0,13.934,2.627,19.187,7.878c5.252,5.254,7.878,11.69,7.878,19.315C249.093,75.48,246.508,81.877,241.342,87.043z
			 M237.656,52.226c-4.237-4.32-9.447-6.48-15.629-6.48c-5.931,0-11.055,2.204-15.376,6.607c-4.406,4.406-6.608,9.574-6.608,15.503
			c0,6.016,2.16,11.181,6.481,15.502c4.32,4.32,9.486,6.48,15.503,6.48c6.099,0,11.265-2.116,15.502-6.354
			c4.32-4.32,6.481-9.53,6.481-15.629C244.01,61.672,241.892,56.463,237.656,52.226z"/>
		<path class="st0" d="M307.67,94.032v-9.403c-5.591,6.862-12.707,10.292-21.348,10.292c-7.624,0-14.021-2.583-19.187-7.751
			c-5.254-5.251-7.878-11.69-7.878-19.314c0-7.625,2.583-14.02,7.751-19.188c5.252-5.252,11.69-7.878,19.315-7.878
			c8.387,0,15.503,3.431,21.348,10.292V0h5.21v94.032H307.67z M301.825,52.353c-4.32-4.32-9.488-6.48-15.503-6.48
			c-6.099,0-11.267,2.118-15.502,6.354c-4.32,4.321-6.481,9.53-6.481,15.63c0,6.016,2.16,11.181,6.481,15.502
			c4.32,4.32,9.486,6.48,15.502,6.48c6.099,0,11.266-2.116,15.503-6.354c4.32-4.32,6.481-9.53,6.481-15.629
			C308.306,61.841,306.145,56.674,301.825,52.353z"/>
		<path class="st0" d="M372.475,94.032V85.01c-5.508,6.608-12.496,9.911-20.966,9.911c-7.624,0-14.021-2.583-19.188-7.751
			c-5.253-5.251-7.878-11.69-7.878-19.314c0-7.625,2.583-14.02,7.751-19.188c5.252-5.252,11.69-7.878,19.315-7.878
			c8.387,0,15.375,3.303,20.966,9.911v-9.149h5.21v52.479H372.475z M367.011,52.353c-4.32-4.32-9.488-6.48-15.502-6.48
			c-6.099,0-11.268,2.118-15.503,6.354c-4.32,4.321-6.481,9.53-6.481,15.63c0,6.016,2.16,11.181,6.481,15.502
			c4.32,4.32,9.486,6.48,15.503,6.48c6.099,0,11.265-2.116,15.502-6.354c4.32-4.32,6.481-9.53,6.481-15.629
			C373.491,61.841,371.331,56.674,367.011,52.353z"/>
		<path class="st0" d="M394.585,94.032V0h5.083v94.032H394.585z"/>
		<path class="st0" d="M414.66,32.149c-0.933,0-1.906-0.381-2.923-1.144c-0.762-0.762-1.187-1.779-1.271-3.05
			c0-2.287,1.398-3.685,4.193-4.194c2.116,0,3.514,1.398,4.193,4.194C418.853,30.751,417.456,32.149,414.66,32.149z M411.992,94.032
			V41.552h5.21v52.479H411.992z"/>
		<path class="st0" d="M473.621,94.032v-9.403c-5.591,6.862-12.707,10.292-21.348,10.292c-7.624,0-14.021-2.583-19.187-7.751
			c-5.254-5.251-7.878-11.69-7.878-19.314c0-7.625,2.583-14.02,7.751-19.188c5.252-5.252,11.69-7.878,19.315-7.878
			c8.387,0,15.503,3.431,21.348,10.292V0h5.21v94.032H473.621z M467.776,52.353c-4.32-4.32-9.488-6.48-15.503-6.48
			c-6.099,0-11.267,2.118-15.502,6.354c-4.32,4.321-6.481,9.53-6.481,15.63c0,6.016,2.16,11.181,6.481,15.502
			c4.32,4.32,9.486,6.48,15.502,6.48c6.099,0,11.266-2.116,15.503-6.354c4.32-4.32,6.481-9.53,6.481-15.629
			C474.256,61.841,472.096,56.674,467.776,52.353z"/>
		<path class="st0" d="M538.426,94.032V85.01c-5.508,6.608-12.497,9.911-20.966,9.911c-7.624,0-14.021-2.583-19.188-7.751
			c-5.254-5.251-7.878-11.69-7.878-19.314c0-7.625,2.583-14.02,7.751-19.188c5.252-5.252,11.69-7.878,19.315-7.878
			c8.387,0,15.375,3.303,20.966,9.911v-9.149h5.21v52.479H538.426z M532.962,52.353c-4.32-4.32-9.488-6.48-15.502-6.48
			c-6.099,0-11.268,2.118-15.503,6.354c-4.32,4.321-6.481,9.53-6.481,15.63c0,6.016,2.16,11.181,6.481,15.502
			c4.32,4.32,9.486,6.48,15.503,6.48c6.099,0,11.266-2.116,15.502-6.354c4.32-4.32,6.481-9.53,6.481-15.629
			C539.442,61.841,537.282,56.674,532.962,52.353z"/>
		<path class="st0" d="M604.628,94.032v-9.403c-5.591,6.862-12.707,10.292-21.348,10.292c-7.624,0-14.021-2.583-19.187-7.751
			c-5.254-5.251-7.878-11.69-7.878-19.314c0-7.625,2.583-14.02,7.751-19.188c5.252-5.252,11.69-7.878,19.315-7.878
			c8.387,0,15.503,3.431,21.348,10.292V0h5.21v94.032H604.628z M598.783,52.353c-4.32-4.32-9.488-6.48-15.503-6.48
			c-6.099,0-11.267,2.118-15.502,6.354c-4.32,4.321-6.481,9.53-6.481,15.63c0,6.016,2.16,11.181,6.481,15.502
			c4.32,4.32,9.486,6.48,15.502,6.48c6.099,0,11.266-2.116,15.503-6.354c4.32-4.32,6.481-9.53,6.481-15.629
			C605.264,61.841,603.104,56.674,598.783,52.353z"/>
	</g>
	<g>
		<g>
			<path class="st1" d="M208.917,277.353h79.783v19.661h-60.348v35.937h60.348v19.438h-60.348v49.496h60.348v19.438h-79.783V277.353
				z"/>
			<path class="st1" d="M345.426,277.58h19.664v105.546c0,28.704-11.94,43.059-35.819,43.059c-8.29,0-16.468-2.147-24.523-6.446
				l9.712-16.045c6.331,2.186,11.492,3.277,15.489,3.277c10.322,0,15.477-6.932,15.477-20.792V277.58z"/>
			<path class="st1" d="M399.33,277.353h79.783v19.661h-60.348v35.937h60.348v19.438h-60.348v49.496h60.348v19.438H399.33V277.353z"
				/>
			<path class="st1" d="M618.672,282.324v22.265c-15.517-7.613-29.791-11.416-42.827-11.416c-16.726,0-30.809,5.396-42.268,16.21
				c-11.447,10.79-17.173,24.059-17.173,39.785c0,16.037,5.855,29.409,17.576,40.129c11.715,10.736,26.387,16.096,44.008,16.096
				c12.813,0,26.37-4.036,40.684-12.096v22.491c-13.032,6.933-27.154,10.398-42.374,10.398c-22.301,0-41.36-7.546-57.179-22.645
				c-15.825-15.091-23.734-33.283-23.734-54.596c0-20.927,7.775-38.847,23.336-53.745c15.561-14.917,34.296-22.368,56.222-22.368
				C589.027,272.83,603.603,275.998,618.672,282.324z"/>
			<path class="st1" d="M641.386,277.58h19.665v88.484c0,13.107,3.146,23.238,9.438,30.398c6.291,7.157,15.203,10.736,26.729,10.736
				c11.452,0,20.358-3.297,26.729-9.888c6.358-6.597,9.538-15.877,9.538-27.854V277.58h19.664v90.516
				c0,17.633-5.021,31.719-15.08,42.264c-10.053,10.549-23.448,15.825-40.179,15.825c-17.096,0-30.793-5.351-41.076-16.051
				c-10.283-10.697-15.427-26.479-15.427-47.348V277.58z"/>
			<path class="st1" d="M773.036,277.353h88.033v19.661h-34.347v124.308h-19.44V297.014h-34.246V277.353z"/>
			<path class="st1" d="M882.889,277.353h19.429v143.97h-19.429V277.353z"/>
			<path class="st1" d="M921.983,277.58h20.756l45.217,101.969l45.537-101.969h20.935l-66.729,148.605L921.983,277.58z"/>
			<path class="st1" d="M1111.327,271.814l67.972,149.509h-20.599l-16.714-36.84h-61.092l-16.524,36.84h-20.454L1111.327,271.814z
				 M1111.265,316.746l-23.023,51.35h46.315L1111.265,316.746z"/>
			<path class="st1" d="M1285.3,293.399l-15.936,12.771c-4.209-4.372-8.022-7.63-11.442-9.776
				c-3.432-2.147-8.363-3.221-14.834-3.221c-7.059,0-12.802,1.593-17.19,4.794c-4.406,3.185-6.594,7.3-6.594,12.337
				c0,4.355,1.92,8.203,5.765,11.548c3.829,3.342,10.373,7.003,19.625,10.977c9.259,3.969,16.452,7.666,21.601,11.094
				c5.144,3.426,9.376,7.212,12.695,11.349c3.303,4.131,5.766,8.503,7.378,13.101c1.623,4.59,2.435,9.44,2.435,14.557
				c0,11.981-4.355,22.175-13.054,30.605c-8.704,8.43-19.228,12.65-31.587,12.65c-12.052,0-22.693-3.297-31.923-9.891
				c-9.236-6.591-16.334-16.479-21.304-29.664l19.665-5.536c7.159,16.197,18.119,24.299,32.886,24.299
				c7.159,0,13.109-2.141,17.856-6.428c4.747-4.282,7.12-9.687,7.12-16.222c0-3.902-1.243-7.828-3.728-11.772
				c-2.496-3.938-5.592-7.196-9.275-9.748c-3.706-2.552-9.589-5.48-17.643-8.785c-8.061-3.306-14.263-6.328-18.606-9.077
				c-4.355-2.751-8.117-6.032-11.296-9.835c-3.169-3.804-5.497-7.579-6.964-11.346c-1.483-3.756-2.211-7.789-2.211-12.082
				c0-10.314,4.142-19.099,12.426-26.37c8.29-7.257,18.343-10.896,30.171-10.896c7.837,0,15.785,1.699,23.846,5.088
				C1273.243,281.308,1279.948,286.469,1285.3,293.399z"/>
		</g>
	</g>
	<g>
		<path class="st2" d="M1334.34,327.932h12.68v57.055c0,8.451,2.028,14.984,6.089,19.601c4.05,4.615,9.796,6.923,17.227,6.923
			c7.385,0,13.131-2.126,17.235-6.376c4.104-4.254,6.154-10.238,6.154-17.96v-59.242h12.683v58.365
			c0,11.37-3.248,20.453-9.731,27.252c-6.486,6.802-15.12,10.204-25.905,10.204c-11.027,0-19.852-3.451-26.485-10.35
			c-6.631-6.897-9.948-17.074-9.948-30.53V327.932z"/>
		<path class="st2" d="M1459.564,324.214l43.829,96.404h-13.282l-10.778-23.755h-39.393l-10.651,23.755H1416.1L1459.564,324.214z
			 M1459.528,353.187l-14.845,33.111h29.857L1459.528,353.187z"/>
		<path class="st2" d="M1515.199,327.786h22.512c17.83,0,31.094,4.71,39.79,14.136c8.695,9.424,13.044,20.183,13.044,32.28
			c0,12.193-4.494,22.979-13.485,32.353c-8.987,9.377-22.053,14.064-39.198,14.064h-22.663V327.786z M1527.875,340.171v67.914h0.729
			c9.424,0,16.52-0.424,21.277-1.272c4.761-0.852,9.28-2.711,13.557-5.577c4.274-2.868,7.674-6.668,10.2-11.404
			c2.527-4.738,3.786-9.948,3.786-15.631c0-7.139-2.014-13.602-6.046-19.384c-4.032-5.779-8.854-9.668-14.462-11.658
			c-5.613-1.991-13.153-2.989-22.627-2.989H1527.875z"/>
	</g>
	<g>
		<path class="st1" d="M34.686,218.342c6.313,0,11.562-5.249,11.562-11.559c0-4.897-1.915-8.018-5.816-9.437
			c-8.228-3.047-6.242-2.343-14.257-5.107c-8.441-2.911-16.244-8.654-21.493-15.815C1.561,172.167,0,166.913,0,160.603
			c0-9.505,3.405-17.66,10.214-24.469c6.81-6.81,14.967-10.214,24.543-10.214c9.505,0,17.662,3.405,24.472,10.214
			c6.81,6.81,10.214,14.964,10.214,24.469H46.39c0-6.242-5.249-11.491-11.491-11.491c-6.313,0-11.562,5.249-11.562,11.559
			c0,4.119,1.631,7.24,4.965,9.363c6.81,4.403,6.029,3.552,14.186,5.958c8.796,2.554,16.74,8.018,22.202,15.038
			c3.192,4.119,4.823,9.437,4.823,15.889c0,9.578-3.405,17.738-10.214,24.548s-14.967,10.214-24.472,10.214
			c-9.576,0-17.733-3.405-24.543-10.214S0.071,216.497,0.071,206.919h23.124c0,6.389,5.178,11.565,11.562,11.565L34.686,218.342z"/>
		<path class="st1" d="M148.603,126.697v22.84h-45.68v22.914h34.26v22.835h-34.26v22.845h45.68v22.909h-45.68H80.012V126.697
			H148.603z"/>
		<path class="st1" d="M214.996,201.034l55.753-76.465V241.04h-22.911v-47.173l-32.842,45.328l-32.842-45.328v47.173h-22.911
			V124.569L214.996,201.034z"/>
		<path class="st1" d="M282.098,126.697h22.911V241.04h-22.911V126.697z"/>
		<path class="st1" d="M384.95,126.697v22.84h-45.68v22.914h34.26v22.835h-34.26v22.845h45.68v22.909h-45.68h-22.911V126.697H384.95
			z"/>
		<path class="st1" d="M429.496,218.342c6.313,0,11.562-5.249,11.562-11.559c0-4.897-1.915-8.018-5.816-9.437
			c-8.228-3.047-6.242-2.343-14.257-5.107c-8.441-2.911-16.244-8.654-21.493-15.815c-3.121-4.256-4.682-9.51-4.682-15.821
			c0-9.505,3.405-17.66,10.214-24.469c6.81-6.81,14.967-10.214,24.543-10.214c9.505,0,17.662,3.405,24.472,10.214
			c6.81,6.81,10.214,14.964,10.214,24.469H441.2c0-6.242-5.249-11.491-11.491-11.491c-6.313,0-11.562,5.249-11.562,11.559
			c0,4.119,1.631,7.24,4.965,9.363c6.81,4.403,6.029,3.552,14.186,5.958c8.796,2.554,16.74,8.018,22.202,15.038
			c3.192,4.119,4.823,9.437,4.823,15.889c0,9.578-3.405,17.738-10.214,24.548s-14.967,10.214-24.472,10.214
			c-9.576,0-17.733-3.405-24.543-10.214s-10.214-14.969-10.214-24.548h23.124c0,6.389,5.178,11.565,11.562,11.565L429.496,218.342z"
			/>
		<path class="st1" d="M529.652,126.413c7.944,0,15.392,1.492,22.415,4.54c7.022,3.047,13.193,7.167,18.513,12.342l-16.314,16.314
			c-6.88-6.81-15.038-10.214-24.472-10.214c-9.576,0-17.733,3.405-24.472,10.214c-6.739,6.81-10.143,14.964-10.143,24.474
			c0,9.573,3.405,17.728,10.143,24.469c6.739,6.741,14.896,10.146,24.472,10.146s17.733-3.405,24.543-10.214l16.315,16.309
			c-5.32,5.254-11.491,9.363-18.513,12.416c-7.022,3.053-14.47,4.54-22.415,4.54c-15.889,0-29.508-5.675-40.786-16.955
			c-11.278-11.276-16.953-24.895-16.953-40.784s5.675-29.508,16.953-40.857c11.278-11.349,24.897-17.024,40.786-17.024
			L529.652,126.413z"/>
		<path class="st1" d="M674.851,143.153c11.349,11.349,17.024,24.968,17.024,40.857s-5.675,29.508-17.024,40.784
			c-11.349,11.281-24.968,16.955-40.857,16.955c-15.889,0-29.508-5.675-40.786-16.955c-11.278-11.276-16.953-24.895-16.953-40.784
			s5.675-29.508,16.953-40.857c11.278-11.349,24.897-17.024,40.786-17.024C649.883,126.129,663.502,131.804,674.851,143.153z
			 M609.522,159.399c-6.739,6.81-10.143,14.964-10.143,24.469c0,9.579,3.405,17.733,10.143,24.469
			c6.739,6.741,14.896,10.146,24.472,10.146c9.505,0,17.662-3.405,24.472-10.146c6.81-6.736,10.214-14.891,10.214-24.469
			c0-9.505-3.405-17.66-10.214-24.469c-6.81-6.81-14.967-10.214-24.472-10.214C624.418,149.185,616.261,152.59,609.522,159.399z"/>
		<path class="st1" d="M723.156,126.697v91.435h45.68v22.909h-68.592V126.697H723.156z"/>
		<path class="st1" d="M806.714,223.375c-2.554,5.822-5.178,11.565-7.803,17.381h-24.614l51.852-116.187l51.993,116.187h-24.685
			c-2.554-5.748-5.107-11.559-7.661-17.308h-38.942L806.714,223.375z M836.435,203.23l-10.072-23.76l-10.143,23.76H836.435z"/>
		<path class="st1" d="M886.797,126.555h37.169c10.995,0,21.847,3.83,29.721,11.701c7.873,7.876,11.065,15.253,11.065,26.25v3.541
			c0,8.512-2.412,14.754-7.235,21.563c-4.823,6.81-8.867,8.796-16.385,11.633l25.819,39.796h-27.947l-29.224-44.687v44.687h-22.911
			L886.797,126.555z M926.094,181.667c4.752,0,7.164-1.203,10.498-4.54c3.334-3.331,4.54-7.162,4.54-11.917
			c0-4.676-1.206-7.797-4.54-11.202c-3.334-3.405-9.292-4.613-14.045-4.613h-12.839v32.203L926.094,181.667z"/>
		<path class="st1" d="M977.591,126.697h22.911V241.04h-22.911V126.697z"/>
		<path class="st1" d="M1090.515,126.697l-43.765,91.435h43.765v22.909h-80.083l43.765-91.503h-43.765v-22.84H1090.515z"/>
		<path class="st1" d="M1129.812,223.375c-2.554,5.822-5.178,11.565-7.803,17.381h-24.614l51.852-116.187l51.994,116.187h-24.685
			c-2.553-5.748-5.107-11.559-7.661-17.308h-38.942L1129.812,223.375z M1159.532,203.23l-10.072-23.76l-10.143,23.76H1159.532z"/>
		<path class="st1" d="M1238.125,126.907c15.676,0,30.501,5.606,41.708,16.814c20.428,20.429,20.428,60.224,0,80.579
			c-11.207,11.139-26.032,16.74-41.708,16.74h-28.231V126.981h28.231V126.907z M1238.267,218.131c9.363,0,18.017-2.627,24.684-9.295
			s9.292-15.463,9.292-24.9c0-9.363-2.625-18.159-9.363-24.895c-6.668-6.736-15.463-9.363-24.826-9.363h-5.249v68.452h5.391
			H1238.267z"/>
		<path class="st1" d="M1399.426,143.153c11.349,11.349,17.024,24.968,17.024,40.857s-5.675,29.508-17.024,40.784
			c-11.349,11.281-24.968,16.955-40.857,16.955c-15.889,0-29.508-5.675-40.786-16.955c-11.278-11.276-16.953-24.895-16.953-40.784
			s5.675-29.508,16.953-40.857c11.278-11.349,24.897-17.024,40.786-17.024C1374.457,126.129,1388.076,131.804,1399.426,143.153z
			 M1334.097,159.399c-6.739,6.81-10.143,14.964-10.143,24.469c0,9.579,3.405,17.733,10.143,24.469
			c6.739,6.741,14.896,10.146,24.472,10.146c9.505,0,17.662-3.405,24.472-10.146c6.809-6.736,10.214-14.891,10.214-24.469
			c0-9.505-3.405-17.66-10.214-24.469c-6.81-6.81-14.967-10.214-24.472-10.214C1348.993,149.185,1340.835,152.59,1334.097,159.399z"
			/>
	</g>
</g>
</svg>