<!-- Generator: Adobe Illustrator 19.2.1, SVG Export Plug-In  -->
<svg version="1.1"
	 xmlns="http://www.w3.org/2000/svg" xmlns:xlink="http://www.w3.org/1999/xlink" xmlns:a="http://ns.adobe.com/AdobeSVGViewerExtensions/3.0/"
	 x="0px" y="0px" width="1172.839px" height="294.442px" viewBox="0 0 1172.839 294.442"
	 style="enable-background:new 0 0 1172.839 294.442;" xml:space="preserve">
<style type="text/css">
	.st0{fill:#231F20;}
	.st1{fill:#A2A2A2;}
	.st2{fill:#BE0E2F;}
</style>
<defs>
</defs>
<g>
	<path class="st0" d="M80.653,4.247v42.648h-2.598V4.247H68.042V1.648h22.623v2.599H80.653z"/>
	<path class="st0" d="M105.938,44.615c-1.733,1.859-4.162,2.787-7.288,2.787c-3.085,0-5.472-0.908-7.161-2.725
		c-1.69-1.815-2.535-4.35-2.535-7.603V20.723h2.598v16.352c0,2.491,0.549,4.415,1.648,5.767c1.14,1.352,2.957,2.026,5.45,2.026
		c4.857,0,7.288-2.597,7.288-7.793V20.723h2.534v16.352C108.472,40.285,107.627,42.797,105.938,44.615z"/>
	<path class="st0" d="M133.249,46.896V1.648h2.535v42.648h12.738v2.599H133.249z"/>
	<path class="st0" d="M153.084,16.033c-0.466,0-0.951-0.19-1.458-0.568c-0.38-0.38-0.592-0.887-0.634-1.522
		c0-1.141,0.697-1.838,2.092-2.09c1.055,0,1.752,0.697,2.091,2.09C155.175,15.336,154.478,16.033,153.084,16.033z M151.753,46.896
		V20.723h2.598v26.173H151.753z"/>
	<path class="st0" d="M175.327,47.402c-3.888,0-7.12-1.288-9.696-3.864c-2.577-2.576-3.866-5.808-3.866-9.695
		s1.288-7.119,3.866-9.698c2.576-2.576,5.808-3.864,9.696-3.864c3.337,0,5.998,0.761,7.984,2.281v3.106l-1.647-1.077l-1.775-0.951
		c-1.606-0.548-3.127-0.823-4.562-0.823c-3.254,0-5.894,1.013-7.921,3.042c-2.071,2.07-3.105,4.731-3.105,7.986
		c0,3.209,1.034,5.852,3.105,7.921c2.069,2.07,4.71,3.103,7.921,3.103c3.042,0,5.703-1.013,7.984-3.042v3.232
		C180.944,46.621,178.283,47.402,175.327,47.402z"/>
	<path class="st0" d="M187.493,33.272c0,3.548,0.951,6.358,2.851,8.428c1.986,2.113,4.711,3.168,8.175,3.168
		c1.774,0,3.379-0.293,4.816-0.887c1.816-0.761,3.443-2.301,4.879-4.625l2.345,1.077c-1.647,3.126-4.182,5.24-7.604,6.338
		c-1.31,0.422-2.788,0.633-4.436,0.633c-3.929,0-7.161-1.288-9.696-3.864c-2.577-2.576-3.866-5.808-3.866-9.695
		c0-3.931,1.268-7.163,3.803-9.698c2.576-2.576,5.83-3.864,9.759-3.864c3.886,0,7.097,1.203,9.632,3.612
		c2.576,2.407,3.866,5.535,3.866,9.379H187.493z M205.364,24.97c-1.987-1.437-4.268-2.155-6.844-2.155
		c-5.409,0-8.957,2.661-10.647,7.983h21.23C208.68,28.392,207.433,26.448,205.364,24.97z"/>
	<path class="st0" d="M235.655,46.896V31.243c0-5.535-2.493-8.302-7.478-8.302c-2.451,0-4.309,0.72-5.577,2.155
		c-1.31,1.437-1.965,3.401-1.965,5.893v15.907h-2.598V20.723h2.598v3.17c1.183-2.324,3.697-3.486,7.541-3.486
		c3.252,0,5.745,0.931,7.478,2.789c1.732,1.859,2.598,4.458,2.598,7.793v15.907H235.655z"/>
	<path class="st0" d="M258.975,47.402c-3.888,0-7.12-1.288-9.696-3.864c-2.577-2.576-3.866-5.808-3.866-9.695
		s1.288-7.119,3.866-9.698c2.576-2.576,5.808-3.864,9.696-3.864c3.337,0,5.998,0.761,7.984,2.281v3.106l-1.647-1.077l-1.775-0.951
		c-1.606-0.548-3.127-0.823-4.562-0.823c-3.254,0-5.894,1.013-7.921,3.042c-2.071,2.07-3.105,4.731-3.105,7.986
		c0,3.209,1.034,5.852,3.105,7.921c2.069,2.07,4.71,3.103,7.921,3.103c3.042,0,5.703-1.013,7.984-3.042v3.232
		C264.593,46.621,261.931,47.402,258.975,47.402z"/>
	<path class="st0" d="M274.628,16.033c-0.466,0-0.951-0.19-1.458-0.568c-0.38-0.38-0.592-0.887-0.634-1.522
		c0-1.141,0.697-1.838,2.091-2.09c1.056,0,1.752,0.697,2.091,2.09C276.718,15.336,276.022,16.033,274.628,16.033z M273.296,46.896
		V20.723h2.598v26.173H273.296z"/>
	<path class="st0" d="M306.502,46.896v-4.499c-2.746,3.296-6.232,4.944-10.456,4.944c-3.803,0-6.993-1.288-9.569-3.867
		c-2.62-2.62-3.929-5.831-3.929-9.631c0-3.803,1.288-6.993,3.866-9.569c2.619-2.62,5.83-3.931,9.632-3.931
		c4.182,0,7.668,1.648,10.456,4.944v-4.564h2.599v26.173H306.502z M303.777,26.109c-2.155-2.155-4.732-3.232-7.731-3.232
		c-3.042,0-5.62,1.057-7.731,3.17c-2.155,2.155-3.232,4.751-3.232,7.795c0,2.998,1.077,5.577,3.232,7.731
		c2.155,2.155,4.731,3.232,7.731,3.232c3.042,0,5.618-1.057,7.731-3.17c2.155-2.155,3.232-4.751,3.232-7.793
		C307.009,30.842,305.932,28.263,303.777,26.109z"/>
	<path class="st0" d="M320.76,23.322v23.574h-2.598V23.322h-3.549v-2.599h3.549V9.253h2.598v11.469h6.084v2.599H320.76z"/>
	<path class="st0" d="M349.341,44.615c-1.733,1.859-4.162,2.787-7.288,2.787c-3.085,0-5.472-0.908-7.161-2.725
		c-1.69-1.815-2.535-4.35-2.535-7.603V20.723h2.598v16.352c0,2.491,0.549,4.415,1.648,5.767c1.14,1.352,2.957,2.026,5.45,2.026
		c4.857,0,7.288-2.597,7.288-7.793V20.723h2.534v16.352C351.875,40.285,351.03,42.797,349.341,44.615z"/>
	<path class="st0" d="M372.217,24.589c-0.677-0.507-1.395-0.908-2.155-1.203c-0.76-0.296-1.563-0.445-2.408-0.445
		c-0.719,0-1.394,0.222-2.028,0.665c-0.634,0.445-1.183,0.995-1.647,1.648c-0.466,0.656-0.835,1.384-1.109,2.187
		c-0.275,0.802-0.412,1.543-0.412,2.219v17.236h-2.598V20.723h2.598v3.55c0.549-0.972,1.268-1.859,2.155-2.663
		c0.888-0.8,1.859-1.203,2.915-1.203c1.309,0,2.386,0.149,3.232,0.445c0.845,0.296,1.795,0.823,2.852,1.584L372.217,24.589z"/>
	<path class="st0" d="M400.227,46.896v-4.499c-2.746,3.296-6.232,4.944-10.456,4.944c-3.803,0-6.993-1.288-9.569-3.867
		c-2.62-2.62-3.929-5.831-3.929-9.631c0-3.803,1.288-6.993,3.866-9.569c2.619-2.62,5.83-3.931,9.632-3.931
		c4.182,0,7.668,1.648,10.456,4.944v-4.564h2.599v26.173H400.227z M397.502,26.109c-2.155-2.155-4.732-3.232-7.731-3.232
		c-3.042,0-5.62,1.057-7.731,3.17c-2.155,2.155-3.232,4.751-3.232,7.795c0,2.998,1.077,5.577,3.232,7.731
		c2.155,2.155,4.731,3.232,7.731,3.232c3.042,0,5.618-1.057,7.731-3.17c2.155-2.155,3.232-4.751,3.232-7.793
		C400.734,30.842,399.657,28.263,397.502,26.109z"/>
	<path class="st0" d="M448.705,46.896v-4.499c-2.746,3.296-6.232,4.944-10.456,4.944c-3.803,0-6.993-1.288-9.569-3.867
		c-2.62-2.62-3.929-5.831-3.929-9.631c0-3.803,1.288-6.993,3.866-9.569c2.619-2.62,5.83-3.931,9.632-3.931
		c4.182,0,7.668,1.648,10.456,4.944v-4.564h2.599v26.173H448.705z M445.98,26.109c-2.155-2.155-4.732-3.232-7.731-3.232
		c-3.042,0-5.62,1.057-7.731,3.17c-2.155,2.155-3.232,4.751-3.232,7.795c0,2.998,1.077,5.577,3.232,7.731
		c2.155,2.155,4.731,3.232,7.731,3.232c3.042,0,5.618-1.057,7.731-3.17c2.155-2.155,3.232-4.751,3.232-7.793
		C449.212,30.842,448.135,28.263,445.98,26.109z"/>
	<path class="st0" d="M459.731,46.896V0h2.534v46.896H459.731z"/>
	<path class="st0" d="M517.144,46.896V28.834c0-1.604-0.528-2.998-1.584-4.181c-1.057-1.183-2.577-1.776-4.563-1.776
		c-4.098,0-6.147,1.987-6.147,5.957v18.061h-2.598V28.834c0-1.774-0.592-3.188-1.774-4.245c-1.226-1.141-2.683-1.712-4.373-1.712
		c-1.733,0-3.191,0.55-4.373,1.648c-1.183,1.057-1.775,2.494-1.775,4.309v18.061h-2.598V20.723h2.598v2.599
		c1.268-1.985,3.316-2.98,6.147-2.98c3.379,0,5.872,1.375,7.478,4.121c1.521-2.746,3.992-4.121,7.414-4.121
		c2.619,0,4.731,0.74,6.337,2.219c1.605,1.522,2.408,3.612,2.408,6.273v18.061H517.144z"/>
	<path class="st0" d="M550.096,46.896v-4.499c-2.746,3.296-6.232,4.944-10.456,4.944c-3.803,0-6.993-1.288-9.569-3.867
		c-2.62-2.62-3.929-5.831-3.929-9.631c0-3.803,1.288-6.993,3.866-9.569c2.619-2.62,5.83-3.931,9.632-3.931
		c4.182,0,7.667,1.648,10.456,4.944v-4.564h2.599v26.173H550.096z M547.371,26.109c-2.155-2.155-4.732-3.232-7.731-3.232
		c-3.042,0-5.62,1.057-7.731,3.17c-2.155,2.155-3.232,4.751-3.232,7.795c0,2.998,1.077,5.577,3.232,7.731
		c2.155,2.155,4.731,3.232,7.731,3.232c3.042,0,5.618-1.057,7.731-3.17c2.155-2.155,3.232-4.751,3.232-7.793
		C550.603,30.842,549.526,28.263,547.371,26.109z M539.197,17.174l-1.584-1.458l8.492-8.492l1.394,1.522L539.197,17.174z"/>
	<path class="st0" d="M573.289,45.248c-1.69,1.437-3.718,2.155-6.084,2.155c-4.055,0-7.097-1.838-9.125-5.512l2.218-1.332
		c0.718,1.311,1.584,2.324,2.598,3.042c1.055,0.805,2.493,1.206,4.309,1.206c3.971,0,5.957-1.689,5.957-5.07
		c0-1.478-0.697-2.767-2.091-3.867c-0.423-0.252-1.025-0.539-1.806-0.855c-0.782-0.316-1.743-0.685-2.883-1.109
		c-2.113-0.761-3.634-1.52-4.563-2.281c-1.352-1.098-2.028-2.682-2.028-4.754c0-1.774,0.676-3.294,2.028-4.561
		c1.309-1.311,3.02-1.967,5.133-1.967c2.915,0,5.386,1.015,7.414,3.044l-1.901,1.646c-1.437-1.435-3.275-2.155-5.514-2.155
		c-3.042,0-4.563,1.332-4.563,3.993c0,1.183,0.465,2.155,1.394,2.916c0.761,0.591,1.965,1.162,3.612,1.712
		c1.436,0.507,2.619,0.981,3.549,1.426c0.929,0.442,1.626,0.834,2.091,1.171c1.816,1.394,2.725,3.275,2.725,5.641
		C575.761,42.016,574.937,43.854,573.289,45.248z"/>
	<path class="st0" d="M619.549,46.896v-4.499c-2.746,3.296-6.232,4.944-10.456,4.944c-3.803,0-6.992-1.288-9.569-3.867
		c-2.62-2.62-3.929-5.831-3.929-9.631c0-3.803,1.288-6.993,3.866-9.569c2.619-2.62,5.83-3.931,9.632-3.931
		c4.182,0,7.668,1.648,10.456,4.944v-4.564h2.599v26.173H619.549z M616.824,26.109c-2.155-2.155-4.732-3.232-7.731-3.232
		c-3.042,0-5.62,1.057-7.731,3.17c-2.155,2.155-3.232,4.751-3.232,7.795c0,2.998,1.077,5.577,3.232,7.731
		c2.155,2.155,4.731,3.232,7.731,3.232c3.042,0,5.618-1.057,7.731-3.17c2.155-2.155,3.232-4.751,3.232-7.793
		C620.056,30.842,618.979,28.263,616.824,26.109z"/>
	<path class="st0" d="M630.576,46.896V0h2.534v46.896H630.576z"/>
	<path class="st0" d="M645.974,23.322v23.574h-2.598V23.322h-3.549v-2.599h3.549V9.253h2.598v11.469h6.084v2.599H645.974z"/>
	<path class="st0" d="M676.012,43.409c-2.62,2.62-5.83,3.931-9.632,3.931c-3.803,0-6.992-1.288-9.569-3.867
		c-2.62-2.62-3.929-5.831-3.929-9.631c0-3.761,1.309-6.95,3.929-9.569c2.577-2.663,5.767-3.993,9.569-3.993
		c3.76,0,6.949,1.309,9.569,3.929c2.619,2.62,3.929,5.831,3.929,9.634C679.878,37.643,678.589,40.833,676.012,43.409z
		 M674.175,26.047c-2.113-2.155-4.711-3.232-7.795-3.232c-2.958,0-5.514,1.098-7.668,3.294c-2.197,2.198-3.295,4.777-3.295,7.733
		c0,2.998,1.077,5.577,3.232,7.731c2.155,2.155,4.731,3.232,7.731,3.232c3.042,0,5.618-1.057,7.731-3.17
		c2.155-2.155,3.232-4.751,3.232-7.793C677.343,30.757,676.286,28.16,674.175,26.047z"/>
</g>
<g>
	<path class="st1" d="M396.866,161.535l-6.888,15.22h-3.674h-0.853h-13.777h-4.527l47.957-107.46l48.088,107.46h-4.527h-13.777
		h-0.918h-3.674l-6.823-15.286l-0.328-0.722h-36.017L396.866,161.535z M424.486,142.051l-9.316-21.978l-9.381,21.978H424.486z"/>
	<path class="st1" d="M521.843,71.001c7.348,0,14.236,1.378,20.731,4.199c6.495,2.821,12.202,6.626,17.123,11.415l-15.089,15.089
		c-6.364-6.298-13.908-9.447-22.634-9.447c-8.857,0-16.401,3.149-22.634,9.447s-9.381,13.843-9.381,22.634
		c0,8.857,3.149,16.401,9.381,22.634c6.232,6.232,13.777,9.381,22.634,9.381c8.857,0,16.401-3.149,22.699-9.447l15.089,15.089
		c-4.92,4.855-10.628,8.66-17.123,11.481s-13.383,4.199-20.731,4.199c-14.695,0-27.292-5.248-37.723-15.68
		c-10.431-10.431-15.68-23.027-15.68-37.723s5.248-27.292,15.68-37.788s23.027-15.745,37.723-15.745L521.843,71.001z"/>
	<path class="st1" d="M592.565,161.535l-6.888,15.22h-3.674h-0.853h-13.777h-4.527l47.957-107.46l48.088,107.46h-4.527h-13.777
		h-0.918h-3.674l-6.823-15.286l-0.328-0.722h-36.017L592.565,161.535z M620.185,142.051l-9.316-21.978l-9.381,21.978H620.185z"/>
	<path class="st1" d="M692.875,71.46c14.499,0,28.21,5.183,38.576,15.548c18.894,18.894,18.894,55.698,0,74.527
		c-10.366,10.3-24.077,15.483-38.576,15.483h-26.111V71.526h26.111V71.46z M693.006,155.828c8.66,0,16.664-2.427,22.83-8.594
		c6.167-6.167,8.594-14.302,8.594-23.027c0-8.66-2.427-16.795-8.66-23.027c-6.167-6.232-14.302-8.66-22.962-8.66h-4.855v63.309
		h4.986H693.006z"/>
	<path class="st1" d="M816.868,71.198v21.125h-42.249v21.19h31.687v21.125h-31.687v21.125h42.249v21.19h-42.249h-21.19V71.198
		H816.868z M804.403,41.282l-21.518,20.009l-7.61-5.773l16.86-23.946L804.403,41.282z"/>
	<path class="st1" d="M878.339,140.017l51.565-70.722v107.723h-21.19v-43.627l-30.375,41.921l-30.375-41.921v43.627h-21.19V69.295
		L878.339,140.017z"/>
	<path class="st1" d="M940.401,71.263h21.19v105.755h-21.19V71.263z"/>
	<path class="st1" d="M1022.801,71.001c7.348,0,14.236,1.378,20.731,4.199c6.495,2.821,12.202,6.626,17.123,11.415l-15.089,15.089
		c-6.364-6.298-13.908-9.447-22.634-9.447c-8.857,0-16.401,3.149-22.634,9.447c-6.232,6.298-9.381,13.843-9.381,22.634
		c0,8.857,3.149,16.401,9.381,22.634c6.232,6.232,13.777,9.381,22.634,9.381s16.401-3.149,22.699-9.447l15.089,15.089
		c-4.92,4.855-10.628,8.66-17.123,11.481s-13.383,4.199-20.731,4.199c-14.695,0-27.292-5.248-37.723-15.68
		c-10.431-10.431-15.68-23.027-15.68-37.723s5.248-27.292,15.68-37.788s23.027-15.745,37.723-15.745L1022.801,71.001z"/>
	<path class="st1" d="M1157.094,86.484c10.497,10.497,15.745,23.093,15.745,37.788s-5.248,27.292-15.745,37.723
		c-10.497,10.431-23.093,15.68-37.788,15.68s-27.292-5.248-37.723-15.68c-10.431-10.431-15.679-23.027-15.679-37.723
		s5.248-27.292,15.679-37.788s23.027-15.745,37.723-15.745S1146.597,75.987,1157.094,86.484z M1096.672,101.507
		c-6.232,6.298-9.381,13.843-9.381,22.634c0,8.857,3.149,16.401,9.381,22.634c6.232,6.232,13.777,9.381,22.634,9.381
		c8.791,0,16.336-3.149,22.634-9.381c6.298-6.232,9.447-13.777,9.447-22.634c0-8.791-3.149-16.336-9.447-22.634
		c-6.298-6.298-13.843-9.447-22.634-9.447C1110.449,92.06,1102.904,95.209,1096.672,101.507z"/>
</g>
<path class="st0" d="M416.983,207.328l37.918,83.387h-11.493l-9.322-20.544h-34.08l-9.218,20.544h-11.412L416.983,207.328z
	 M416.949,232.388l-12.839,28.641h25.83L416.949,232.388z"/>
<path class="st0" d="M460.76,210.534h10.968v49.367c0,7.307,1.755,12.962,5.27,16.948c3.505,3.999,8.477,5.991,14.904,5.991
	c6.389,0,11.36-1.833,14.909-5.515c3.547-3.676,5.328-8.859,5.328-15.539v-51.252h10.962v50.495c0,9.834-2.801,17.694-8.409,23.576
	c-5.614,5.887-13.087,8.822-22.414,8.822c-9.54,0-17.174-2.975-22.915-8.945c-5.738-5.97-8.604-14.769-8.604-26.415V210.534z"/>
<path class="st0" d="M534.196,210.407h49.107v10.975h-19.158v69.333H553.3v-69.333h-19.103V210.407z"/>
<path class="st0" d="M592.321,250.088c0-11.582,4.368-21.517,13.11-29.788c8.744-8.276,19.252-12.408,31.516-12.408
	c11.979,0,22.296,4.168,30.955,12.505c8.656,8.339,12.988,18.235,12.988,29.691c0,12.145-4.28,22.4-12.832,30.78
	c-8.549,8.378-19.051,12.559-31.488,12.559c-12.265,0-22.715-4.22-31.332-12.66C596.629,272.33,592.321,262.108,592.321,250.088z
	 M669.224,250.598c0-8.854-3.193-16.319-9.584-22.383c-6.381-6.074-14.246-9.108-23.568-9.108c-8.872,0-16.472,3.091-22.793,9.264
	c-6.324,6.17-9.485,13.575-9.485,22.227c0,8.775,3.245,16.199,9.735,22.265c6.492,6.066,14.451,9.098,23.861,9.098
	c8.661,0,16.134-3.097,22.416-9.29C666.082,266.474,669.224,259.123,669.224,250.598z M629.574,202.408l8.383-17.528h14.881
	l-13.932,17.528H629.574z"/>
<path class="st0" d="M694.565,207.198l59.385,61.039v-57.831h10.968v84.035l-59.383-60.761v57.035h-10.97V207.198z"/>
<path class="st0" d="M777.963,250.088c0-11.582,4.374-21.517,13.118-29.788c8.734-8.276,19.241-12.408,31.511-12.408
	c11.979,0,22.297,4.168,30.952,12.505c8.653,8.339,12.983,18.235,12.983,29.691c0,12.145-4.272,22.4-12.827,30.78
	c-8.549,8.378-19.049,12.559-31.485,12.559c-12.268,0-22.71-4.22-31.327-12.66C782.269,272.33,777.963,262.108,777.963,250.088z
	 M854.865,250.598c0-8.854-3.193-16.319-9.579-22.383c-6.389-6.074-14.246-9.108-23.573-9.108c-8.866,0-16.464,3.091-22.788,9.264
	c-6.324,6.17-9.49,13.575-9.49,22.227c0,8.775,3.247,16.199,9.743,22.265c6.492,6.066,14.449,9.098,23.854,9.098
	c8.661,0,16.131-3.097,22.411-9.29C851.729,266.474,854.865,259.123,854.865,250.598z"/>
<path class="st0" d="M947.125,207.073l21.969,83.642h-10.752l-13.295-51.111l-22.884,54.206l-22.962-54.645l-13.472,51.551H875.04
	l21.966-83.642l25.146,59.848L947.125,207.073z"/>
<path class="st0" d="M1010.348,207.328l37.919,83.387h-11.493l-9.324-20.544h-34.08l-9.21,20.544h-11.41L1010.348,207.328z
	 M1010.325,232.388l-12.85,28.641h25.83L1010.325,232.388z"/>
<g>
	<path class="st2" d="M7.691,71.159l71.578,100.286V71.159h6.092v107.672h-9.366L6.092,80.906v97.925H0V71.159H7.691z"/>
	<path class="st2" d="M109.043,71.159v107.672h-6.092V71.159H109.043z"/>
	<path class="st2" d="M193.033,71.159h6.396l-38.683,107.672h-3.731L118.333,71.159h6.396l34.19,96.707L193.033,71.159z"/>
	<path class="st2" d="M261.794,71.159v6.092H214.05v44.698h47.744v6.092H214.05v44.698h47.744v6.092h-53.836V71.159H261.794z"/>
	<path class="st2" d="M278.851,178.831V71.159h6.092v101.58h41.043v6.092H278.851z"/>
</g>
</svg>