<?xml version="1.0" encoding="utf-8"?>
<!-- Generator: Adobe Illustrator 25.4.1, SVG Export Plug-In . SVG Version: 6.00 Build 0)  -->
<svg version="1.1" id="Capa_1" xmlns="http://www.w3.org/2000/svg" xmlns:xlink="http://www.w3.org/1999/xlink" x="0px" y="0px"
	 viewBox="0 0 178 55" style="enable-background:new 0 0 178 55;" xml:space="preserve">
<style type="text/css">
	.st0{fill:#C10230;}
	.st1{fill:#FFFFFF;}
</style>
<g>
	<g>
		<rect class="st0" width="178" height="55"/>
	</g>
	<g>
		<path class="st1" d="M20.83,19.47c-1.05-0.47-2.3-0.7-3.76-0.7h-6.44v17.22h1.82v-5.44h4.62c1.46,0,2.71-0.24,3.76-0.71
			c1.05-0.47,1.86-1.15,2.42-2.03c0.57-0.88,0.85-1.92,0.85-3.14c0-1.25-0.28-2.31-0.85-3.18S21.88,19.94,20.83,19.47z M20.94,27.83
			c-0.89,0.75-2.2,1.12-3.92,1.12h-4.57v-8.61h4.57c1.72,0,3.03,0.38,3.92,1.13c0.89,0.75,1.34,1.82,1.34,3.2
			C22.28,26.03,21.84,27.09,20.94,27.83z"/>
		<path class="st1" d="M42.27,21.1c-0.81-0.79-1.77-1.4-2.87-1.83c-1.1-0.43-2.3-0.65-3.59-0.65c-1.31,0-2.52,0.22-3.62,0.65
			c-1.1,0.43-2.05,1.05-2.87,1.84c-0.81,0.79-1.44,1.72-1.89,2.78c-0.45,1.06-0.68,2.22-0.68,3.48s0.23,2.42,0.68,3.48
			c0.45,1.06,1.08,1.98,1.89,2.78c0.81,0.79,1.77,1.41,2.88,1.84c1.11,0.44,2.31,0.65,3.6,0.65c1.29,0,2.49-0.22,3.59-0.65
			c1.1-0.43,2.05-1.04,2.87-1.83c0.81-0.79,1.44-1.71,1.89-2.78c0.45-1.07,0.68-2.23,0.68-3.49s-0.23-2.43-0.68-3.49
			C43.71,22.82,43.08,21.89,42.27,21.1z M42.48,30.22c-0.36,0.86-0.87,1.62-1.51,2.26c-0.65,0.65-1.41,1.15-2.29,1.5
			c-0.88,0.35-1.83,0.53-2.87,0.53c-1.03,0-1.99-0.18-2.88-0.53s-1.65-0.85-2.3-1.5c-0.65-0.65-1.16-1.41-1.52-2.28
			s-0.55-1.81-0.55-2.83c0-1.03,0.18-1.98,0.55-2.84c0.37-0.86,0.88-1.62,1.52-2.26c0.65-0.65,1.41-1.15,2.3-1.5
			s1.84-0.53,2.88-0.53c1.03,0,1.99,0.18,2.87,0.53c0.88,0.35,1.64,0.85,2.29,1.5c0.65,0.65,1.15,1.4,1.51,2.26
			c0.36,0.86,0.54,1.81,0.54,2.84S42.84,29.36,42.48,30.22z"/>
		<path class="st1" d="M59.13,29.82c1.05-0.47,1.86-1.14,2.42-2.02c0.57-0.88,0.85-1.92,0.85-3.14c0-1.25-0.28-2.31-0.85-3.18
			s-1.37-1.55-2.42-2.02s-2.3-0.7-3.76-0.7h-6.44v17.22h1.82v-5.46h4.62c0.49,0,0.94-0.04,1.38-0.09l3.93,5.55h1.99l-4.21-5.91
			C58.69,30,58.91,29.92,59.13,29.82z M55.31,28.98h-4.57v-8.63h4.57c1.72,0,3.03,0.38,3.92,1.13c0.89,0.75,1.34,1.82,1.34,3.2
			c0,1.36-0.45,2.42-1.34,3.17C58.34,28.6,57.04,28.98,55.31,28.98z"/>
		<polygon class="st1" points="77.67,18.77 63.75,18.77 63.75,20.34 69.8,20.34 69.8,35.98 71.62,35.98 71.62,20.34 77.67,20.34 		
			"/>
		<path class="st1" d="M84.83,18.77l-7.87,17.22h1.89l2.06-4.6h9.61l2.06,4.6h1.92l-7.87-17.22H84.83z M81.57,29.91l4.14-9.26
			l4.14,9.26H81.57z"/>
		<polygon class="st1" points="99.17,18.77 97.35,18.77 97.35,35.98 108.81,35.98 108.81,34.41 99.17,34.41 		"/>
		<path class="st1" d="M121.35,28.07c0,1.31-0.23,2.24-0.7,2.79c-0.47,0.55-1.11,0.82-1.93,0.82c-0.8,0-1.44-0.27-1.92-0.82
			c-0.48-0.55-0.71-1.48-0.71-2.79v-9.3h-5.8v9.47c0,2.58,0.74,4.58,2.21,6c1.48,1.43,3.53,2.14,6.17,2.14
			c2.64,0,4.7-0.71,6.17-2.14c1.48-1.43,2.21-3.43,2.21-6v-9.47h-5.71V28.07z"/>
		<path class="st1" d="M135.01,18.77l-7.53,17.22h5.9l1.15-3h6.55l1.15,3h6l-7.53-17.22H135.01z M136.14,28.8l1.67-4.34l1.67,4.34
			H136.14z"/>
		<path class="st1" d="M166.14,22.78c-0.82-1.28-1.96-2.27-3.42-2.96c-1.46-0.7-3.15-1.05-5.07-1.05h-8.49v17.22h8.49
			c1.92,0,3.61-0.35,5.07-1.04c1.46-0.7,2.6-1.69,3.42-2.98s1.23-2.82,1.23-4.61C167.38,25.58,166.97,24.06,166.14,22.78z M161,29.6
			c-0.34,0.62-0.82,1.08-1.44,1.39c-0.62,0.31-1.33,0.47-2.15,0.47h-2.43v-8.17h2.43c0.82,0,1.54,0.16,2.15,0.47
			c0.62,0.31,1.09,0.77,1.44,1.38c0.34,0.61,0.52,1.34,0.52,2.21C161.52,28.24,161.35,28.99,161,29.6z"/>
	</g>
</g>
</svg>
