<?xml version="1.0" encoding="utf-8"?>
<!-- Generator: Adobe Illustrator 22.1.0, SVG Export Plug-In . SVG Version: 6.00 Build 0)  -->
<svg version="1.1" id="Capa_1" xmlns="http://www.w3.org/2000/svg" xmlns:xlink="http://www.w3.org/1999/xlink" x="0px" y="0px"
	 width="1007px" height="118px" viewBox="0 0 1007 118" style="enable-background:new 0 0 1007 118;" xml:space="preserve">
<style type="text/css">
	.st0{fill:#FFFFFF;}
	.st1{fill:#C10230;}
</style>
<g>
	<g>
		<path class="st0" d="M16.8,79.3V88h15.3v8.9H16.8v9.2h17.8v8.9H7.9V70.5h26.7v8.8H16.8z"/>
		<path class="st0" d="M76.8,70.4v45.3h-0.4L50.1,90.1v24.8h-8.9V69.7h0.4l26.3,25.6V70.4H76.8z"/>
		<path class="st0" d="M129.1,79.4h-10.9v35.5h-8.9V79.4H98.3v-8.8h30.8V79.4z"/>
		<path class="st0" d="M134.1,70.5h8.9v44.3h-8.9V70.5z"/>
		<path class="st0" d="M159.6,79.3V88h15.3v8.9h-15.3v9.2h17.8v8.9h-26.7V70.5h26.7v8.8H159.6z"/>
		<path class="st0" d="M227.4,69.4v45.4h-8.9V95.6l-12.8,18.6h-0.1l-12.8-18.6v19.3H184V69.4h0.5l21.2,29.3l21.2-29.3H227.4z"/>
		<path class="st0" d="M235.1,70.5h15.6c8.6,0,15.6,6.7,15.6,15c0,8.2-7,14.9-15.6,14.9h-6.7v14.4h-8.9V70.5z M257.4,85.4
			c0-3.4-3-6.1-6.7-6.1h-6.7v12.3l6.7,0C254.4,91.7,257.4,88.9,257.4,85.4z"/>
		<path class="st0" d="M269.4,92.8c0-12.7,10.4-23.1,23.1-23.1c12.7,0,23.1,10.4,23.1,23.1c0,12.6-10.4,23-23.1,23
			C279.8,115.7,269.4,105.4,269.4,92.8z M306.5,92.7c0-7.8-6.3-14.1-14.1-14.1c-7.7,0-14,6.3-14,14.1c0,7.7,6.3,14,14,14
			C300.2,106.7,306.5,100.4,306.5,92.7z"/>
		<path class="st0" d="M360.9,114.9l-14.1-21v21h-8.9l0-44.3h14.5c8.3,0,15.1,6.4,15.1,14.4c0,5.7-3.4,10.7-8.2,12.4l12.6,17.6
			H360.9z M346.7,90.5l5.7,0c3,0,5.7-2.4,5.7-5.6s-2.7-5.6-5.7-5.6h-5.7V90.5z"/>
		<path class="st0" d="M384.9,79.3V88h15.3v8.9h-15.3v9.2h17.8v8.9H376V70.5h26.7v8.8H384.9z"/>
		<path class="st0" d="M436.2,108.7h-17.7l-2.8,6.2H406l21.2-45.4h0.3l21.2,45.4H439L436.2,108.7z M432.7,101.1l-5.4-11.9l-5.4,11.9
			H432.7z"/>
		<path class="st0" d="M479.8,106v8.9h-26.7V70.5h8.9V106H479.8z"/>
	</g>
	<g>
		<path class="st1" d="M18.4,15.9v46.5h-2.8V15.9H3.1v-2.8h27.7v2.8H18.4z"/>
		<path class="st1" d="M65.2,13.2H68v35.4c-0.5,3.8-2.1,7-4.7,9.6c-3.1,3.1-6.9,4.7-11.4,4.7c-4.5,0-8.3-1.6-11.4-4.7
			c-3.1-3.1-4.7-6.9-4.7-11.4V13.2h2.8v33.6c0,3.6,1.3,6.8,3.9,9.4c2.6,2.6,5.7,3.9,9.4,3.9c3.7,0,6.8-1.3,9.4-3.9
			c2.6-2.6,3.9-5.7,3.9-9.4V13.2z"/>
		<path class="st1" d="M93.6,62.5V13.2h2.8v46.5h18.8v2.8H93.6z"/>
		<path class="st1" d="M124,13.2v49.3h-2.8V13.2H124z"/>
		<path class="st1" d="M170.9,54.6l2.1,1.9c-4.8,4.4-10.5,6.6-17,6.6c-7,0-13-2.5-17.9-7.4c-4.9-4.9-7.4-10.9-7.4-17.9
			c0-6.9,2.5-12.9,7.4-17.8c4.9-4.9,10.9-7.4,17.9-7.4c6.5,0,12.2,2.2,17,6.6l-2.1,1.9c-4.2-3.7-9.2-5.6-14.9-5.6
			c-6.2,0-11.5,2.2-15.8,6.6c-4.4,4.4-6.6,9.6-6.6,15.8c0,6.2,2.2,11.5,6.6,15.9c4.4,4.4,9.7,6.6,15.8,6.6
			C161.7,60.2,166.7,58.4,170.9,54.6z"/>
		<path class="st1" d="M203.8,13.2v2.8h-21.9v20.5h21.9v2.8h-21.9v20.5h21.9v2.8h-24.6V13.2H203.8z"/>
		<path class="st1" d="M215,13.2l32.8,45.9V13.2h2.8v49.3h-4.3l-32-44.8v44.8h-2.8V13.2H215z"/>
		<path class="st1" d="M297,54.6l2.1,1.9c-4.8,4.4-10.5,6.6-17,6.6c-7,0-13-2.5-17.9-7.4c-4.9-4.9-7.4-10.9-7.4-17.9
			c0-6.9,2.5-12.9,7.4-17.8c4.9-4.9,10.9-7.4,17.9-7.4c6.5,0,12.2,2.2,17,6.6L297,21c-4.2-3.7-9.2-5.6-14.9-5.6
			c-6.2,0-11.5,2.2-15.8,6.6c-4.4,4.4-6.6,9.6-6.6,15.8c0,6.2,2.2,11.5,6.6,15.9c4.4,4.4,9.7,6.6,15.8,6.6
			C287.8,60.2,292.8,58.4,297,54.6z"/>
		<path class="st1" d="M308.4,13.2v49.3h-2.8V13.2H308.4z"/>
		<path class="st1" d="M333.5,13.2l17.9,49.3h-2.9l-7.9-21.7h-17l-8,21.7h-3l18.1-49.3H333.5z M339.6,38l-7.5-20.7L324.6,38H339.6z"
			/>
		<path class="st1" d="M365.3,15.9v46.5h-2.8V15.9h-12.5v-2.8h27.7v2.8H365.3z"/>
		<path class="st1" d="M412.2,13.2h2.8v35.4c-0.5,3.8-2.1,7-4.7,9.6c-3.1,3.1-6.9,4.7-11.4,4.7c-4.5,0-8.3-1.6-11.4-4.7
			c-3.1-3.1-4.7-6.9-4.7-11.4V13.2h2.8v33.6c0,3.6,1.3,6.8,3.9,9.4c2.6,2.6,5.7,3.9,9.4,3.9c3.7,0,6.8-1.3,9.4-3.9
			c2.6-2.6,3.9-5.7,3.9-9.4V13.2z"/>
		<path class="st1" d="M434.8,45.4h-9.2v17.1h-2.8V13.2h12.9c3.8,0.5,7,2.1,9.6,4.7c3.1,3.2,4.7,6.9,4.7,11.4
			c0,4.5-1.6,8.3-4.7,11.4c-2.2,2.2-4.7,3.6-7.5,4.3l11.4,17.5h-3.4L434.8,45.4z M425.6,16v26.6h8.4c3.6,0,6.8-1.3,9.4-3.9
			s3.9-5.7,3.9-9.4c0-3.7-1.3-6.8-3.9-9.4c-2.6-2.6-5.7-3.9-9.4-3.9H425.6z"/>
		<path class="st1" d="M473.3,13.2l17.9,49.3h-2.9l-7.9-21.7h-17l-8,21.7h-3l18.1-49.3H473.3z M479.3,38l-7.5-20.7L464.3,38H479.3z"
			/>
	</g>
	<g>
		<path class="st0" d="M565.6,3v67.4H565l-39.2-38.1v37h-13.3V1.9h0.7L552.3,40V3H565.6z"/>
		<path class="st0" d="M574.2,36.2c0-19,15.4-34.5,34.3-34.5c18.9,0,34.4,15.5,34.4,34.5c0,18.8-15.5,34.2-34.4,34.2
			C589.6,70.4,574.2,55,574.2,36.2z M629.4,36.1c0-11.6-9.4-21-21-21c-11.5,0-20.9,9.4-20.9,21c0,11.5,9.4,20.9,20.9,20.9
			C620,57,629.4,47.6,629.4,36.1z"/>
		<path class="st0" d="M648.6,36.2c0-18.6,15.7-34.4,34.3-34.4c8.6,0.1,16.2,3.5,23.1,10.2l-7.7,10.4c-4.5-4.4-9.9-7.1-15.6-7.1
			c-10.6,0-20.7,9.4-20.7,21c0,11.8,10.5,20.9,20.7,20.9c6.1,0,11.3-3.2,15.7-7.5l7.6,10.7c-5.8,5.8-12.9,10.1-22.9,10.1
			C664.1,70.4,648.6,54.7,648.6,36.2z"/>
		<path class="st0" d="M755.3,16.3h-16.2v52.9h-13.3V16.3h-16.3V3.1h45.8V16.3z"/>
		<path class="st0" d="M762.2,44.8V3.1h13.4v41.6c0,7.2,5.7,12.5,12.1,12.5s12.2-5.3,12.2-12.5V3.1h13.4v41.6
			c0,15-11.4,25.9-25.5,25.9S762.2,59.7,762.2,44.8z"/>
		<path class="st0" d="M858.4,69.2l-21-31.2v31.2h-13.3l0-66h21.6c12.3,0,22.5,9.5,22.5,21.4c0,8.5-5.1,15.9-12.2,18.4l18.8,26.3
			H858.4z M837.3,32.9l8.5,0c4.5,0,8.5-3.6,8.5-8.3s-4.1-8.3-8.5-8.3h-8.5V32.9z"/>
		<path class="st0" d="M934,3v67.4h-0.6l-39.2-38.1v37h-13.3V1.9h0.7L920.7,40V3H934z"/>
		<path class="st0" d="M985.6,60h-26.4l-4.2,9.2h-14.3l31.5-67.7h0.4l31.6,67.7h-14.4L985.6,60z M980.4,48.6l-8-17.7l-8.1,17.7
			H980.4z"/>
	</g>
	<g>
		<path class="st1" d="M514.4,82c4.6,0,8.1,1.3,10.6,3.8c2.8,2.8,4.2,6.1,4.2,10c0,3.9-1.4,7.3-4.2,10.1c-2.5,2.5-6.1,3.8-10.6,3.8
			h-5.1V82H514.4z M510.8,83.7v24.5h3.6c4,0,7.1-1.1,9.4-3.3c2.5-2.5,3.7-5.4,3.7-8.9c0-3.5-1.2-6.5-3.7-8.9
			c-2.3-2.2-5.4-3.3-9.4-3.3H510.8z"/>
		<path class="st1" d="M554.5,82v1.6h-12.3v11.5h12.3v1.6h-12.3v11.5h12.3v1.6h-13.9V82H554.5z"/>
		<path class="st1" d="M593.3,110c-3,0-5.3-0.8-6.8-2.3c-1.5-1.6-2.2-3.5-2.2-5.8c0-2.3,0.8-4.3,2.4-6c1.1-1.2,2.5-2,4.1-2.6
			c-0.8-0.3-1.6-0.9-2.5-1.9s-1.3-2.2-1.3-3.9c0-1.6,0.6-3,1.7-4.1c1.1-1.1,2.7-1.7,4.6-1.7c1.8,0,3.3,0.6,4.4,1.7
			c1.2,1.1,1.7,2.5,1.7,4.1c0,1.6-0.4,2.9-1.3,3.9c-0.9,0.9-1.7,1.6-2.5,1.9c1.7,0.5,3,1.4,4.1,2.6c1.6,1.7,2.4,3.7,2.4,6
			c0,2.3-0.7,4.2-2.2,5.8S596.3,110,593.3,110z M593.3,108.5c2.6-0.1,4.4-0.8,5.6-2c1.2-1.2,1.7-2.8,1.7-4.6c0-1.8-0.6-3.4-1.9-4.8
			c-1.2-1.3-3-2.2-5.5-2.7c-2.4,0.5-4.2,1.4-5.5,2.7c-1.3,1.4-1.9,3-1.9,4.8c0,1.8,0.6,3.4,1.7,4.6
			C588.8,107.7,590.7,108.4,593.3,108.5z M593.2,83.3c-1.8,0.1-3,0.6-3.6,1.3c-0.6,0.8-1,1.7-1,2.9c0,1.2,0.4,2.2,1.2,3.1
			s1.9,1.5,3.4,2c1.4-0.5,2.6-1.1,3.4-2s1.2-1.9,1.2-3.1c0-1.2-0.3-2.2-1-2.9C596.2,83.9,595,83.4,593.2,83.3L593.2,83.3z"/>
		<path class="st1" d="M615.5,95.3c0.3,0.3,0.5,0.7,0.5,1.1s-0.2,0.8-0.5,1.1s-0.7,0.5-1.1,0.5c-0.4,0-0.8-0.2-1.1-0.5
			c-0.3-0.3-0.5-0.7-0.5-1.1s0.2-0.8,0.5-1.1c0.3-0.3,0.7-0.5,1.1-0.5C614.9,94.8,615.2,95,615.5,95.3z M615.5,107.4
			c0.3,0.3,0.5,0.7,0.5,1.1s-0.2,0.8-0.5,1.1s-0.7,0.5-1.1,0.5c-0.4,0-0.8-0.2-1.1-0.5c-0.3-0.3-0.5-0.7-0.5-1.1s0.2-0.8,0.5-1.1
			c0.3-0.3,0.7-0.5,1.1-0.5C614.9,106.9,615.2,107.1,615.5,107.4z"/>
		<path class="st1" d="M645.1,96.2c0,4.4-0.9,7.8-2.8,10.4s-4.1,3.8-6.7,3.8c-2.6,0-4.9-1.3-6.7-3.8c-1.9-2.5-2.8-6-2.8-10.4
			c0-4.4,0.9-7.8,2.8-10.3c1.9-2.5,4.1-3.8,6.7-3.8c2.6,0,4.9,1.3,6.7,3.8S645.1,91.8,645.1,96.2z M643.5,96.2c0-3.9-0.8-7-2.3-9.2
			c-1.5-2.2-3.4-3.3-5.6-3.3s-4,1.1-5.6,3.3c-1.5,2.2-2.3,5.2-2.3,9.2c0,3.9,0.8,7,2.3,9.2c1.5,2.2,3.4,3.3,5.6,3.3s4-1.1,5.6-3.3
			C642.7,103.2,643.5,100.1,643.5,96.2z"/>
		<path class="st1" d="M674.2,96.2c0,4.4-0.9,7.8-2.8,10.4s-4.1,3.8-6.7,3.8c-2.6,0-4.9-1.3-6.7-3.8c-1.9-2.5-2.8-6-2.8-10.4
			c0-4.4,0.9-7.8,2.8-10.3c1.9-2.5,4.1-3.8,6.7-3.8c2.6,0,4.9,1.3,6.7,3.8S674.2,91.8,674.2,96.2z M672.5,96.2c0-3.9-0.8-7-2.3-9.2
			c-1.5-2.2-3.4-3.3-5.6-3.3s-4,1.1-5.6,3.3c-1.5,2.2-2.3,5.2-2.3,9.2c0,3.9,0.8,7,2.3,9.2c1.5,2.2,3.4,3.3,5.6,3.3s4-1.1,5.6-3.3
			C671.8,103.2,672.5,100.1,672.5,96.2z"/>
		<path class="st1" d="M687,100.2v9.6h-1.6V82h7.3c2.1,0.3,3.9,1.2,5.4,2.6c1.8,1.8,2.6,3.9,2.6,6.4c0,2.5-0.9,4.7-2.6,6.4
			c-1.8,1.8-3.9,2.7-6.4,2.7H687z M687,83.6v15h4.7c2.1,0,3.8-0.7,5.3-2.2c1.5-1.5,2.2-3.2,2.2-5.3c0-2.1-0.7-3.8-2.2-5.3
			s-3.2-2.2-5.3-2.2H687z"/>
		<path class="st1" d="M736.5,82v27.7H735V83.7l-10.7,14.1l-10.8-14.1v26.1h-1.6V82h2.3l10,13.1l10-13.1H736.5z"/>
		<path class="st1" d="M776.2,82l10.1,27.7h-1.6l-4.4-12.2h-9.6l-4.5,12.2h-1.7L774.6,82H776.2z M779.6,96l-4.2-11.6L771.1,96H779.6
			z"/>
		<path class="st1" d="M822.1,108.2V85.1l-2.9,1.9l-1.2-0.9l5.7-4.1v26.2h6v1.6H816v-1.6H822.1z"/>
		<path class="st1" d="M861.4,96.2c0,4.4-0.9,7.8-2.8,10.4s-4.1,3.8-6.7,3.8c-2.6,0-4.9-1.3-6.7-3.8c-1.9-2.5-2.8-6-2.8-10.4
			c0-4.4,0.9-7.8,2.8-10.3c1.9-2.5,4.1-3.8,6.7-3.8c2.6,0,4.9,1.3,6.7,3.8S861.4,91.8,861.4,96.2z M859.7,96.2c0-3.9-0.8-7-2.3-9.2
			c-1.5-2.2-3.4-3.3-5.6-3.3s-4,1.1-5.6,3.3c-1.5,2.2-2.3,5.2-2.3,9.2c0,3.9,0.8,7,2.3,9.2c1.5,2.2,3.4,3.3,5.6,3.3s4-1.1,5.6-3.3
			C859,103.2,859.7,100.1,859.7,96.2z"/>
		<path class="st1" d="M874.2,95.3c0.3,0.3,0.5,0.7,0.5,1.1s-0.2,0.8-0.5,1.1s-0.7,0.5-1.1,0.5c-0.4,0-0.8-0.2-1.1-0.5
			c-0.3-0.3-0.5-0.7-0.5-1.1s0.2-0.8,0.5-1.1c0.3-0.3,0.7-0.5,1.1-0.5C873.5,94.8,873.8,95,874.2,95.3z M874.2,107.4
			c0.3,0.3,0.5,0.7,0.5,1.1s-0.2,0.8-0.5,1.1s-0.7,0.5-1.1,0.5c-0.4,0-0.8-0.2-1.1-0.5c-0.3-0.3-0.5-0.7-0.5-1.1s0.2-0.8,0.5-1.1
			c0.3-0.3,0.7-0.5,1.1-0.5C873.5,106.9,873.8,107.1,874.2,107.4z"/>
		<path class="st1" d="M903.7,96.2c0,4.4-0.9,7.8-2.8,10.4s-4.1,3.8-6.7,3.8c-2.6,0-4.9-1.3-6.7-3.8c-1.9-2.5-2.8-6-2.8-10.4
			c0-4.4,0.9-7.8,2.8-10.3c1.9-2.5,4.1-3.8,6.7-3.8c2.6,0,4.9,1.3,6.7,3.8S903.7,91.8,903.7,96.2z M902.1,96.2c0-3.9-0.8-7-2.3-9.2
			c-1.5-2.2-3.4-3.3-5.6-3.3s-4,1.1-5.6,3.3c-1.5,2.2-2.3,5.2-2.3,9.2c0,3.9,0.8,7,2.3,9.2c1.5,2.2,3.4,3.3,5.6,3.3s4-1.1,5.6-3.3
			C901.3,103.2,902.1,100.1,902.1,96.2z"/>
		<path class="st1" d="M932.8,96.2c0,4.4-0.9,7.8-2.8,10.4s-4.1,3.8-6.7,3.8c-2.6,0-4.9-1.3-6.7-3.8c-1.9-2.5-2.8-6-2.8-10.4
			c0-4.4,0.9-7.8,2.8-10.3c1.9-2.5,4.1-3.8,6.7-3.8c2.6,0,4.9,1.3,6.7,3.8S932.8,91.8,932.8,96.2z M931.1,96.2c0-3.9-0.8-7-2.3-9.2
			c-1.5-2.2-3.4-3.3-5.6-3.3s-4,1.1-5.6,3.3c-1.5,2.2-2.3,5.2-2.3,9.2c0,3.9,0.8,7,2.3,9.2c1.5,2.2,3.4,3.3,5.6,3.3s4-1.1,5.6-3.3
			C930.4,103.2,931.1,100.1,931.1,96.2z"/>
		<path class="st1" d="M945.6,100.2v9.6H944V82h7.3c2.1,0.3,3.9,1.2,5.4,2.6c1.8,1.8,2.6,3.9,2.6,6.4c0,2.5-0.9,4.7-2.6,6.4
			c-1.8,1.8-3.9,2.7-6.4,2.7H945.6z M945.6,83.6v15h4.7c2.1,0,3.8-0.7,5.3-2.2c1.5-1.5,2.2-3.2,2.2-5.3c0-2.1-0.7-3.8-2.2-5.3
			s-3.2-2.2-5.3-2.2H945.6z"/>
		<path class="st1" d="M995.1,82v27.7h-1.6V83.7l-10.7,14.1l-10.8-14.1v26.1h-1.6V82h2.3l10,13.1l10-13.1H995.1z"/>
	</g>
</g>
</svg>
