<!-- Generator: Adobe Illustrator 22.1.0, SVG Export Plug-In  -->
<svg version="1.1"
	 xmlns="http://www.w3.org/2000/svg" xmlns:xlink="http://www.w3.org/1999/xlink" xmlns:a="http://ns.adobe.com/AdobeSVGViewerExtensions/3.0/"
	 x="0px" y="0px" width="171.206px" height="171.206px" viewBox="0 0 171.206 171.206"
	 style="enable-background:new 0 0 171.206 171.206;" xml:space="preserve">
<style type="text/css">
	.st0{fill:#A2A2A2;}
</style>
<defs>
</defs>
<g>
	<path class="st0" d="M85.592,0C38.402,0,0,38.406,0,85.597c0,47.207,38.402,85.609,85.592,85.609
		c47.207,0,85.614-38.402,85.614-85.609C171.206,38.406,132.799,0,85.592,0L85.592,0z M106.892,88.609H92.966v49.651H72.326V88.609
		h-9.814V71.067h9.814V59.719c0-8.116,3.858-20.826,20.826-20.826l15.288,0.065v17.025H97.345c-1.819,0-4.379,0.909-4.379,4.78
		v10.322h15.727L106.892,88.609z M106.892,88.609"/>
</g>
</svg>