<!-- Generator: Adobe Illustrator 22.1.0, SVG Export Plug-In  -->
<svg version="1.1"
	 xmlns="http://www.w3.org/2000/svg" xmlns:xlink="http://www.w3.org/1999/xlink" xmlns:a="http://ns.adobe.com/AdobeSVGViewerExtensions/3.0/"
	 x="0px" y="0px" width="240.407px" height="240.408px" viewBox="0 0 240.407 240.408"
	 style="enable-background:new 0 0 240.407 240.408;" xml:space="preserve">
<style type="text/css">
	.st0{fill:#A2A2A2;}
</style>
<defs>
</defs>
<g>
	<path class="st0" d="M148.036,66.668H92.371c-14.173,0-25.703,11.529-25.703,25.701v55.668c0,14.171,11.531,25.703,25.703,25.703
		h55.665c14.173,0,25.704-11.531,25.704-25.703V92.37C173.739,78.197,162.209,66.668,148.036,66.668z M120.204,153.292
		c-18.245,0-33.088-14.843-33.088-33.089c0-18.243,14.843-33.087,33.088-33.087c18.243,0,33.087,14.844,33.087,33.087
		C153.291,138.449,138.447,153.292,120.204,153.292z M154.71,93.176c-4.392,0-7.953-3.56-7.953-7.951
		c0-4.393,3.561-7.955,7.953-7.955c4.391,0,7.952,3.562,7.952,7.955C162.662,89.616,159.101,93.176,154.71,93.176z"/>
	<path class="st0" d="M120.189,0C53.924,0,0,53.93,0,120.195c0,66.288,53.924,120.213,120.189,120.213
		c66.289,0,120.219-53.924,120.219-120.213C240.407,53.93,186.477,0,120.189,0z M184.816,148.037c0,20.28-16.5,36.778-36.78,36.778
		H92.371c-20.279,0-36.779-16.498-36.779-36.778V92.37c0-20.279,16.499-36.778,36.779-36.778h55.665
		c20.28,0,36.78,16.499,36.78,36.778V148.037z"/>
	<path class="st0" d="M120.204,98.193c-12.137,0-22.012,9.873-22.012,22.01c0,12.137,9.874,22.012,22.012,22.012
		c12.137,0,22.011-9.875,22.011-22.012C142.214,108.066,132.34,98.193,120.204,98.193z"/>
</g>
</svg>