<!-- Generator: Adobe Illustrator 22.1.0, SVG Export Plug-In  -->
<svg version="1.1"
	 xmlns="http://www.w3.org/2000/svg" xmlns:xlink="http://www.w3.org/1999/xlink" xmlns:a="http://ns.adobe.com/AdobeSVGViewerExtensions/3.0/"
	 x="0px" y="0px" width="83.733px" height="83.733px" viewBox="0 0 83.733 83.733"
	 style="enable-background:new 0 0 83.733 83.733;" xml:space="preserve">
<style type="text/css">
	.st0{fill:#A2A2A2;}
</style>
<defs>
</defs>
<g>
	<path class="st0" d="M41.861,0C18.781,0,0,18.784,0,41.863c0,23.088,18.781,41.869,41.861,41.869
		c23.088,0,41.872-18.781,41.872-41.869C83.733,18.784,64.949,0,41.861,0L41.861,0z M60.546,32.287
		c0.015,0.411,0.023,0.831,0.023,1.252c0,12.73-9.69,27.409-27.418,27.409c-5.443,0-10.508-1.587-14.772-4.33
		c0.757,0.091,1.522,0.139,2.298,0.139c4.519,0,8.67-1.539,11.971-4.125c-4.216-0.082-7.772-2.865-8.999-6.695
		c0.584,0.116,1.185,0.173,1.811,0.173c0.873,0,1.729-0.114,2.536-0.337c-4.406-0.881-7.732-4.774-7.732-9.443
		c0-0.042,0-0.082,0.008-0.124c1.292,0.725,2.785,1.153,4.366,1.202c-2.586-1.72-4.292-4.675-4.292-8.018
		c0-1.762,0.478-3.417,1.303-4.842c4.749,5.83,11.857,9.667,19.859,10.07c-0.164-0.708-0.247-1.44-0.247-2.199
		c0-5.318,4.315-9.633,9.635-9.633c2.774,0,5.276,1.17,7.03,3.038c2.199-0.428,4.266-1.227,6.128-2.338
		c-0.725,2.255-2.249,4.142-4.241,5.335c1.952-0.23,3.813-0.748,5.533-1.513C64.061,29.233,62.422,30.927,60.546,32.287
		L60.546,32.287z M60.546,32.287"/>
</g>
</svg>